<svg width="558" height="498" viewBox="0 0 558 498" fill="none" xmlns="http://www.w3.org/2000/svg">
<path d="M506.311 405.745C504.308 408.739 502.306 411.733 500.186 414.727C471.916 453.42 425.978 479.331 381.69 490.386C362.254 495.222 342.466 497.526 322.677 497.756C193.109 499.138 148.349 392.502 107.241 364.288C66.3679 336.074 3.58626 287.938 14.1873 190.63C22.3147 116.699 66.8391 46.9133 145.758 16.6268C154.474 13.2873 163.544 10.4083 173.085 8.10517C190.753 3.72918 209.953 1.31086 230.566 0.850234C289.578 -0.186186 337.165 15.0146 383.103 51.5196C393.822 60.0413 404.305 69.5994 418.44 70.9813C428.688 72.0177 438.582 68.563 428.099 58.5443C415.731 46.683 430.926 24.4576 462.611 40.9251C515.38 68.563 535.876 125.912 544.71 183.836C555.547 254.888 546.948 342.869 506.311 405.745Z" fill="#FFF3DB"/>
<path d="M63.5679 416.994L75.2679 428.694" stroke="#212121" stroke-width="2" stroke-miterlimit="10"/>
<path d="M75.2679 416.994L63.5679 428.694" stroke="#212121" stroke-width="2" stroke-miterlimit="10"/>
<path d="M1 56L12.7 67.7" stroke="#212121" stroke-width="2" stroke-miterlimit="10"/>
<path d="M12.7 56L1 67.7" stroke="#212121" stroke-width="2" stroke-miterlimit="10"/>
<path d="M303.476 270.951L315.276 282.651" stroke="#212121" stroke-width="2" stroke-miterlimit="10"/>
<path d="M315.276 270.951L303.476 282.651" stroke="#212121" stroke-width="2" stroke-miterlimit="10"/>
<path d="M113.89 433.472L107.102 440.26L113.89 447.048L120.678 440.26L113.89 433.472Z" stroke="#212121" stroke-width="2" stroke-miterlimit="10"/>
<path d="M98.356 94.9936L91.5679 101.782L98.356 108.57L105.144 101.782L98.356 94.9936Z" stroke="#212121" stroke-width="2" stroke-miterlimit="10"/>
<path d="M481.788 34.999L475 41.7871L481.788 48.5753L488.576 41.7871L481.788 34.999Z" stroke="#212121" stroke-width="2" stroke-miterlimit="10"/>
<path d="M419.375 446.557L431.176 458.357" stroke="#212121" stroke-width="2" stroke-miterlimit="10"/>
<path d="M431.176 446.557L419.375 458.357" stroke="#212121" stroke-width="2" stroke-miterlimit="10"/>
<path d="M258.976 54.3564L270.676 66.1564" stroke="#212121" stroke-width="2" stroke-miterlimit="10"/>
<path d="M270.676 54.3564L258.976 66.1564" stroke="#212121" stroke-width="2" stroke-miterlimit="10"/>
<path d="M483.568 253.999L495.268 265.799" stroke="#212121" stroke-width="2" stroke-miterlimit="10"/>
<path d="M495.268 253.999L483.568 265.799" stroke="#212121" stroke-width="2" stroke-miterlimit="10"/>
<path d="M117.168 191.898L128.968 203.698" stroke="#212121" stroke-width="2" stroke-miterlimit="10"/>
<path d="M128.968 191.898L117.168 203.698" stroke="#212121" stroke-width="2" stroke-miterlimit="10"/>
<path d="M455.217 380.146L448.429 386.935L455.217 393.723L462.005 386.935L455.217 380.146Z" stroke="#212121" stroke-width="2" stroke-miterlimit="10"/>
<path d="M73.356 298.999L66.5679 305.787L73.356 312.575L80.1442 305.787L73.356 298.999Z" stroke="#212121" stroke-width="2" stroke-miterlimit="10"/>
<path d="M350.316 212.744L343.528 219.532L350.316 226.32L357.105 219.532L350.316 212.744Z" stroke="#212121" stroke-width="2" stroke-miterlimit="10"/>
<path d="M132.768 271.293L128.968 276.093L133.268 280.293C132.068 282.493 131.468 284.893 131.268 287.393L125.368 288.693L126.068 294.693L132.068 294.593C132.768 296.893 133.968 299.093 135.668 300.993L132.368 306.093L137.168 309.893L141.368 305.593C143.568 306.793 145.968 307.393 148.468 307.593L149.768 313.493L155.768 312.793L155.668 306.793C157.968 306.093 160.168 304.893 162.068 303.193L167.168 306.493L170.968 301.693L166.668 297.493C167.868 295.293 168.468 292.893 168.668 290.393L174.568 289.093L173.868 283.093L167.868 283.193C167.168 280.893 165.968 278.693 164.268 276.793L167.568 271.693L162.768 267.893L158.568 272.193C156.368 270.993 153.968 270.393 151.468 270.193L150.168 264.293L144.168 264.993L144.268 270.993C141.968 271.693 139.768 272.893 137.868 274.593L132.768 271.293ZM156.568 280.493C161.168 284.093 161.868 290.793 158.268 295.393C154.668 299.993 147.968 300.693 143.368 297.093C138.768 293.493 138.068 286.793 141.668 282.193C145.368 277.693 151.968 276.893 156.568 280.493Z" fill="white" stroke="#212121" stroke-width="2" stroke-miterlimit="10" stroke-linecap="round" stroke-linejoin="round"/>
<path d="M102.968 235.994L99.1679 240.794L103.468 244.994C102.268 247.194 101.668 249.594 101.468 252.094L95.5679 253.394L96.2679 259.394L102.268 259.294C102.968 261.594 104.168 263.794 105.868 265.694L102.568 270.794L107.368 274.594L111.568 270.294C113.768 271.494 116.168 272.094 118.668 272.294L119.968 278.194L125.968 277.494L125.868 271.494C128.168 270.794 130.368 269.594 132.268 267.894L137.368 271.194L141.168 266.394L136.868 262.194C138.068 259.994 138.668 257.594 138.868 255.094L144.768 253.794L144.068 247.794L138.068 247.894C137.368 245.594 136.168 243.394 134.468 241.494L137.768 236.394L132.968 232.594L128.768 236.894C126.568 235.694 124.168 235.094 121.668 234.894L120.368 228.994L114.368 229.694L114.468 235.694C112.168 236.394 109.968 237.594 108.068 239.294L102.968 235.994ZM126.768 245.194C131.368 248.794 132.068 255.494 128.468 260.094C124.868 264.694 118.168 265.394 113.568 261.794C108.968 258.194 108.268 251.494 111.868 246.894C115.468 242.294 122.168 241.594 126.768 245.194Z" fill="white" stroke="#212121" stroke-width="2" stroke-miterlimit="10" stroke-linecap="round" stroke-linejoin="round"/>
<path d="M444.768 328.894L441.968 325.594L438.368 328.094C436.968 326.994 435.368 326.194 433.668 325.694V321.394L429.368 320.994L428.568 325.294C426.868 325.494 425.168 325.994 423.568 326.894L420.468 323.894L417.168 326.694L419.668 330.294C418.568 331.694 417.768 333.294 417.268 334.994H412.968L412.568 339.294L416.868 340.094C417.068 341.794 417.568 343.494 418.468 345.094L415.468 348.194L418.268 351.494L421.868 348.994C423.268 350.094 424.868 350.894 426.568 351.394V355.694L430.868 356.094L431.668 351.794C433.368 351.594 435.068 351.094 436.668 350.194L439.768 353.194L443.068 350.394L440.568 346.794C441.668 345.394 442.468 343.794 442.968 342.094H447.268L447.668 337.794L443.368 336.994C443.168 335.294 442.668 333.594 441.768 331.994L444.768 328.894ZM434.968 344.294C431.768 346.994 426.968 346.594 424.268 343.394C421.568 340.194 421.968 335.394 425.168 332.694C428.368 329.994 433.168 330.394 435.868 333.594C438.568 336.794 438.168 341.594 434.968 344.294Z" fill="white" stroke="#212121" stroke-width="2" stroke-miterlimit="10" stroke-linecap="round" stroke-linejoin="round"/>
<path d="M473.868 312.894L471.068 309.594L467.468 312.094C466.068 310.994 464.468 310.194 462.768 309.694V305.394L458.468 304.994L457.668 309.294C455.968 309.494 454.268 309.994 452.668 310.894L449.568 307.894L446.268 310.694L448.768 314.294C447.668 315.694 446.868 317.294 446.368 318.994H442.068L441.668 323.294L445.968 324.094C446.168 325.794 446.668 327.494 447.568 329.094L444.568 332.194L447.368 335.494L450.968 332.994C452.368 334.094 453.968 334.894 455.668 335.394V339.694L459.968 340.094L460.768 335.794C462.468 335.594 464.168 335.094 465.768 334.194L468.868 337.194L472.168 334.394L469.668 330.794C470.768 329.394 471.568 327.794 472.068 326.094H476.368L476.768 321.794L472.468 320.994C472.268 319.294 471.768 317.594 470.868 315.994L473.868 312.894ZM463.968 328.294C460.768 330.994 455.968 330.594 453.268 327.394C450.568 324.194 450.968 319.394 454.168 316.694C457.368 313.994 462.168 314.394 464.868 317.594C467.568 320.794 467.168 325.594 463.968 328.294Z" fill="white" stroke="#212121" stroke-width="2" stroke-miterlimit="10" stroke-linecap="round" stroke-linejoin="round"/>
<path d="M360.568 165.113L363.068 167.213L365.968 163.713L363.468 161.613L364.868 159.813L367.468 161.913L369.268 159.713L366.668 157.613L382.768 138.013L379.368 135.313L355.568 164.413L358.868 167.113L360.568 165.113Z" fill="#E96B86" stroke="#212121" stroke-width="2" stroke-miterlimit="10" stroke-linecap="round" stroke-linejoin="round"/>
<path d="M396.768 136.313C400.668 131.513 399.968 124.413 395.168 120.513C390.368 116.613 383.268 117.313 379.368 122.113C375.468 126.913 376.168 134.013 380.968 137.913C385.768 141.813 392.868 141.113 396.768 136.313ZM384.468 126.213C386.068 124.213 389.068 123.913 391.068 125.513C393.068 127.113 393.368 130.113 391.768 132.113C390.168 134.113 387.168 134.413 385.168 132.813C383.068 131.213 382.768 128.213 384.468 126.213Z" fill="#E96B86" stroke="#212121" stroke-width="2" stroke-miterlimit="10" stroke-linecap="round" stroke-linejoin="round"/>
<path d="M433.186 234.429C433.186 234.429 406.986 259.629 406.586 263.029C406.186 266.529 412.386 269.529 415.486 269.329C418.586 269.129 438.386 239.729 438.386 239.729C438.386 239.729 435.286 236.729 433.186 234.429Z" fill="#263238" stroke="#212121" stroke-width="2" stroke-miterlimit="10"/>
<path opacity="0.58" d="M465.186 237.629C454.586 244.729 440.786 242.829 434.486 233.329C428.186 223.829 431.586 210.429 442.186 203.329C452.786 196.229 466.586 198.129 472.886 207.629C479.286 217.129 475.886 230.529 465.186 237.629Z" fill="white" fill-opacity="0.7" stroke="#212121" stroke-width="2" stroke-miterlimit="10"/>
<path d="M432.086 234.929C424.986 224.229 428.786 209.129 440.786 201.129C451.586 193.929 465.286 195.029 473.086 203.229C465.786 192.929 450.686 190.929 438.886 198.829C426.986 206.829 423.086 221.929 430.186 232.629C430.886 233.629 431.586 234.529 432.386 235.329C432.386 235.229 432.186 235.129 432.086 234.929Z" fill="#263238" stroke="#212121" stroke-width="2" stroke-miterlimit="10"/>
<path d="M472.986 207.628C469.486 202.428 463.786 199.528 457.586 199.128C462.786 199.928 467.586 202.628 470.586 207.128C476.686 216.228 473.386 229.028 463.186 235.828C452.986 242.628 439.886 240.728 433.886 231.728C433.386 230.928 432.886 230.028 432.486 229.128C432.986 230.628 433.686 232.028 434.586 233.428C440.886 242.928 454.686 244.828 465.286 237.728C475.886 230.528 479.286 217.128 472.986 207.628Z" fill="#263238" stroke="#212121" stroke-width="2" stroke-miterlimit="10"/>
<path d="M475.386 206.029C468.286 195.329 452.786 193.129 440.886 201.129C428.986 209.129 425.086 224.229 432.186 234.929C439.286 245.629 454.786 247.829 466.686 239.829C478.586 231.829 482.486 216.729 475.386 206.029ZM465.186 237.629C454.586 244.729 440.786 242.829 434.486 233.329C428.186 223.829 431.586 210.429 442.186 203.329C452.786 196.229 466.586 198.129 472.886 207.629C479.286 217.129 475.886 230.529 465.186 237.629Z" fill="white" stroke="#212121" stroke-width="2" stroke-miterlimit="10"/>
<path d="M377.976 328.151L400.976 353.551L202.776 350.351L217.476 324.851L377.976 328.151Z" fill="#E96B73" stroke="#212121" stroke-width="2" stroke-miterlimit="10" stroke-linecap="round" stroke-linejoin="round"/>
<path d="M149.576 333.851L246.476 322.251L377.976 328.151L311.976 338.651L149.576 333.851Z" fill="#E96B73" stroke="#212121" stroke-width="2" stroke-miterlimit="10" stroke-linecap="round" stroke-linejoin="round"/>
<path d="M149.576 333.851L95.9756 293.751L199.576 285.551L246.476 322.251L149.576 333.851Z" fill="#E96B73" stroke="#212121" stroke-width="2" stroke-miterlimit="10" stroke-linecap="round" stroke-linejoin="round"/>
<path d="M311.976 496.051L146.976 484.651L149.576 333.851L311.976 338.651V496.051Z" fill="#E96B73" stroke="#212121" stroke-width="2" stroke-miterlimit="10" stroke-linecap="round" stroke-linejoin="round"/>
<path d="M311.976 338.651L377.976 328.151L378.576 477.951L311.976 496.051V338.651Z" fill="#E96B73" stroke="#212121" stroke-width="2" stroke-miterlimit="10" stroke-linecap="round" stroke-linejoin="round"/>
<path d="M311.976 338.651L369.476 303.351L442.576 293.351L377.976 328.151L311.976 338.651Z" fill="#E96B73" stroke="#212121" stroke-width="2" stroke-miterlimit="10" stroke-linecap="round" stroke-linejoin="round"/>
<path d="M149.576 333.851L94.6758 372.751L271.876 381.751L311.976 338.651L149.576 333.851Z" fill="#E96B73" stroke="#212121" stroke-width="2" stroke-miterlimit="10" stroke-linecap="round" stroke-linejoin="round"/>
<path d="M152.773 153.175L152.774 153.177C154.143 156.126 153.787 159.31 152.303 161.288L151.999 161.693L152.145 162.177L156.362 176.153L148.393 163.887L148.126 163.476L147.637 163.435C145.3 163.24 142.683 161.336 141.294 158.347C139.354 154.142 140.678 149.783 143.678 148.47C146.715 147.141 150.838 148.982 152.773 153.175Z" fill="#FAC04F" stroke="#212121" stroke-width="2"/>
<path d="M146.879 153.177C147.599 154.729 148.025 156.163 148.167 157.224C148.226 157.663 148.232 158.002 148.206 158.242C148.014 158.099 147.769 157.872 147.484 157.546C146.765 156.722 145.946 155.449 145.222 153.947C144.503 152.397 144.078 150.966 143.936 149.906C143.876 149.455 143.872 149.109 143.899 148.867C144.09 149.002 144.336 149.222 144.625 149.547C145.338 150.351 146.156 151.62 146.879 153.177ZM148.135 158.556C148.135 158.556 148.137 158.553 148.14 158.548C148.137 158.554 148.136 158.557 148.135 158.556ZM148.482 158.406C148.49 158.407 148.495 158.409 148.495 158.409C148.495 158.41 148.491 158.409 148.482 158.406ZM143.968 148.574C143.968 148.574 143.967 148.577 143.964 148.582C143.966 148.576 143.968 148.574 143.968 148.574ZM143.641 148.723C143.634 148.722 143.629 148.72 143.629 148.72C143.629 148.72 143.633 148.72 143.641 148.723Z" fill="white" stroke="#212121" stroke-width="2"/>
<path d="M209.083 136.258L208.816 135.847L208.327 135.807C205.99 135.612 203.373 133.708 201.984 130.719C200.044 126.514 201.368 122.154 204.368 120.842C207.404 119.514 211.524 121.352 213.461 125.542C214.837 128.616 214.474 131.685 212.993 133.66L212.689 134.065L212.835 134.549L217.051 148.524L209.083 136.258Z" fill="#FAC04F" stroke="#212121" stroke-width="2"/>
<path d="M207.686 125.439C208.405 126.989 208.83 128.42 208.972 129.48C209.031 129.919 209.036 130.258 209.011 130.498C208.818 130.355 208.574 130.128 208.289 129.802C207.57 128.978 206.75 127.705 206.026 126.203C205.308 124.653 204.883 123.222 204.741 122.162C204.682 121.723 204.677 121.384 204.702 121.144C204.894 121.287 205.139 121.514 205.424 121.84C206.143 122.663 206.963 123.937 207.686 125.439ZM208.94 130.812C208.94 130.812 208.941 130.809 208.945 130.804C208.942 130.81 208.94 130.812 208.94 130.812ZM209.286 130.661C209.295 130.663 209.3 130.665 209.3 130.665C209.3 130.665 209.296 130.665 209.286 130.661ZM204.773 120.83C204.773 120.83 204.772 120.833 204.768 120.838C204.771 120.832 204.773 120.829 204.773 120.83ZM204.427 120.98C204.418 120.979 204.413 120.977 204.413 120.977C204.413 120.976 204.417 120.977 204.427 120.98Z" fill="white" stroke="#212121" stroke-width="2"/>
<path d="M168.233 149.801L168.231 149.797C164.677 142.023 167.019 133.824 172.939 131.124C178.85 128.427 186.55 132.091 190.109 139.875C192.649 145.509 192.157 151.358 189.4 155.176L189.111 155.575L189.252 156.047L198.269 186.327L180.991 159.839L180.734 159.445L180.266 159.392C175.573 158.858 170.766 155.417 168.233 149.801Z" fill="#FAC04F" stroke="#212121" stroke-width="2"/>
<path d="M180.164 139.059L180.164 139.059L180.168 139.066C181.281 141.515 181.846 143.898 181.899 145.747C181.926 146.674 181.823 147.419 181.631 147.958C181.443 148.488 181.201 148.74 180.987 148.851C180.753 148.958 180.415 148.985 179.911 148.795C179.391 148.598 178.77 148.193 178.089 147.559C176.733 146.295 175.299 144.274 174.124 141.814C173.013 139.368 172.449 136.988 172.396 135.141C172.37 134.215 172.473 133.469 172.664 132.931C172.852 132.4 173.095 132.148 173.308 132.038C173.549 131.927 173.901 131.897 174.415 132.083C174.944 132.273 175.573 132.669 176.257 133.293C177.621 134.538 179.051 136.553 180.164 139.059Z" fill="#212121" stroke="#212121" stroke-width="2"/>
<path d="M169.98 103.048L194.141 100.042L201.077 115.186L177.61 125.937L169.98 103.048Z" fill="white" stroke="#212121" stroke-width="2" stroke-miterlimit="10"/>
<path d="M179.46 101.892L169.98 103.048L177.61 125.937L184.546 122.7L179.46 101.892Z" fill="#263238" stroke="#212121" stroke-width="2" stroke-miterlimit="10"/>
<path d="M183.506 87.0955C183.274 85.2459 182.35 79.2348 184.662 77.732C187.205 76.9228 191.251 81.5468 192.407 83.0495C196.453 87.7891 199.574 93.3379 201.424 99.3491C201.539 99.9271 201.77 100.389 201.886 100.967L207.088 119.463L204.082 120.851L201.077 122.238L190.557 106.169C190.21 105.707 189.979 105.245 189.632 104.782C186.627 99.2335 184.43 93.2223 183.506 87.0955Z" fill="white" stroke="#212121" stroke-width="2" stroke-miterlimit="10"/>
<path d="M183.737 88.4826C183.621 88.0202 183.506 87.5578 183.506 86.9798C183.274 85.1302 182.35 79.119 184.662 77.6162C187.205 76.8071 191.251 81.431 192.407 82.9338C192.754 83.2806 192.985 83.743 193.332 84.0898L183.737 88.4826Z" fill="#74CBED" stroke="#212121" stroke-width="2" stroke-miterlimit="10"/>
<path d="M205.816 114.376C206.626 117.151 207.204 119.232 207.204 119.232L201.192 122.006C201.192 122.006 200.036 120.156 198.418 117.729L205.816 114.376Z" fill="#74CBED" stroke="#212121" stroke-width="2" stroke-miterlimit="10"/>
<path d="M153.103 110.793L134.838 126.977L141.774 142.237L165.241 131.486L153.103 110.793Z" fill="white" stroke="#212121" stroke-width="2" stroke-miterlimit="10"/>
<path d="M158.421 134.607L165.241 131.486L153.103 110.793L145.936 117.151L158.421 134.607Z" fill="#263238" stroke="#212121" stroke-width="2" stroke-miterlimit="10"/>
<path d="M166.628 74.9573C167.091 76.4601 167.553 77.8473 167.9 79.3501C167.9 79.3501 169.171 83.8585 171.021 90.2164C175.298 105.244 182.465 130.561 182.465 130.561L165.703 138.19C165.703 138.19 151.831 116.804 143.161 103.626C139.347 97.7304 136.572 93.5688 136.572 93.5688C135.763 92.2972 134.954 91.0256 134.145 89.6384C126.862 77.2693 121.429 63.8597 118.308 49.7566C117.614 46.8666 117.152 43.861 116.689 40.971C115.88 35.6534 113.452 19.0071 119.926 15.0767C127.093 12.8803 138.075 25.5963 141.543 29.6423C143.624 32.0698 145.589 34.613 147.439 37.1562C155.877 48.6006 162.351 61.3165 166.628 74.9573Z" fill="white" stroke="#212121" stroke-width="2" stroke-miterlimit="10"/>
<path d="M135.416 23.0531C130.676 18.4292 124.434 13.574 119.926 15.0768C115.764 17.62 115.302 25.3651 115.764 32.0699L135.416 23.0531Z" fill="#74CBED" stroke="#212121" stroke-width="2" stroke-miterlimit="10"/>
<path d="M161.658 131.716C164.201 135.531 165.819 138.074 165.819 138.074L182.581 130.445C182.581 130.445 181.772 127.555 180.5 123.046L161.658 131.716Z" fill="#74CBED" stroke="#212121" stroke-width="2" stroke-miterlimit="10"/>
<path d="M132.064 110.447C130.792 108.944 126.862 104.436 124.319 105.129C122.007 106.516 122.932 112.528 123.163 114.493C124.088 120.735 126.284 126.631 129.521 131.948C129.752 132.411 130.099 132.873 130.446 133.335L140.965 149.404L143.971 148.017L146.976 146.629L141.774 128.133C141.659 127.555 141.428 127.093 141.312 126.515C139.231 120.851 136.11 115.302 132.064 110.447Z" fill="white" stroke="#212121" stroke-width="2" stroke-miterlimit="10"/>
<path d="M132.989 111.603C132.642 111.256 132.411 110.794 132.064 110.447C130.792 108.944 126.862 104.436 124.319 105.129C122.007 106.516 122.932 112.528 123.163 114.493C123.278 114.955 123.278 115.417 123.394 115.995L132.989 111.603Z" fill="#74CBED" stroke="#212121" stroke-width="2" stroke-miterlimit="10"/>
<path d="M137.959 145.242C139.578 147.67 140.734 149.519 140.734 149.519L146.745 146.745C146.745 146.745 146.167 144.664 145.358 141.89L137.959 145.242Z" fill="#74CBED" stroke="#212121" stroke-width="2" stroke-miterlimit="10"/>
<path d="M146.629 45.5951C143.971 39.6995 137.035 37.1563 131.255 39.8151C125.359 42.4739 122.816 49.4099 125.475 55.1898C128.134 61.0854 135.07 63.6286 140.85 60.9698C146.629 58.4266 149.288 51.4906 146.629 45.5951Z" fill="#74CBED" stroke="#212121" stroke-width="2" stroke-miterlimit="10"/>
<path d="M142.93 47.3289C141.196 43.5141 136.688 41.7801 132.873 43.5141C129.059 45.2481 127.325 49.7564 129.058 53.5712C130.792 57.386 135.301 59.12 139.116 57.386C142.93 55.652 144.664 51.1436 142.93 47.3289Z" fill="white" stroke="#212121" stroke-width="2" stroke-miterlimit="10"/>
<path d="M159.577 74.2635C156.918 68.3679 149.982 65.8248 144.202 68.4835C138.306 71.1423 135.763 78.0783 138.422 83.8583C141.081 89.7539 148.017 92.2971 153.797 89.6383C159.692 86.9795 162.236 80.1591 159.577 74.2635Z" fill="#74CBED" stroke="#212121" stroke-width="2" stroke-miterlimit="10"/>
<path d="M155.878 75.9973C154.144 72.1825 149.635 70.4485 145.821 72.1825C142.006 73.9165 140.272 78.4249 142.006 82.2397C143.74 86.0545 148.248 87.7885 152.063 86.0545C155.993 84.3205 157.612 79.8121 155.878 75.9973Z" fill="white" stroke="#212121" stroke-width="2" stroke-miterlimit="10"/>
<path d="M151.947 135.069L160.039 152.872" stroke="#212121" stroke-width="2" stroke-miterlimit="10"/>
<path d="M161.889 156.917L163.623 160.848" stroke="#212121" stroke-width="2" stroke-miterlimit="10"/>
<path d="M187.32 120.388L203.389 155.646" stroke="#212121" stroke-width="2" stroke-miterlimit="10"/>
<path d="M205.007 159.229L206.856 163.16" stroke="#212121" stroke-width="2" stroke-miterlimit="10"/>
<path d="M190.788 115.88L194.025 123.163" stroke="#212121" stroke-width="2" stroke-miterlimit="10"/>
<path d="M148.017 137.034L150.097 141.658" stroke="#212121" stroke-width="2" stroke-miterlimit="10"/>
<path d="M199.112 197.262C199.112 197.262 219.689 252.518 214.949 335.056" stroke="#212121" stroke-width="2" stroke-miterlimit="10" stroke-linecap="round" stroke-linejoin="round" stroke-dasharray="3 3"/>
<path d="M162.582 179.806C162.582 179.806 201.077 226.74 200.845 291.244" stroke="#212121" stroke-width="2" stroke-miterlimit="10" stroke-linecap="round" stroke-linejoin="round" stroke-dasharray="3 3"/>
<path d="M223.85 165.009C223.85 165.009 229.283 206.625 223.85 244.657" stroke="#212121" stroke-width="2" stroke-miterlimit="10" stroke-linecap="round" stroke-linejoin="round" stroke-dasharray="3 3"/>
<path d="M306.076 330.957C306.076 330.957 306.076 330.389 306.076 329.254" stroke="#212121" stroke-width="2" stroke-linecap="round" stroke-linejoin="round"/>
<path d="M306.303 325.85C307.778 311.551 315.949 269.788 363.273 239.714C421.264 202.944 457.24 188.758 450.203 154.145C443.167 119.532 375.983 152.783 400.042 196.589C424.102 240.395 479.256 197.951 488.448 151.308C497.187 106.708 433.407 85.3724 409.916 70.6191" stroke="#212121" stroke-width="2" stroke-linecap="round" stroke-linejoin="round" stroke-dasharray="2.99 2.99"/>
<path d="M408.554 69.7108C408.1 69.3704 407.646 69.0299 407.192 68.6895" stroke="#212121" stroke-width="2" stroke-linecap="round" stroke-linejoin="round"/>
<path d="M404.241 76.0663L344.434 42.3608L400.496 60.1782L404.241 76.0663Z" fill="#FAC04F" stroke="#212121" stroke-width="2" stroke-miterlimit="10" stroke-linecap="round" stroke-linejoin="round"/>
<path d="M341.143 40.999L378.48 82.308L400.496 60.1782L341.143 40.999Z" fill="#FAC04F" stroke="#212121" stroke-width="2" stroke-miterlimit="10" stroke-linecap="round" stroke-linejoin="round"/>
<path d="M341.143 40.999L426.485 44.4036L408.44 55.0713L341.143 40.999Z" fill="#FAC04F" stroke="#212121" stroke-width="2" stroke-miterlimit="10" stroke-linecap="round" stroke-linejoin="round"/>
<path d="M408.44 55.0713L404.241 76.0663L400.496 60.1782L341.143 40.999L408.44 55.0713Z" fill="#FAC04F" stroke="#212121" stroke-width="2" stroke-miterlimit="10" stroke-linecap="round" stroke-linejoin="round"/>
<path d="M556.9 76.899C556.7 80.699 556.2 81.799 554.2 82.399C552.2 83.099 548.7 80.199 546.7 81.699C544.7 83.199 545.2 87.199 545.8 88.599C546.1 89.199 546.6 92.999 547.1 97.499C546 97.499 544.9 97.499 543.8 97.499C530.7 97.299 533 95.699 531 98.599C529 101.499 533.7 106.099 530.8 108.599C527.9 110.999 522.4 109.499 521.9 106.799C521.5 104.099 524.1 102.399 523.9 99.499C523.7 96.599 517.7 96.799 512.2 97.499C510.3 97.699 507.9 97.599 505.3 97.499C505.8 93.399 506.2 89.699 506.4 88.199C506.8 84.899 507.3 81.999 505.7 80.699C504.2 79.399 498.6 83.099 496.6 82.199C494.6 81.299 494.2 74.399 497 71.999C499.9 69.599 503 72.899 504.3 72.699C505.6 72.499 506.3 72.699 506.5 69.399C506.7 66.799 505.6 59.899 505.2 56.999H546.7C546.2 60.299 545.2 66.899 545.2 70.699C545.2 75.999 548.7 75.799 551 74.199C553.3 72.699 557.1 73.199 556.9 76.899Z" fill="#74CBED" stroke="#212121" stroke-width="2" stroke-miterlimit="10" stroke-linecap="round" stroke-linejoin="round"/>
<path d="M243.668 53.3569L200.468 65.1569C199.568 63.1569 197.368 58.1569 196.368 56.0569C195.068 53.3569 193.968 47.2569 197.168 47.9569C200.368 48.5569 206.868 47.0569 205.768 41.2569C204.668 35.4569 200.468 35.8569 197.268 38.9569C194.068 42.1569 191.268 39.3569 190.168 34.5569C189.468 31.5569 188.268 26.0569 186.568 20.4569C195.268 19.1569 204.668 17.9569 205.468 16.5569C206.868 14.1569 201.568 10.7569 202.068 7.75688C202.568 4.85687 208.268 1.45688 210.968 3.75688C213.668 6.05688 212.068 9.55687 212.568 12.2569C213.068 14.9569 213.868 15.2569 216.868 14.9569C218.568 14.7569 226.468 11.8569 232.868 9.25688C236.068 20.9569 238.468 27.0569 235.268 27.2569C231.768 27.4569 226.168 26.6569 225.368 31.2569C224.568 35.8569 226.968 38.9569 230.668 38.4569C234.368 37.9569 236.668 33.2569 239.168 35.0569C240.568 36.1569 242.068 44.9569 243.668 53.3569Z" fill="#A8EC6C" stroke="#212121" stroke-width="2" stroke-miterlimit="10" stroke-linecap="round" stroke-linejoin="round"/>
<path d="M82.0679 188.094L72.2679 196.294L73.3679 209.094L62.5679 202.194L50.8679 207.294L53.9679 194.894L45.5679 185.294L58.2679 184.494L64.8679 173.494L69.5679 185.294L82.0679 188.094Z" fill="#FADF4F" stroke="#212121" stroke-width="2" stroke-miterlimit="10" stroke-linecap="round" stroke-linejoin="round"/>
<path d="M93.5678 147.394L91.3678 154.994L96.4678 160.994L88.5678 161.394L84.3678 168.094L81.6678 160.694L73.9678 158.694L80.1678 153.794L79.5678 145.994L86.1678 150.294L93.5678 147.394Z" fill="#FADF4F" stroke="#212121" stroke-width="2" stroke-miterlimit="10" stroke-linecap="round" stroke-linejoin="round"/>
<path d="M363.276 272.951L361.176 280.551L366.176 286.551L358.276 286.951L354.176 293.651L351.376 286.251L343.676 284.251L349.876 279.351L349.376 271.451L355.976 275.851L363.276 272.951Z" fill="#FADF4F" stroke="#212121" stroke-width="2" stroke-miterlimit="10" stroke-linecap="round" stroke-linejoin="round"/>
<path d="M310.276 251.451C310.276 251.451 323.276 241.051 325.876 240.451C328.576 239.851 330.976 235.851 329.876 232.951C328.876 230.151 325.776 215.651 324.876 210.851C323.976 206.051 323.176 195.051 320.876 188.451C318.576 181.851 318.476 176.151 317.476 174.151C316.476 172.151 311.676 172.851 309.676 177.551C307.676 182.251 307.776 186.751 309.076 189.951C310.376 193.151 313.276 205.151 313.876 207.251C314.476 209.351 316.176 222.151 316.176 222.151C316.176 222.151 316.776 229.551 313.876 235.651C310.976 241.851 306.376 248.751 306.376 250.751C306.476 252.851 310.276 251.451 310.276 251.451Z" fill="#C48C38" stroke="#212121" stroke-width="2" stroke-miterlimit="10" stroke-linecap="round" stroke-linejoin="round"/>
<path d="M315.576 209.351C315.576 209.351 309.476 195.951 308.276 190.551C307.176 185.151 307.276 180.451 302.676 183.451C298.076 186.551 297.276 197.851 299.276 203.951C301.176 210.051 305.176 214.651 305.776 216.351C306.376 218.051 308.876 224.051 308.876 225.551C308.876 227.051 311.176 226.551 312.876 221.951C314.576 217.451 315.576 209.351 315.576 209.351Z" fill="white" stroke="#212121" stroke-width="2" stroke-miterlimit="10" stroke-linecap="round" stroke-linejoin="round"/>
<path d="M304.676 226.251C304.676 226.251 299.076 215.151 296.776 209.551C294.476 203.951 293.876 194.451 291.076 193.651C288.176 192.851 284.976 199.551 284.976 207.251C284.976 214.951 287.476 217.551 288.976 220.451C290.476 223.351 294.176 230.951 294.176 230.951L292.876 236.551L304.676 226.251Z" fill="#C48C38" stroke="#212121" stroke-width="2" stroke-miterlimit="10" stroke-linecap="round" stroke-linejoin="round"/>
<path d="M290.976 72.8511V92.6511" stroke="#212121" stroke-width="2" stroke-miterlimit="10"/>
<path d="M232.176 138.051H249.476" stroke="#212121" stroke-width="2" stroke-miterlimit="10"/>
<path d="M329.376 138.051H346.676" stroke="#212121" stroke-width="2" stroke-miterlimit="10"/>
<path d="M327.476 95.251L317.876 106.151" stroke="#212121" stroke-width="2" stroke-miterlimit="10"/>
<path d="M253.976 95.251L263.576 106.151" stroke="#212121" stroke-width="2" stroke-miterlimit="10"/>
<path d="M272.976 183.251C272.676 184.951 272.476 186.351 273.476 187.851L307.176 188.251C308.676 186.251 308.376 183.751 308.276 180.851C308.176 175.551 309.776 170.251 312.476 165.751C314.776 161.951 317.976 158.551 319.876 154.551C321.776 150.551 322.576 146.051 322.576 141.651C322.776 123.551 308.676 108.751 290.976 108.551C273.376 108.351 258.876 122.851 258.676 140.951C258.576 146.451 259.876 151.951 262.476 156.851C266.876 164.851 274.476 173.351 272.976 183.251Z" fill="#FADF4F" stroke="#212121" stroke-width="2" stroke-miterlimit="10" stroke-linecap="round" stroke-linejoin="round"/>
<path opacity="0.36" d="M298.932 161.107C310.125 156.825 315.728 144.279 311.446 133.086C307.164 121.892 294.619 116.289 283.425 120.571C272.231 124.853 266.629 137.399 270.911 148.593C275.193 159.786 287.738 165.389 298.932 161.107Z" fill="white"/>
<path opacity="0.36" d="M280.676 143.151C281.976 148.951 287.676 152.651 293.576 151.351C299.376 150.051 303.076 144.351 301.776 138.451C300.476 132.651 294.776 128.951 288.876 130.251C282.976 131.551 279.376 137.351 280.676 143.151Z" fill="white"/>
<path d="M297.976 216.751L282.176 216.251C273.876 216.151 273.176 209.551 273.176 201.251L273.476 187.951L307.176 188.351L306.876 201.651C306.776 209.851 306.276 216.851 297.976 216.751Z" fill="#263238" stroke="#212121" stroke-width="2" stroke-miterlimit="10" stroke-linecap="round" stroke-linejoin="round"/>
<path d="M242.076 293.651C242.076 293.651 237.276 268.151 237.676 261.851C238.076 255.551 254.376 235.051 256.476 230.251C258.576 225.451 261.876 217.451 261.076 211.651C260.276 205.951 259.376 201.151 263.376 200.751C267.376 200.351 272.976 204.751 274.676 210.151C276.376 215.551 275.976 218.551 273.176 226.451C270.276 234.351 269.776 241.051 269.776 241.051C269.776 241.051 279.176 241.251 281.276 240.451C283.376 239.651 303.976 226.151 305.576 223.951C307.176 221.751 306.776 211.651 307.376 204.451C307.976 197.351 309.176 188.651 313.776 182.251C318.376 175.851 323.076 177.751 323.976 180.351C324.876 182.951 320.176 204.351 320.476 210.851C320.876 217.351 322.176 231.051 322.276 235.451C322.376 239.851 321.376 240.651 318.176 243.751C314.876 246.851 304.776 257.651 296.376 264.151C287.976 270.651 280.676 283.651 280.276 284.851C279.876 285.951 281.076 301.151 281.076 301.151L282.076 305.951H244.176L242.076 293.651Z" fill="#C48C38" stroke="#212121" stroke-width="2" stroke-miterlimit="10" stroke-linecap="round" stroke-linejoin="round"/>
<path d="M269.576 240.951C269.576 240.951 268.976 246.351 269.976 248.951" stroke="#212121" stroke-width="2" stroke-miterlimit="10" stroke-linecap="round" stroke-linejoin="round"/>
<path d="M288.576 299.951H237.176V318.251H288.576V299.951Z" fill="white" stroke="#212121" stroke-width="2" stroke-miterlimit="10" stroke-linecap="round" stroke-linejoin="round"/>
<path d="M294.576 338.151V310.351H231.276V336.251L294.576 338.151Z" fill="#263238" stroke="#212121" stroke-width="2" stroke-miterlimit="10" stroke-linecap="round" stroke-linejoin="round"/>
</svg>
