<svg width="545" height="534" viewBox="0 0 545 534" fill="none" xmlns="http://www.w3.org/2000/svg">
<path d="M433.108 62.2184C419.53 33.6067 406.196 6.82914 363.992 2.06053C330.964 -1.60763 292.919 -1.85218 262.582 13.9209C236.281 27.6154 226.128 58.9171 200.561 73.4674C180.499 84.8388 155.911 82.0265 132.913 79.7033C85.6946 74.8124 40.1883 92.7864 15.3556 135.337C-5.44029 171.041 -5.07331 217.993 16.2119 253.33C24.6526 267.391 36.0291 279.374 44.9591 293.19C53.8891 306.885 60.4949 323.269 57.559 339.409C55.1124 352.981 46.5494 364.353 41.1669 377.069C26.7322 410.694 37.9864 453 66.122 476.599C85.8169 493.105 111.628 500.564 137.195 503.743C177.563 508.756 218.666 504.354 258.3 495.184C282.032 489.682 306.131 482.59 330.474 485.158C351.148 487.359 370.231 496.407 389.681 503.621C412.557 512.057 437.023 517.804 461.366 515.481C491.337 512.669 518.86 496.529 530.971 468.162C544.916 435.271 534.641 397.611 524.732 363.252C514.212 326.571 508.218 291.845 523.631 255.775C536.72 225.207 559.596 186.814 531.95 157.224C514.212 138.272 488.156 132.158 468.583 115.896C451.213 100.979 442.038 81.1706 433.108 62.2184Z" fill="#FFF3DB"/>
<path d="M272.5 534C390.965 534 487 527.06 487 518.5C487 509.94 390.965 503 272.5 503C154.035 503 58 509.94 58 518.5C58 527.06 154.035 534 272.5 534Z" fill="#D8D8D8" fill-opacity="0.5"/>
<path d="M247.887 134.7C247.887 134.7 241.787 126.8 238.787 126.8C235.787 126.8 232.987 133 230.887 132.7C228.787 132.4 226.487 125.2 221.087 126.9C215.687 128.6 214.387 136.9 210.787 136.6C207.187 136.3 189.987 105.8 189.987 105.8L177.587 113C177.587 113 196.187 142.7 194.587 145.9C192.987 149.1 185.187 145.8 180.887 149.5C176.587 153.2 181.487 158.9 180.687 160.9C179.887 162.8 174.487 161.8 172.987 164.4C171.487 167 173.487 176.4 173.487 176.4L208.387 149.7L247.887 134.7Z" fill="#D2D2D2" stroke="#212121" stroke-width="2" stroke-miterlimit="10"/>
<path d="M166.187 98.3999L162.887 113.2L166.787 120.6L176.487 115.5C176.487 115.4 171.587 109.4 166.187 98.3999Z" fill="#E96B73" stroke="#212121" stroke-width="2" stroke-miterlimit="10"/>
<path d="M182.987 89.5L196.987 95.2L200.887 102.6L191.187 107.7C191.187 107.6 189.087 100.2 182.987 89.5Z" fill="#E96B73" stroke="#212121" stroke-width="2" stroke-miterlimit="10"/>
<path d="M163.287 72.6001C163.287 72.6001 155.387 95.5001 176.587 115.4L192.187 107.2C192.087 107.2 188.287 80.6001 163.287 72.6001Z" fill="white" stroke="#212121" stroke-width="2" stroke-miterlimit="10"/>
<path d="M171.188 109.6C172.688 111.5 174.487 113.5 176.487 115.4L192.087 107.2C192.087 107.2 191.687 104.1 190.087 99.7002L171.188 109.6Z" fill="#E96B73" stroke="#212121" stroke-width="2" stroke-miterlimit="10"/>
<path d="M178.633 91.6996C179.578 88.4661 177.724 85.0783 174.49 84.1326C171.257 83.1869 167.869 85.0416 166.923 88.2751C165.978 91.5086 167.832 94.8965 171.066 95.8422C174.299 96.7878 177.687 94.9332 178.633 91.6996Z" fill="#E96B73" stroke="#212121" stroke-width="2" stroke-miterlimit="10"/>
<path d="M176.187 88.2003C175.187 86.3003 172.887 85.6003 170.987 86.6003C169.087 87.6003 168.387 89.9003 169.387 91.8003C170.387 93.7003 172.687 94.4003 174.587 93.4003C176.487 92.4003 177.187 90.1003 176.187 88.2003Z" fill="#E96B73" stroke="#212121" stroke-width="2" stroke-miterlimit="10"/>
<path d="M468.387 258.2L460.287 263.8V273.8L452.387 267.8L442.887 270.9L446.187 261.5L440.287 253.5L450.287 253.7L456.087 245.6L458.887 255.1L468.387 258.2Z" fill="#FADF4F" stroke="#212121" stroke-width="2" stroke-miterlimit="10"/>
<path d="M86.787 298L84.787 304.9L89.287 310.3L82.287 310.6L78.387 316.5L75.987 309.9L69.187 308.1L74.787 303.7L74.287 296.7L80.187 300.6L86.787 298Z" fill="#FADF4F" stroke="#212121" stroke-width="2" stroke-miterlimit="10"/>
<path d="M201.587 386.1L199.587 392.9L204.087 398.4L197.087 398.6L193.187 404.6L190.787 397.9L183.987 396.1L189.587 391.8L189.087 384.7L194.987 388.7L201.587 386.1Z" fill="#FADF4F" stroke="#212121" stroke-width="2" stroke-miterlimit="10"/>
<path d="M366.687 386.1L364.787 392.9L369.287 398.4L362.187 398.6L358.287 404.6L355.887 397.9L349.087 396.1L354.687 391.8L354.187 384.7L360.087 388.7L366.687 386.1Z" fill="#FADF4F" stroke="#212121" stroke-width="2" stroke-miterlimit="10"/>
<path d="M121.387 174.4L119.987 179.2L123.187 183L118.187 183.2L115.587 187.4L113.887 182.7L109.087 181.4L112.987 178.4L112.687 173.4L116.787 176.2L121.387 174.4Z" fill="#FADF4F" stroke="#212121" stroke-width="2" stroke-miterlimit="10"/>
<path d="M212.787 76.7L208.487 79.2L208.187 84.2L204.487 80.9L199.587 82.1L201.587 77.5L198.987 73.3L203.987 73.8L207.187 70L208.187 74.9L212.787 76.7Z" fill="#FADF4F" stroke="#212121" stroke-width="2" stroke-miterlimit="10"/>
<path d="M477.487 273.5L476.087 278.3L479.187 282.2L474.287 282.3L471.587 286.5L469.887 281.8L465.087 280.6L468.987 277.5L468.687 272.6L472.787 275.4L477.487 273.5Z" fill="#FADF4F" stroke="#212121" stroke-width="2" stroke-miterlimit="10"/>
<path d="M319.787 97.6998L317.787 104.5L322.287 110L315.287 110.2L311.387 116.2L308.987 109.6L302.187 107.8L307.687 103.4L307.287 96.2998L313.187 100.3L319.787 97.6998Z" fill="#FADF4F" stroke="#212121" stroke-width="2" stroke-miterlimit="10"/>
<path d="M277.687 391.5C351.252 391.5 410.887 331.864 410.887 258.3C410.887 184.735 351.252 125.1 277.687 125.1C204.123 125.1 144.487 184.735 144.487 258.3C144.487 331.864 204.123 391.5 277.687 391.5Z" fill="#74CBED" stroke="#212121" stroke-width="2" stroke-miterlimit="10"/>
<path d="M250.987 381.5C258.087 383 265.287 383.999 272.687 384.299" stroke="#212121" stroke-width="2" stroke-miterlimit="10"/>
<path d="M234.587 376.799C238.187 378.099 241.887 379.299 245.587 380.299" stroke="#212121" stroke-width="2" stroke-miterlimit="10"/>
<path d="M156.387 223.799C150.787 243.299 149.887 264.399 154.587 285.599C163.887 327.499 193.087 359.899 229.987 374.999" stroke="#212121" stroke-width="2" stroke-miterlimit="10"/>
<path d="M173.387 187.5C168.887 194.2 164.887 201.3 161.787 208.8" stroke="#212121" stroke-width="2" stroke-miterlimit="10"/>
<path d="M259.687 199.1L273.187 201.9L277.887 206.7L283.887 207.7L285.787 213.4L284.387 217.3L280.287 219.1L270.187 217.5L269.887 216.3L274.687 212.9L271.387 206.9L262.387 205.6L257.587 201.5L259.687 199.1Z" fill="#A8EC6C" stroke="#212121" stroke-width="2" stroke-miterlimit="10"/>
<path d="M369.088 324.4L358.287 322.6L345.287 321L335.687 323.1L326.287 323.2L316.887 327.6L311.387 329.1L307.988 329.9L302.287 335L296.688 338.8L287.188 335.4L287.387 326.3L281.688 325.3L275.488 326.7L273.988 324.1L273.387 318.4L270.587 315.8L266.387 317.4L265.887 320.8L260.688 322.3L254.787 317.8L251.287 310.8L253.988 301.1L263.087 299.7L265.988 301.3L269.688 300.5L273.688 296.7L277.988 297L285.688 305.3L287.787 304.5L285.587 297.5L282.887 294.2L282.188 288.2L292.488 280.7L291.488 268.9L295.488 263.8L297.887 255.8L300.787 254.5L306.887 248.3L306.688 245.8L301.787 247.2L300.287 244.9L296.887 245.7L291.887 248.1L293.488 243.5L303.587 238L305.488 234.7L311.287 240.5L314.687 242.7L318.687 240.5L315.988 236.9L308.488 233.7L299.188 227L290.287 223.5L282.587 223.9L278.087 221L272.887 220.9L272.587 222.3L273.988 231.4L275.887 234.2L275.287 244.7L267.988 241.1V236.6L260.787 235L257.287 232.2L257.087 224.1L264.587 215.6L263.587 208.1L260.287 209.2L257.488 206.9L255.488 202.5L253.287 202.7L253.188 207.9L249.887 209.3L245.988 198.8L243.188 197.8L238.488 196.9L234.087 200.5L241.587 205L243.988 210L230.988 204.1L221.387 197.5L218.887 189.3L210.287 188.6L204.988 194C204.988 194 202.287 196.5 200.887 197.5C199.487 198.5 193.787 200.4 193.787 200.4L193.688 205.9L186.688 207.8L188.087 211.1L199.887 210.4L207.188 215.6L209.587 226.4L208.287 236.7L211.188 246.7L205.887 263.7L209.087 286.6L214.787 298.9L220.988 307.9L225.787 307.5L223.188 302.9L219.887 299.7L216.787 293.3L219.387 292.1L226.188 302.2L231.488 311.4L233.287 319.4L240.688 325.2L252.887 330.6L269.887 331.4L275.887 334.9L280.688 339L286.988 341.2L294.188 341.5L300.887 339.7C300.887 339.7 301.287 342.9 301.587 344.4C301.887 345.9 298.787 352.1 298.787 352.1L296.787 359L300.787 365.2L308.188 366.5L319.988 374.3L324.687 375.2L325.687 379.8L326.687 381.8C350.387 372.4 370.187 356.6 384.687 337L384.387 334.7L389.387 317.7L384.787 315.8L369.088 324.4Z" fill="#A8EC6C" stroke="#212121" stroke-width="2" stroke-miterlimit="10"/>
<path d="M374.087 195.4L369.387 190.3L363.587 184.5L360.287 175.5L366.087 175.2L365.687 172L361.587 172.6L364.687 170.3L367.887 167.3L367.187 164.2L362.387 160.1L360.087 153.6C329.787 129.8 289.387 119.2 248.787 128.3C230.287 132.4 213.687 140.1 199.287 150.6L207.487 154.1L204.387 160.6L198.787 163.1L199.987 171.6L197.687 173.1L195.387 177.2L196.887 182.7L202.287 182.2L201.287 187.9L206.487 186.7L212.887 173.3L212.687 168.2L221.187 165.7L222.487 161.5L231.187 158.6L230.987 153.1L237.387 151.4C237.387 151.4 241.487 147.9 242.387 147.7C243.287 147.5 247.987 148.1 247.987 148.1L253.487 150.8L259.987 149.4L264.787 144.8L271.987 143.8C271.987 143.8 274.087 144.6 275.687 144.3C277.187 144 281.387 140.8 281.387 140.8L291.587 144.4L295.887 146.4L296.887 151L301.687 150.6L302.587 147.5L306.987 148.5L307.187 151L298.487 155.5L305.287 161.1L317.787 164.8L323.787 169.9L330.687 169L331.587 165.6L333.887 164.4L324.487 160L319.387 160.5L323.087 158.4L318.187 154L323.387 152.5L330.987 154.7L334.187 161.8L338.487 165.1L343.287 173.4L351.187 176.8L353.487 187L361.587 190.1L361.987 193.6V197.8L365.087 202.9L366.287 205.5L371.787 205.3L373.087 199.5L374.087 195.4Z" fill="#A8EC6C" stroke="#212121" stroke-width="2" stroke-miterlimit="10"/>
<path d="M371.188 163.4L371.588 165.2L371.188 170.5L373.088 174.6L376.788 175.1L378.088 181L374.088 180.3L376.888 197.2L374.688 204.8L379.088 212.9L383.888 215.7L387.588 232.4L394.488 244.5L400.988 253.4L408.488 253.7L409.588 247L410.388 246C409.888 240.6 408.988 235.1 407.788 229.6C401.888 203.4 388.888 180.8 371.188 163.4Z" fill="#A8EC6C" stroke="#212121" stroke-width="2" stroke-miterlimit="10"/>
<path d="M299.487 177.3L277.087 172.9L268.287 175.2L267.387 181.5L262.787 178.3L256.387 181.4L257.987 191.7L264.487 194.5L267.187 187.7L272.787 191.3L284.187 197.6L288.087 206.1L298.387 214.5L310.787 209.5L309.487 204.9L305.587 200.3L302.187 188.1L304.087 182.1L299.487 177.3Z" fill="#A8EC6C" stroke="#212121" stroke-width="2" stroke-miterlimit="10"/>
<path d="M317.687 180.4L312.787 180.2L309.487 184.5L313.687 193L317.687 192.1V180.4Z" fill="#A8EC6C" stroke="#212121" stroke-width="2" stroke-miterlimit="10"/>
<path d="M347.688 179.9L335.888 176.7L332.988 173.5L330.688 174.9L334.188 180.6L337.888 188.2L342.888 189.1L343.588 187.6L339.688 183.6L348.488 184.9L347.688 179.9Z" fill="#A8EC6C" stroke="#212121" stroke-width="2" stroke-miterlimit="10"/>
<path d="M282.287 311.3L281.287 312.8L291.187 313.5L295.887 317L301.887 316.3L303.287 312.5L295.887 312.8L282.287 311.3Z" fill="#A8EC6C" stroke="#212121" stroke-width="2" stroke-miterlimit="10"/>
<path d="M311.087 311.1L304.987 314.4L306.487 316.6L314.487 314.8L315.487 312L312.787 313L311.087 311.1Z" fill="#A8EC6C" stroke="#212121" stroke-width="2" stroke-miterlimit="10"/>
<path d="M437.187 127.7L379.687 112.4L393.487 130.2L437.187 127.7Z" fill="#FAC04F" stroke="#212121" stroke-width="2" stroke-miterlimit="10" stroke-linecap="round" stroke-linejoin="round"/>
<path d="M393.487 130.2L393.087 142.1L437.187 127.7L393.487 130.2Z" fill="#FAC04F" stroke="#212121" stroke-width="2" stroke-miterlimit="10" stroke-linecap="round" stroke-linejoin="round"/>
<path d="M398.687 136.1L393.087 142.1L437.187 127.7L398.687 136.1Z" fill="#FAC04F" stroke="#212121" stroke-width="2" stroke-miterlimit="10" stroke-linecap="round" stroke-linejoin="round"/>
<path d="M437.187 127.7L398.687 136.1L408.687 153.6L437.187 127.7Z" fill="#FAC04F" stroke="#212121" stroke-width="2" stroke-miterlimit="10" stroke-linecap="round" stroke-linejoin="round"/>
<path d="M383.987 139.4C383.987 139.4 383.487 139.5 382.487 139.6" stroke="#212121" stroke-width="2" stroke-linecap="round" stroke-linejoin="round"/>
<path d="M379.587 140C346.787 144.7 141.687 175.7 98.8872 226.2C60.7872 271 124.087 283.6 138.887 285.9" stroke="#212121" stroke-width="2" stroke-linecap="round" stroke-linejoin="round" stroke-dasharray="2.99 2.99"/>
<path d="M140.287 286.1C141.287 286.2 141.787 286.3 141.787 286.3" stroke="#212121" stroke-width="2" stroke-linecap="round" stroke-linejoin="round"/>
<path d="M83.1872 469.1L76.5872 474.5C76.5872 474.5 69.9872 476.9 67.2872 478.9C64.5872 480.9 66.7872 484.8 67.9872 486.2C69.1872 487.6 72.5872 489.4 74.7872 492.5C76.9872 495.7 80.1872 500.3 84.0872 501.5C87.9872 502.7 89.4872 502 89.4872 499.3C89.4872 496.6 85.3872 491 84.8872 488.6C84.3872 486.2 83.8872 481 83.8872 481L88.4872 475.1L83.1872 469.1Z" fill="#FDF0E5" stroke="#212121" stroke-width="2" stroke-miterlimit="10" stroke-linecap="round" stroke-linejoin="round"/>
<path d="M83.8872 481L81.1872 481.2L79.4872 481.9L75.3872 474.9C73.3872 475.7 69.2872 477.4 67.2872 478.8C64.5872 480.8 66.7872 484.7 67.9872 486.1C69.1872 487.6 72.5872 489.3 74.7872 492.4C76.9872 495.6 80.1872 500.2 84.0872 501.4C87.9872 502.6 89.4872 501.9 89.4872 499.2C89.4872 496.5 85.3872 490.9 84.8872 488.5C84.3872 486.1 83.8872 481 83.8872 481Z" fill="#263238" stroke="#212121" stroke-width="2" stroke-miterlimit="10" stroke-linecap="round" stroke-linejoin="round"/>
<path d="M104.187 422.3L103.187 449.6L81.187 470.1L89.487 481.6L120.487 458.7L127.287 443.1L108.287 423.1C108.287 423 104.187 420.8 104.187 422.3Z" fill="#263238" stroke="#212121" stroke-width="2" stroke-miterlimit="10" stroke-linecap="round" stroke-linejoin="round"/>
<path d="M124.887 485.4L121.987 499.8C121.987 499.8 118.087 509.6 119.287 511.5C120.487 513.5 132.987 514.9 136.587 515.4C140.287 515.9 146.787 515.9 148.987 514.4C151.187 512.9 150.187 511.2 148.787 510.5C147.287 509.8 138.287 503.4 137.087 502.7C135.887 502 133.887 499 133.887 499L137.087 489.2L124.887 485.4Z" fill="#FDF0E5" stroke="#212121" stroke-width="2" stroke-miterlimit="10" stroke-linecap="round" stroke-linejoin="round"/>
<path d="M148.987 514.5C151.187 513 150.187 511.3 148.787 510.6C147.287 509.9 138.287 503.5 137.087 502.8C135.887 502.1 133.887 499.1 133.887 499.1C133.887 499.1 130.987 500.3 130.987 501.3C130.987 502.3 130.987 503 130.987 503L121.687 500.4C120.887 502.6 118.187 509.8 119.287 511.5C120.487 513.5 132.987 514.9 136.587 515.4C140.287 515.9 146.787 515.9 148.987 514.5Z" fill="#263238" stroke="#212121" stroke-width="2" stroke-miterlimit="10" stroke-linecap="round" stroke-linejoin="round"/>
<path d="M104.187 423.7L129.587 452L121.287 486.4L139.087 491.3C139.087 491.3 150.087 452 150.787 449.6C151.487 447.2 138.587 424 138.587 424C138.587 424 134.487 420.1 126.887 418.9C119.287 417.6 104.187 423.7 104.187 423.7Z" fill="#263238" stroke="#212121" stroke-width="2" stroke-miterlimit="10" stroke-linecap="round" stroke-linejoin="round"/>
<path d="M159.987 320.5L167.487 315.3C167.487 315.3 168.487 307 168.587 306.3C168.687 305.6 172.487 300.8 173.287 300.4C174.087 300.1 176.487 299.1 176.987 298.7C177.487 298.2 178.687 298.4 178.587 299.2C178.487 300 177.687 301.8 177.687 301.8C177.687 301.8 180.487 298.4 180.587 300.8C180.687 303.2 177.987 305.6 177.587 307.1C177.287 308.6 176.287 313.2 176.287 313.2C176.287 313.2 180.387 308.9 180.987 308C181.587 307.1 182.787 308.1 182.387 309.5C181.887 310.9 180.187 313.3 179.487 315.5C178.787 317.7 174.987 319.9 173.787 320.2C172.587 320.5 170.987 321 170.987 321L161.787 331.3L156.887 321.9L159.987 320.5Z" fill="#FDF0E5" stroke="#212121" stroke-width="2" stroke-miterlimit="10" stroke-linecap="round" stroke-linejoin="round"/>
<path d="M177.687 301.8C177.687 301.8 175.587 304.7 175.587 305.2C175.587 305.8 174.187 309.1 174.187 309.1" stroke="#212121" stroke-width="2" stroke-miterlimit="10" stroke-linecap="round" stroke-linejoin="round"/>
<path d="M176.087 299.4C176.087 299.4 173.487 303.5 172.787 304.7C172.087 305.9 171.887 308.7 171.887 308.7" stroke="#212121" stroke-width="2" stroke-miterlimit="10" stroke-linecap="round" stroke-linejoin="round"/>
<path d="M171.687 302.2C171.687 302.2 170.087 305.4 170.087 305.8C170.087 306.2 169.887 308.1 169.887 308.1" stroke="#212121" stroke-width="2" stroke-miterlimit="10" stroke-linecap="round" stroke-linejoin="round"/>
<path d="M160.687 321C160.687 321 162.187 323 162.387 326.3C162.587 329.6 164.387 333.1 164.887 333.3C165.387 333.5 168.487 333.3 167.987 335.8C167.487 338.3 165.987 340.3 165.987 340.3C165.987 340.3 165.287 350.4 164.487 352.1C163.687 353.8 152.587 352.8 152.587 352.8C152.587 352.8 148.087 361.4 148.087 361.9C148.087 362.4 133.687 355.1 133.687 355.1L134.187 349.6C134.187 349.6 130.887 347.4 127.587 343.6C124.287 339.8 123.287 336.5 123.287 336.5C123.287 336.5 122.987 330.5 125.587 324.6C128.187 318.6 137.987 314.7 147.787 314C157.587 313.2 160.687 321 160.687 321Z" fill="#FDF0E5" stroke="#212121" stroke-width="2" stroke-miterlimit="10" stroke-linecap="round" stroke-linejoin="round"/>
<path d="M148.287 332.3C148.487 330.8 147.287 326.8 147.287 326.8L143.987 318.7C143.987 318.7 133.387 323.2 124.587 327.1C122.987 332.1 123.287 336.4 123.287 336.4C123.287 336.4 124.287 339.7 127.587 343.5C130.887 347.3 134.187 349.5 134.187 349.5C134.987 349 138.687 348.5 138.687 348.5C138.687 348.5 132.087 343.4 134.887 340.6C137.687 337.8 141.487 340.6 141.887 341.1C142.187 341.6 144.687 341.8 144.687 340.8C144.687 339.8 143.687 336.7 143.687 336.7C143.687 336.7 148.187 333.8 148.287 332.3Z" fill="#263238" stroke="#212121" stroke-width="2" stroke-miterlimit="10" stroke-linecap="round" stroke-linejoin="round"/>
<path d="M147.987 328.5L157.287 324.5L156.487 318L159.787 323L164.587 320C164.587 320 162.887 313 152.487 309.9C142.087 306.8 133.587 307.6 124.987 316.4C116.387 325.2 123.487 342.6 123.487 342.6L134.887 336.5V330.4L137.487 334.2L147.987 328.5Z" fill="#263238" stroke="#212121" stroke-width="2" stroke-miterlimit="10" stroke-linecap="round" stroke-linejoin="round"/>
<path d="M160.387 331.1C160.687 332.2 160.587 333.1 160.187 333.2C159.787 333.3 159.187 332.5 158.987 331.5C158.787 330.5 158.787 329.5 159.187 329.4C159.487 329.2 160.087 330 160.387 331.1Z" fill="#212121"/>
<path d="M160.387 331.1C160.687 332.2 160.587 333.1 160.187 333.2C159.787 333.3 159.187 332.5 158.987 331.5C158.787 330.5 158.787 329.5 159.187 329.4C159.487 329.2 160.087 330 160.387 331.1Z" stroke="#212121"/>
<path d="M161.287 330.5C161.287 330.5 159.787 328.7 157.987 329.5" stroke="#212121" stroke-width="1.5" stroke-miterlimit="10" stroke-linecap="round" stroke-linejoin="round"/>
<path d="M156.387 328.3C156.387 328.3 157.387 325.8 159.987 325.8" stroke="#212121" stroke-width="1.5" stroke-miterlimit="10" stroke-linecap="round" stroke-linejoin="round"/>
<path d="M164.387 342.9C164.387 342.9 161.387 344.2 159.087 341.4" stroke="#212121" stroke-width="2" stroke-miterlimit="10" stroke-linecap="round" stroke-linejoin="round"/>
<path d="M151.887 364.3L131.387 351.4C131.387 351.4 100.987 407.6 98.8872 414.3C96.7872 421 99.4872 424.2 107.087 425.7C114.687 427.2 123.487 424.5 127.287 423.1C131.087 421.6 139.287 426.3 139.287 426.3C139.287 426.3 140.787 428.1 141.287 426.6C141.887 425.1 142.187 420.2 142.187 417.8C142.187 415.5 152.987 373.6 152.987 369.2C153.087 364.9 151.887 364.3 151.887 364.3Z" fill="#FAC04F" stroke="#212121" stroke-width="2" stroke-miterlimit="10" stroke-linecap="round" stroke-linejoin="round"/>
<path d="M146.887 377.2C146.887 377.2 129.587 382.5 125.887 382.9Z" fill="#FAC04F"/>
<path d="M146.887 377.2C146.887 377.2 129.587 382.5 125.887 382.9" stroke="#212121" stroke-width="2" stroke-miterlimit="10" stroke-linecap="round" stroke-linejoin="round"/>
<path d="M126.287 392.6C124.987 393.4 123.887 394 122.887 394.5Z" fill="#FAC04F"/>
<path d="M126.287 392.6C124.987 393.4 123.887 394 122.887 394.5" stroke="#212121" stroke-width="2" stroke-miterlimit="10" stroke-linecap="round" stroke-linejoin="round"/>
<path d="M146.887 379.9C146.887 379.9 137.387 385.9 129.787 390.5Z" fill="#FAC04F"/>
<path d="M146.887 379.9C146.887 379.9 137.387 385.9 129.787 390.5" stroke="#212121" stroke-width="2" stroke-miterlimit="10" stroke-linecap="round" stroke-linejoin="round"/>
<path d="M133.487 419.3C134.587 419.8 135.687 420.5 136.887 421.2Z" fill="#FAC04F"/>
<path d="M133.487 419.3C134.587 419.8 135.687 420.5 136.887 421.2" stroke="#212121" stroke-width="2" stroke-miterlimit="10" stroke-linecap="round" stroke-linejoin="round"/>
<path d="M118.887 416.5C118.887 416.5 123.587 415.5 130.287 417.9Z" fill="#FAC04F"/>
<path d="M118.887 416.5C118.887 416.5 123.587 415.5 130.287 417.9" stroke="#212121" stroke-width="2" stroke-miterlimit="10" stroke-linecap="round" stroke-linejoin="round"/>
<path d="M129.387 354.9L133.187 348.8C133.187 348.8 136.687 349.1 141.987 352.6C147.287 356.1 151.887 364.3 151.887 364.3L129.387 354.9Z" fill="#FAC04F" stroke="#212121" stroke-width="2" stroke-miterlimit="10" stroke-linecap="round" stroke-linejoin="round"/>
<path d="M168.587 371.9L198.687 355.8V346.4L202.487 339.1C202.487 339.1 203.387 337.3 204.787 338.2L204.087 339.4L205.587 337.6C205.587 337.6 206.787 336.5 207.587 335.7C208.387 334.9 209.087 335.7 209.287 336.2C209.487 336.7 209.487 336.4 209.487 336.4C209.487 336.4 210.387 335.9 211.087 336.2C212.387 336.8 209.787 341.1 209.787 341.1C209.787 341.1 212.987 338.7 212.987 340.2C212.987 341.7 209.187 345.8 209.187 345.8C209.187 345.8 213.187 343.4 213.187 344.8C213.187 346.2 207.787 351 207.787 351C207.787 351 206.787 355.5 205.187 358.2C203.587 361 201.487 361.9 201.487 361.9C201.487 361.9 176.887 382.6 172.687 384.6C168.387 386.7 164.787 385.3 164.787 385.3L167.387 372.3L168.587 371.9Z" fill="#FDF0E5" stroke="#212121" stroke-width="2" stroke-miterlimit="10" stroke-linecap="round" stroke-linejoin="round"/>
<path d="M209.487 336.3C209.487 336.3 206.087 341 205.587 341.6C205.087 342.2 203.587 345.7 203.587 345.7" stroke="#212121" stroke-width="2" stroke-miterlimit="10" stroke-linecap="round" stroke-linejoin="round"/>
<path d="M205.587 337.6C205.587 337.6 202.387 342.3 202.187 343.1C201.987 343.9 201.687 344.9 201.687 344.9" stroke="#212121" stroke-width="2" stroke-miterlimit="10" stroke-linecap="round" stroke-linejoin="round"/>
<path d="M209.787 341C209.787 341 207.487 344 207.187 344.7C206.887 345.4 205.787 346.9 205.787 346.9" stroke="#212121" stroke-width="2" stroke-miterlimit="10" stroke-linecap="round" stroke-linejoin="round"/>
<path d="M209.287 345.7L207.687 347.5" stroke="#212121" stroke-width="2" stroke-miterlimit="10" stroke-linecap="round" stroke-linejoin="round"/>
<path d="M140.487 361.1L170.087 369.6L163.087 394.8C163.087 394.8 139.987 375.8 138.787 374" fill="#FAC04F"/>
<path d="M140.487 361.1L170.087 369.6L163.087 394.8C163.087 394.8 139.987 375.8 138.787 374" stroke="#212121" stroke-width="2" stroke-miterlimit="10" stroke-linecap="round" stroke-linejoin="round"/>
<path d="M152.587 352.6L147.887 351.6L149.887 357.2L152.587 352.6Z" fill="#263238" stroke="#212121" stroke-width="2" stroke-miterlimit="10" stroke-linecap="round" stroke-linejoin="round"/>
<path d="M160.787 126.3C160.787 120.1 155.787 115.2 149.687 115.2C148.587 115.2 147.487 115.4 146.487 115.7C144.287 109.4 138.187 104.8 131.087 104.8C123.987 104.8 117.987 109.3 115.687 115.6C114.687 115.3 113.787 115.2 112.687 115.2C106.487 115.2 101.587 120.2 101.587 126.3C101.587 131.7 105.387 136.1 110.387 137.2L152.287 137.1C157.087 136 160.787 131.6 160.787 126.3Z" fill="white" stroke="#212121" stroke-width="2" stroke-miterlimit="10"/>
<path d="M170.787 131.8C170.787 128.8 168.287 126.3 165.287 126.3C164.687 126.3 164.187 126.4 163.687 126.5C162.587 123.4 159.587 121.1 156.087 121.1C152.587 121.1 149.687 123.3 148.487 126.4C147.987 126.3 147.487 126.2 146.987 126.2C143.987 126.2 141.487 128.7 141.487 131.7C141.487 134.3 143.387 136.5 145.787 137.1H166.387C168.987 136.6 170.787 134.4 170.787 131.8Z" fill="white" stroke="#212121" stroke-width="2" stroke-miterlimit="10"/>
<path d="M465.287 189.9C465.287 183.7 460.287 178.8 454.187 178.8C453.087 178.8 451.987 179 450.987 179.3C448.787 173 442.687 168.4 435.587 168.4C428.487 168.4 422.487 172.9 420.187 179.2C419.187 178.9 418.287 178.8 417.187 178.8C410.987 178.8 406.087 183.8 406.087 189.9C406.087 195.3 409.887 199.7 414.887 200.8L456.787 200.7C461.687 199.5 465.287 195.1 465.287 189.9Z" fill="white" stroke="#212121" stroke-width="2" stroke-miterlimit="10"/>
<path d="M475.287 195.4C475.287 192.4 472.787 189.9 469.787 189.9C469.187 189.9 468.687 190 468.187 190.1C467.087 187 464.087 184.7 460.587 184.7C457.087 184.7 454.187 186.9 452.987 190C452.487 189.9 451.987 189.8 451.487 189.8C448.487 189.8 445.987 192.3 445.987 195.3C445.987 197.9 447.887 200.1 450.287 200.7H470.887C473.487 200.2 475.287 198 475.287 195.4Z" fill="white" stroke="#212121" stroke-width="2" stroke-miterlimit="10"/>
<path d="M145.387 288.1C145.387 281.9 140.387 277 134.287 277C133.187 277 132.087 277.2 131.087 277.5C128.887 271.2 122.787 266.6 115.687 266.6C108.587 266.6 102.587 271.1 100.287 277.4C99.287 277.1 98.387 277 97.287 277C91.087 277 86.187 282 86.187 288.1C86.187 293.5 89.987 297.9 94.987 299L136.887 298.9C141.787 297.7 145.387 293.3 145.387 288.1Z" fill="white" stroke="#212121" stroke-width="2" stroke-miterlimit="10"/>
<path d="M155.387 293.599C155.387 290.599 152.887 288.099 149.887 288.099C149.287 288.099 148.787 288.199 148.287 288.299C147.187 285.199 144.187 282.899 140.687 282.899C137.187 282.899 134.287 285.099 133.087 288.199C132.587 288.099 132.087 287.999 131.587 287.999C128.587 287.999 126.087 290.499 126.087 293.499C126.087 296.099 127.987 298.299 130.387 298.899H150.987C153.587 298.399 155.387 296.199 155.387 293.599Z" fill="white" stroke="#212121" stroke-width="2" stroke-miterlimit="10"/>
<path d="M368.207 276.945C371.934 274.606 377.043 274.47 381.436 277.144C387.931 281.097 390.585 289.466 387.384 295.842C386.856 296.882 370.788 322.075 348.74 333.784C343.191 336.794 336.021 334.21 332.639 328.068C329.31 322.01 331.068 314.651 336.617 311.641C352.555 303.175 363.912 281.765 363.944 281.627C364.968 279.685 366.428 278.061 368.207 276.945Z" fill="#FFD88D" stroke="#212121" stroke-width="1.7" stroke-miterlimit="10" stroke-linecap="round" stroke-linejoin="round"/>
<path d="M373.957 309.816L358.036 297.612C358.036 297.612 350.579 306.423 345.254 310.354C345.254 310.354 356.35 321.454 361.049 323.11C361.017 323.248 371.675 314.081 373.957 309.816Z" fill="#FFD88D" stroke="#212121" stroke-width="1.7" stroke-miterlimit="10" stroke-linecap="round" stroke-linejoin="round"/>
<path d="M381.094 293.532C380.669 292.855 380.858 292.027 381.536 291.602C382.214 291.177 383.041 291.366 383.466 292.044C383.891 292.722 383.702 293.549 383.024 293.974C382.293 294.315 381.466 294.125 381.094 293.532Z" fill="#FFD88D" stroke="#212121" stroke-width="1.7" stroke-miterlimit="10" stroke-linecap="round" stroke-linejoin="round"/>
<path d="M373.975 284.068C373.55 283.391 373.74 282.564 374.417 282.138C375.095 281.713 375.922 281.903 376.347 282.58C376.772 283.258 376.583 284.085 375.905 284.51C375.228 284.935 374.401 284.746 373.975 284.068Z" fill="#FFD88D" stroke="#212121" stroke-width="1.7" stroke-miterlimit="10" stroke-linecap="round" stroke-linejoin="round"/>
<path d="M377.425 298.786C377 298.108 377.189 297.281 377.867 296.856C378.545 296.431 379.372 296.62 379.797 297.298C380.222 297.975 380.033 298.802 379.355 299.227C378.677 299.653 377.85 299.463 377.425 298.786Z" fill="#FFD88D" stroke="#212121" stroke-width="1.7" stroke-miterlimit="10" stroke-linecap="round" stroke-linejoin="round"/>
<path d="M370.089 292.173C369.664 291.496 369.853 290.669 370.531 290.243C371.209 289.818 372.036 290.008 372.461 290.685C372.886 291.363 372.697 292.19 372.019 292.615C371.288 292.956 370.461 292.766 370.089 292.173Z" fill="#FFD88D" stroke="#212121" stroke-width="1.7" stroke-miterlimit="10" stroke-linecap="round" stroke-linejoin="round"/>
<path d="M375.442 292.238C375.017 291.561 375.206 290.734 375.884 290.308C376.562 289.883 377.389 290.072 377.814 290.75C378.239 291.428 378.05 292.255 377.372 292.68C376.726 292.967 375.814 292.831 375.442 292.238Z" fill="#FFD88D" stroke="#212121" stroke-width="1.7" stroke-miterlimit="10" stroke-linecap="round" stroke-linejoin="round"/>
<path d="M367.639 285.447C367.214 284.769 367.403 283.942 368.081 283.517C368.758 283.092 369.586 283.281 370.011 283.959C370.436 284.636 370.247 285.463 369.569 285.889C368.976 286.261 368.064 286.124 367.639 285.447Z" fill="#FFD88D" stroke="#212121" stroke-width="1.7" stroke-miterlimit="10" stroke-linecap="round" stroke-linejoin="round"/>
<path d="M378.865 285.84C378.44 285.163 378.629 284.336 379.307 283.91C379.985 283.485 380.812 283.675 381.237 284.352C381.662 285.03 381.473 285.857 380.795 286.282C380.202 286.654 379.237 286.433 378.865 285.84Z" fill="#FFD88D" stroke="#212121" stroke-width="1.7" stroke-miterlimit="10" stroke-linecap="round" stroke-linejoin="round"/>
<path d="M372.791 303.818C372.366 303.141 372.556 302.314 373.233 301.888C373.911 301.463 374.738 301.653 375.163 302.33C375.588 303.008 375.399 303.835 374.721 304.26C373.991 304.601 373.163 304.411 372.791 303.818Z" fill="#FFD88D" stroke="#212121" stroke-width="1.7" stroke-miterlimit="10" stroke-linecap="round" stroke-linejoin="round"/>
<path d="M352.764 325.711C352.339 325.033 352.528 324.206 353.206 323.781C353.883 323.355 354.711 323.545 355.136 324.222C355.561 324.9 355.372 325.727 354.694 326.152C354.016 326.578 353.189 326.388 352.764 325.711Z" fill="#FFD88D" stroke="#212121" stroke-width="1.7" stroke-miterlimit="10" stroke-linecap="round" stroke-linejoin="round"/>
<path d="M345.891 317.391C345.466 316.714 345.656 315.886 346.333 315.461C347.011 315.036 347.838 315.225 348.263 315.903C348.688 316.581 348.499 317.408 347.821 317.833C347.091 318.173 346.264 317.984 345.891 317.391Z" fill="#FFD88D" stroke="#212121" stroke-width="1.7" stroke-miterlimit="10" stroke-linecap="round" stroke-linejoin="round"/>
<path d="M340.673 321.492C340.247 320.815 340.437 319.987 341.114 319.562C341.792 319.137 342.619 319.326 343.044 320.004C343.47 320.682 343.28 321.509 342.603 321.934C341.872 322.275 341.045 322.085 340.673 321.492Z" fill="#FFD88D" stroke="#212121" stroke-width="1.7" stroke-miterlimit="10" stroke-linecap="round" stroke-linejoin="round"/>
<path d="M336.333 324.923C335.908 324.246 336.097 323.419 336.775 322.993C337.452 322.568 338.279 322.758 338.705 323.435C339.13 324.113 338.94 324.94 338.263 325.365C337.585 325.79 336.758 325.601 336.333 324.923Z" fill="#FFD88D" stroke="#212121" stroke-width="1.7" stroke-miterlimit="10" stroke-linecap="round" stroke-linejoin="round"/>
<path d="M347.185 329.801C346.76 329.124 346.95 328.297 347.627 327.871C348.305 327.446 349.132 327.635 349.557 328.313C349.982 328.991 349.793 329.818 349.115 330.243C348.522 330.615 347.611 330.479 347.185 329.801Z" fill="#FFD88D" stroke="#212121" stroke-width="1.7" stroke-miterlimit="10" stroke-linecap="round" stroke-linejoin="round"/>
<path d="M346.994 323.665C346.569 322.987 346.758 322.16 347.436 321.735C348.113 321.309 348.941 321.499 349.366 322.176C349.791 322.854 349.602 323.681 348.924 324.106C348.246 324.532 347.419 324.342 346.994 323.665Z" fill="#FFD88D" stroke="#212121" stroke-width="1.7" stroke-miterlimit="10" stroke-linecap="round" stroke-linejoin="round"/>
<path d="M341.161 315.873C340.736 315.195 340.925 314.368 341.603 313.943C342.28 313.518 343.108 313.707 343.533 314.385C343.958 315.063 343.769 315.89 343.091 316.315C342.413 316.74 341.586 316.551 341.161 315.873Z" fill="#FFD88D" stroke="#212121" stroke-width="1.7" stroke-miterlimit="10" stroke-linecap="round" stroke-linejoin="round"/>
<path d="M341.234 327.279C340.809 326.601 340.998 325.774 341.676 325.349C342.354 324.924 343.181 325.113 343.606 325.791C344.031 326.468 343.842 327.295 343.164 327.721C342.487 328.146 341.659 327.957 341.234 327.279Z" fill="#FFD88D" stroke="#212121" stroke-width="1.7" stroke-miterlimit="10" stroke-linecap="round" stroke-linejoin="round"/>
<path d="M335.168 319.869C334.743 319.192 334.932 318.364 335.61 317.939C336.288 317.514 337.115 317.703 337.54 318.381C337.965 319.059 337.776 319.886 337.098 320.311C336.421 320.736 335.594 320.547 335.168 319.869Z" fill="#FFD88D" stroke="#212121" stroke-width="1.7" stroke-miterlimit="10" stroke-linecap="round" stroke-linejoin="round"/>
<path d="M342.091 332.407C341.666 331.73 341.855 330.902 342.533 330.477C343.211 330.052 344.038 330.241 344.463 330.919C344.888 331.597 344.699 332.424 344.021 332.849C343.343 333.274 342.516 333.085 342.091 332.407Z" fill="#FFD88D" stroke="#212121" stroke-width="1.7" stroke-miterlimit="10" stroke-linecap="round" stroke-linejoin="round"/>
<path d="M364.578 298.819C364.153 298.141 364.342 297.314 365.02 296.889C365.697 296.464 366.525 296.653 366.95 297.331C367.375 298.008 367.186 298.835 366.508 299.261C365.83 299.686 364.95 299.412 364.578 298.819Z" fill="#FFD88D" stroke="#212121" stroke-width="1.7" stroke-miterlimit="10" stroke-linecap="round" stroke-linejoin="round"/>
<path d="M370.767 297.769C370.342 297.091 370.531 296.264 371.209 295.839C371.886 295.414 372.714 295.603 373.139 296.281C373.564 296.959 373.375 297.786 372.697 298.211C371.966 298.551 371.139 298.362 370.767 297.769Z" fill="#FFD88D" stroke="#212121" stroke-width="1.7" stroke-miterlimit="10" stroke-linecap="round" stroke-linejoin="round"/>
<path d="M364.324 292.958C363.899 292.28 364.088 291.453 364.766 291.028C365.444 290.602 366.271 290.792 366.696 291.469C367.121 292.147 366.932 292.974 366.254 293.399C365.576 293.825 364.696 293.551 364.324 292.958Z" fill="#FFD88D" stroke="#212121" stroke-width="1.7" stroke-miterlimit="10" stroke-linecap="round" stroke-linejoin="round"/>
<path d="M394.487 340.3L379.987 320.6C379.987 320.6 375.387 318.7 374.987 317.5C374.587 316.3 373.287 312.9 372.287 310.9C372.087 310.5 371.987 310.2 371.987 310C371.887 309.1 373.087 308.6 373.587 309.4C373.987 309.9 374.387 310.6 374.587 310.9C374.987 311.8 375.487 312 375.487 312C375.487 312 376.887 313.4 376.487 312.3C376.087 311.3 374.587 305.1 374.187 303.8C373.787 302.6 374.187 301.9 375.187 301.9C376.187 301.9 377.687 307.3 377.687 307.3C377.387 306.1 377.187 304.8 376.887 303.6C376.687 302.7 376.487 301.8 376.287 300.8C376.087 300 375.687 299.3 375.987 298.5C376.187 297.8 376.887 296.9 377.587 297.8C378.587 299 380.687 305.9 380.687 305.9V300.5C380.687 300.5 381.887 299.1 382.787 300.5C383.587 301.9 383.987 306.9 383.987 306.9C384.187 306.4 384.287 305.8 384.487 305.3C384.587 304.8 384.587 304 384.987 303.6C385.587 302.9 385.987 304.3 386.187 304.8C386.787 306.5 385.987 317.8 385.987 317.8L385.787 319.9L406.487 336L396.787 342.4L394.487 340.3Z" fill="#C48C38" stroke="#212121" stroke-width="2" stroke-miterlimit="10" stroke-linecap="round" stroke-linejoin="round"/>
<path d="M433.287 329.1C433.287 329.1 425.888 316.9 413.088 317.9C400.288 319 396.587 331.5 396.387 334.1C396.087 336.8 393.188 338.2 392.088 338.4C389.388 338.7 389.988 342.7 390.988 344C391.988 345.3 392.088 345.3 392.088 345.3C392.088 345.3 393.388 354.8 394.988 355.7C398.488 357.6 405.387 357.6 405.387 357.6L406.187 361.6L420.287 360.5C420.287 360.5 418.687 359.2 420.287 356.8C421.887 354.4 429.088 352.5 432.488 347C435.888 341.5 434.087 332.8 433.287 329.1Z" fill="#C48C38" stroke="#212121" stroke-width="2" stroke-miterlimit="10" stroke-linecap="round" stroke-linejoin="round"/>
<path d="M433.287 329.1C433.287 329.1 425.887 316.9 413.087 317.9C412.187 318 411.287 318.1 410.487 318.3C412.687 318.6 416.087 319.7 416.787 323.2C417.887 328.5 411.487 332.2 411.687 335.4C411.987 338.6 414.587 342.8 415.387 342.8C416.187 342.8 421.787 345.5 420.687 348.9C419.587 352.4 416.687 352.9 419.087 355.5C419.387 355.9 419.787 356.1 420.287 356.4C422.087 354.1 428.987 352.2 432.387 346.8C435.987 341.3 434.087 332.8 433.287 329.1Z" fill="#263238" stroke="#212121" stroke-width="2" stroke-miterlimit="10" stroke-linecap="round" stroke-linejoin="round"/>
<path d="M427.687 325.9C427.687 325.9 429.787 314.7 432.487 311.3C435.187 307.8 436.987 313.4 436.987 313.4C436.987 313.4 445.487 306 451.087 308.1C456.687 310.2 450.287 314.2 450.287 314.2C450.287 314.2 459.587 312.9 461.987 319.8C464.387 326.7 458.487 328.3 458.487 328.3C458.487 328.3 465.687 335.5 462.487 337.6C459.287 339.7 452.687 339.2 452.687 339.2C452.687 339.2 458.287 341.1 455.387 343.7C452.487 346.4 445.287 341 445.287 341C445.287 341 446.087 346.8 442.087 346.8C438.087 346.8 435.487 339.9 435.487 339.9C435.487 339.9 432.787 344.2 430.687 341.2C428.487 338.4 427.187 327.2 427.687 325.9Z" fill="#263238" stroke="#212121" stroke-width="2" stroke-miterlimit="10" stroke-linecap="round" stroke-linejoin="round"/>
<path d="M426.388 330.9C426.388 330.9 425.888 324.3 432.188 320.3C438.588 316.3 439.088 320 439.088 320C439.088 320 444.888 314.7 449.988 318.7C455.088 322.7 449.988 327.7 449.988 327.7C449.988 327.7 465.188 326.6 463.588 331.2C461.988 335.7 455.388 336.5 455.388 336.5C455.388 336.5 463.588 344.5 459.888 346.9C456.188 349.3 448.988 346.9 448.988 346.9C448.988 346.9 451.888 350.6 446.288 352.2C440.688 353.8 437.788 347.9 437.788 347.9C437.788 347.9 439.688 350.3 432.688 349.8C425.788 349.3 425.488 340.8 425.488 340.8C425.488 340.8 418.888 340 426.388 330.9Z" fill="#263238" stroke="#212121" stroke-width="2" stroke-miterlimit="10" stroke-linecap="round" stroke-linejoin="round"/>
<path d="M413.888 344.2C413.888 344.2 418.688 338.9 420.788 343.4C422.888 347.9 418.088 354.8 413.888 351.6" fill="#C48C38"/>
<path d="M413.888 344.2C413.888 344.2 418.688 338.9 420.788 343.4C422.888 347.9 418.088 354.8 413.888 351.6" stroke="#212121" stroke-width="2" stroke-miterlimit="10" stroke-linecap="round" stroke-linejoin="round"/>
<path d="M400.471 335.979L400.473 335.972L400.474 335.964C400.551 335.504 400.715 335.183 400.861 335.011C400.87 335.001 400.878 334.992 400.886 334.983C400.95 335.201 400.98 335.565 400.901 336.036C400.826 336.484 400.669 336.801 400.525 336.976C400.44 336.725 400.402 336.36 400.471 335.979ZM401.006 334.887C401.006 334.888 401.003 334.889 400.997 334.89C401.003 334.888 401.006 334.887 401.006 334.887ZM400.827 334.839C400.822 334.834 400.819 334.83 400.819 334.83C400.82 334.829 400.822 334.832 400.827 334.839ZM400.369 337.113C400.369 337.112 400.372 337.111 400.378 337.11C400.372 337.113 400.369 337.113 400.369 337.113Z" fill="#263238" stroke="#212121" stroke-width="2"/>
<path d="M400.288 330.1C400.288 330.1 403.788 328 404.588 333.6" stroke="#212121" stroke-width="2" stroke-miterlimit="10" stroke-linecap="round" stroke-linejoin="round"/>
<path d="M394.487 346.1C394.487 346.1 396.587 347.4 400.287 345" stroke="#212121" stroke-width="2" stroke-miterlimit="10" stroke-linecap="round" stroke-linejoin="round"/>
<path d="M419.987 447.9C419.987 447.9 430.787 462.2 432.987 462.2C435.187 462.2 466.287 449.5 466.287 449.5C466.287 449.5 470.087 451.4 471.987 454.3C473.887 457.2 472.287 461.6 476.087 461.6C479.887 461.6 478.587 452.1 477.387 448.6C476.087 445.1 473.587 435.9 471.387 435C469.187 434.1 461.587 440.7 461.587 440.7C461.587 440.7 449.187 444.8 447.287 445.5C445.387 446.1 433.987 448 433.987 448H419.987V447.9Z" fill="#C48C38" stroke="#212121" stroke-width="2" stroke-miterlimit="10" stroke-linecap="round" stroke-linejoin="round"/>
<path d="M471.387 434.9C469.887 434.2 465.787 437.2 463.387 439.1C465.787 441 469.487 443.8 469.487 443.8C469.487 443.8 468.487 444.8 466.587 446C464.687 447.3 466.287 449.5 466.287 449.5C466.287 449.5 470.087 451.4 471.987 454.3C473.887 457.2 472.287 461.6 476.087 461.6C479.887 461.6 478.587 452.1 477.387 448.6C476.187 445 473.587 435.8 471.387 434.9Z" fill="#E96B73" stroke="#212121" stroke-width="2" stroke-miterlimit="10" stroke-linecap="round" stroke-linejoin="round"/>
<path d="M477.187 461.2C479.687 459.5 478.487 451.6 477.387 448.5C476.087 445 473.587 435.8 471.387 434.9C470.787 434.6 469.787 435 468.587 435.5C469.587 437 472.887 441.8 474.687 446.3C476.887 451.7 478.187 456.9 477.287 460.5C477.287 460.7 477.287 461 477.187 461.2Z" fill="#E96B73" stroke="#212121" stroke-width="2" stroke-miterlimit="10" stroke-linecap="round" stroke-linejoin="round"/>
<path d="M395.887 445.3C395.887 445.3 394.887 456.4 396.887 459.6C398.787 462.8 406.087 493.9 406.087 494.8C406.087 495.8 405.487 498.9 405.487 498.9C405.487 498.9 402.987 505.9 398.187 508.4C393.387 510.9 390.587 514.1 393.087 515.4C395.587 516.7 407.387 513.2 410.487 511.9C413.687 510.6 420.687 508.4 420.987 505.6C421.287 502.8 416.187 494.5 416.187 492.9C416.187 491.3 418.087 477.7 417.787 470.4C417.487 463.1 412.987 454.9 412.987 454.9L413.287 447L395.887 445.3Z" fill="#C48C38" stroke="#212121" stroke-width="2" stroke-miterlimit="10" stroke-linecap="round" stroke-linejoin="round"/>
<path d="M420.987 505.6C421.187 503.7 419.087 499.6 417.587 496.4L408.587 500.2C408.587 500.2 408.587 498 406.687 496.7C406.387 496.5 406.087 496.4 405.887 496.4C405.687 497.6 405.387 498.9 405.387 498.9C405.387 498.9 402.887 505.9 398.087 508.4C393.287 510.9 390.487 514.1 392.987 515.4C395.487 516.7 407.287 513.2 410.387 511.9C413.687 510.7 420.587 508.5 420.987 505.6Z" fill="#E96B73" stroke="#212121" stroke-width="2" stroke-miterlimit="10" stroke-linecap="round" stroke-linejoin="round"/>
<path d="M420.987 505.6C421.087 505 420.887 504.2 420.587 503.3C417.087 505.6 411.287 508.8 404.187 511.4C397.887 513.6 394.187 514.2 392.087 514.2C392.087 514.7 392.387 515.1 392.987 515.4C395.487 516.7 407.287 513.2 410.387 511.9C413.687 510.7 420.587 508.5 420.987 505.6Z" fill="#E96B73" stroke="#212121" stroke-width="2" stroke-miterlimit="10" stroke-linecap="round" stroke-linejoin="round"/>
<path d="M397.187 405.6L386.387 448.8C386.387 448.8 393.987 453.6 415.887 452C437.787 450.4 449.487 442.5 449.487 442.5C449.487 442.5 447.587 437.1 446.587 436.2C445.587 435.2 443.387 432.1 443.387 432.1L434.187 402.3L397.187 405.6Z" fill="#E96B73" stroke="#212121" stroke-width="2" stroke-miterlimit="10" stroke-linecap="round" stroke-linejoin="round"/>
<path d="M403.187 410.1L399.687 425" stroke="#212121" stroke-width="2" stroke-miterlimit="10" stroke-linecap="round" stroke-linejoin="round"/>
<path d="M414.887 410.4V420.3" stroke="#212121" stroke-width="2" stroke-miterlimit="10" stroke-linecap="round" stroke-linejoin="round"/>
<path d="M428.887 409.5L433.987 426.6" stroke="#212121" stroke-width="2" stroke-miterlimit="10" stroke-linecap="round" stroke-linejoin="round"/>
<path d="M423.987 362.6C423.987 362.6 419.087 359.3 413.887 359.3C408.687 359.3 401.487 359.1 401.487 359.1C401.487 359.1 383.087 350.8 378.387 347.6C373.787 344.4 361.087 329.4 361.087 329.4C361.087 329.4 362.287 325.2 362.287 323.8C362.287 322.4 362.087 321.1 362.087 319.3C362.087 317.5 362.587 315.6 360.787 315.8C358.987 316 359.687 319.2 359.787 319.6C359.987 320.1 358.787 323 358.787 323C358.787 323 357.787 317.7 357.387 315.5C356.887 313.3 356.587 310.2 355.987 310.2C355.387 310.2 354.387 311 354.587 311.8C354.787 312.6 354.887 320.2 354.887 320.2L353.787 318.9C353.787 318.9 352.387 314.6 351.587 312.2C350.787 309.8 349.387 311.1 349.387 312.5C349.387 313.9 351.587 321.5 351.587 321.5L350.787 322.3C350.787 322.3 347.887 317 347.387 316.2C346.887 315.4 346.087 315.7 346.787 318.1C347.487 320.5 349.387 325 349.387 325C349.387 325 346.187 322.6 345.587 322.1C344.987 321.6 344.287 323.2 345.587 324.2C346.887 325.2 349.387 328.2 350.187 329.3C350.987 330.4 355.487 334.3 355.487 334.3C355.487 334.3 367.387 352.2 370.587 355.6C373.787 359 379.087 364.1 379.087 364.1C379.087 364.1 386.587 369.2 390.187 371.5C393.687 373.7 400.787 378.2 400.787 378.2L401.387 380.9L397.187 405.6C397.187 405.6 396.987 408.8 411.087 409.1C425.187 409.4 432.987 406.1 433.987 403.7C434.987 401.3 429.187 377.6 427.887 370.9C426.587 364.1 423.987 362.6 423.987 362.6Z" fill="#C48C38" stroke="#212121" stroke-width="2" stroke-miterlimit="10" stroke-linecap="round" stroke-linejoin="round"/>
<path d="M423.987 362.6C423.987 362.6 419.087 359.3 413.887 359.3C411.987 359.3 409.787 359.3 407.787 359.2C411.187 360.6 416.387 364.2 415.587 372.4C414.487 383 408.787 389.6 400.987 382.9L397.187 405.5C397.187 405.5 396.987 408.7 411.087 409C425.187 409.3 432.987 406 433.987 403.6C434.987 401.2 429.187 377.5 427.887 370.8C426.587 364.1 423.987 362.6 423.987 362.6Z" fill="#212121" stroke="#212121" stroke-width="2" stroke-miterlimit="10" stroke-linecap="round" stroke-linejoin="round"/>
<path d="M219.334 222.5C219.334 232.165 211.499 240 201.834 240C192.169 240 184.334 232.165 184.334 222.5C184.334 212.835 192.169 205 201.834 205C211.499 205 219.334 212.835 219.334 222.5Z" fill="#212121" stroke="#212121" stroke-width="2"/>
<path d="M195.334 225C198.648 225 201.334 221.866 201.334 218C201.334 214.134 198.648 211 195.334 211C192.021 211 189.334 214.134 189.334 218C189.334 221.866 192.021 225 195.334 225Z" fill="white"/>
<path d="M305.334 222.5C305.334 232.165 297.499 240 287.834 240C278.169 240 270.334 232.165 270.334 222.5C270.334 212.835 278.169 205 287.834 205C297.499 205 305.334 212.835 305.334 222.5Z" fill="#212121" stroke="#212121" stroke-width="2"/>
<path d="M281.834 225C285.424 225 288.334 221.866 288.334 218C288.334 214.134 285.424 211 281.834 211C278.245 211 275.334 214.134 275.334 218C275.334 221.866 278.245 225 281.834 225Z" fill="white"/>
<path d="M245.667 265.977L245.638 265.977L245.609 265.979C243.321 266.142 240.363 265.343 237.259 263.812C234.176 262.291 231.053 260.098 228.46 257.605C225.858 255.104 223.849 252.358 222.912 249.752C221.986 247.174 222.129 244.825 223.657 242.878L223.657 242.878L223.662 242.871C225.185 240.896 227.973 240.453 230.194 241.688L230.199 241.69C235.503 244.603 240.488 246.706 245.459 247.115C250.478 247.529 255.392 246.21 260.526 242.466L260.512 242.447C260.543 242.433 260.575 242.417 260.606 242.401L260.62 242.388L260.627 242.381L260.63 242.378L260.632 242.376L260.633 242.375L260.634 242.375L260.636 242.373L260.649 242.36L260.731 242.28C263.818 239.712 268.606 241.58 269.237 245.667C269.957 250.406 266.569 255.419 261.476 259.391C256.421 263.332 250.088 265.92 245.667 265.977Z" fill="#212121" stroke="#212121" stroke-width="2"/>
</svg>
