<svg width="1354" height="799" viewBox="0 0 1354 799" fill="none" xmlns="http://www.w3.org/2000/svg">
<path d="M1317.86 0H42.7809C27.9069 0 14.604 10.0815 9.15721 25.3775C6.95753 31.5191 -11.5826 87.141 11.3569 141.488C21.4126 165.359 43.6189 197.458 92.0119 215.303C162.611 241.376 221.479 241.724 268.72 242.071C290.402 242.187 309.047 242.303 325.283 244.852C366.029 251.11 462.815 273.474 481.355 345.203L483.869 354.937C495.287 399.435 507.788 452.5 516.5 493C529.736 554.531 539.188 597.995 573.655 643.848C629.655 718.348 689.917 789.951 742.5 792.5C747.947 792.732 753.498 792.848 759.155 792.848C808.49 792.848 947.784 807.867 1021.11 786.777C1037.66 782.026 1048.79 777.275 1064.5 772.755C1164.5 668.5 1215 681.995 1258 741.5C1267.76 755 1286.91 780.751 1300 786.777C1311.1 791.875 1330.5 797 1341.46 772.755C1352.41 748.511 1354 498.164 1354 484.838V39.9782C1354 17.8454 1337.76 0 1317.86 0Z" fill="#FFF3DB"/>
</svg>
