<svg width="1356" height="1091" viewBox="0 0 1356 1091" fill="none" xmlns="http://www.w3.org/2000/svg">
<path d="M1318.86 1H43.7809C28.9069 1 15.604 11.0815 10.1572 26.3775C7.95753 32.5191 -10.5826 88.141 12.3569 142.488C22.4126 166.359 44.6189 198.458 93.0119 216.303C163.611 242.376 222.479 242.724 269.72 243.071C291.402 243.187 310.047 243.303 326.283 245.852C367.029 252.11 463.815 274.474 482.355 346.203L484.869 355.937C510 463 469.608 490.078 459.5 586.652C425.5 911.5 475.757 1001.47 518 1022.5C564 1045.4 589.417 1055.45 642 1058C915.5 1071.26 1144.82 955.5 1162.5 865C1187.5 737 1192.64 725.59 1265.97 704.5C1282.52 699.749 1289.22 620.019 1304.93 615.5C1437.75 576.796 1164.73 523.908 1221.5 554.5C1234.28 561.453 628.907 1051.97 642 1058C653.103 1063.1 1320.5 1133.5 1338.87 1049.5C1345.54 1019 1355 499.164 1355 485.838V40.9782C1355 18.8454 1338.76 1 1318.86 1Z" fill="#FFF3DB"/>
<path d="M642 1058C589.417 1055.45 564 1045.4 518 1022.5C475.757 1001.47 425.5 911.5 459.5 586.652C469.608 490.078 510 463 484.869 355.937L482.355 346.203C463.815 274.474 367.029 252.11 326.283 245.852C310.047 243.303 291.402 243.187 269.72 243.071C222.479 242.724 163.611 242.376 93.0119 216.303C44.6189 198.458 22.4126 166.359 12.3569 142.488C-10.5826 88.141 7.95753 32.5191 10.1572 26.3775C15.604 11.0815 28.9069 1 43.7809 1H1318.86C1338.76 1 1355 18.8454 1355 40.9782V485.838C1355 499.164 1345.54 1019 1338.87 1049.5C1320.5 1133.5 653.103 1063.1 642 1058ZM642 1058C915.5 1071.26 1144.82 955.5 1162.5 865C1187.5 737 1192.64 725.59 1265.97 704.5C1282.52 699.749 1289.22 620.019 1304.93 615.5C1437.75 576.796 1164.73 523.908 1221.5 554.5C1234.28 561.453 628.907 1051.97 642 1058Z" stroke="#FFF3DB" stroke-miterlimit="10"/>
</svg>
