<svg width="1356" height="1139" viewBox="0 0 1356 1139" fill="none" xmlns="http://www.w3.org/2000/svg">
<path d="M1318.86 1H43.7809C28.9069 1 15.604 11.0815 10.1572 26.3775C7.95753 32.5191 -10.5826 88.141 12.3569 142.488C22.4126 166.359 44.6189 198.458 93.0119 216.303C163.611 242.376 222.479 242.724 269.72 243.071C291.402 243.187 310.047 243.303 326.283 245.852C367.029 252.11 463.815 274.474 482.355 346.203L484.869 355.937C496.287 400.435 506.238 438.907 522.264 471.469C541.432 510.404 567.305 536.593 603.547 553.974C635.914 569.386 673.099 584.103 725.682 586.652C731.129 586.884 736.68 587 742.337 587C791.672 587 849.702 577.034 923.025 555.944C939.575 551.193 955.706 546.442 971.418 541.923C1104.24 503.219 1209.19 472.627 1265.97 503.219C1278.74 510.172 1291.84 516.661 1304.93 522.687C1316.03 527.786 1328.81 526.511 1338.87 519.095C1348.92 511.679 1355 499.164 1355 485.838V40.9782C1355 18.8454 1338.76 1 1318.86 1Z" fill="#FFF3DB" stroke="#FFF3DB" stroke-miterlimit="10"/>
<path d="M1006.57 601.283L1006.59 601.279L1006.61 601.273C1067.59 583.734 1125.18 582.993 1178.15 598.781C1226.27 613.201 1268.18 641.17 1299.39 679.703C1361.81 756.772 1372.13 863.051 1325.62 950.311L1325.62 950.324L1325.61 950.336C1317.43 967.992 1298.9 988.862 1278.22 1008.55C1257.55 1028.23 1234.8 1046.69 1218.23 1059.51C1194.2 1078.12 1170.01 1095.12 1149.15 1108.31C1128.28 1121.51 1110.79 1130.88 1100.15 1134.29C1091.48 1137.01 1081.81 1138.5 1071.01 1138.5C1034.51 1138.5 984.258 1122.35 908.753 1086.86L908.752 1086.86C869.347 1068.46 841.031 1041.39 824.39 1006.38C811.722 979.687 805.5 947.754 805.5 908.82C805.5 849.119 822.797 775.45 854.053 701.256C869.43 664.933 904.957 640.464 938.004 624.801C971.034 609.147 1001.49 602.337 1006.57 601.283Z" fill="#FFF3DB" stroke="#FFF3DB"/>
</svg>
