<svg width="200" height="42" viewBox="0 0 200 42" fill="none" xmlns="http://www.w3.org/2000/svg">
<ellipse cx="21.9835" cy="20.9843" rx="21.9835" ry="20.9843" fill="white"/>
<path d="M21.8876 40.8881C33.3113 40.8881 42.5721 31.9584 42.5721 20.9431C42.5721 9.92774 33.3113 0.998047 21.8876 0.998047C10.4639 0.998047 1.20312 9.92774 1.20312 20.9431C1.20312 31.9584 10.4639 40.8881 21.8876 40.8881Z" fill="#212121"/>
<path d="M21.8687 38.9096C32.1666 38.9096 40.5147 30.8657 40.5147 20.9431C40.5147 11.0204 32.1666 2.97656 21.8687 2.97656C11.5708 2.97656 3.22266 11.0204 3.22266 20.9431C3.22266 30.8657 11.5708 38.9096 21.8687 38.9096Z" fill="white"/>
<path d="M40.5352 20.9438C40.5352 23.5618 39.9556 26.04 38.9164 28.2983C37.7173 28.678 35.8987 26.9193 33.0608 26.9393C31.0223 26.9593 29.1038 27.9585 27.8048 29.5173C25.0668 32.7949 27.465 34.4736 26.126 38.4506C24.767 38.7504 23.3481 38.9103 21.8892 38.9103C19.551 38.9103 17.4725 38.5705 15.4141 37.8111C17.8922 34.3137 14.8145 30.3567 19.8507 27.7786C30.2429 23.9815 21.1098 15.268 27.6849 12.69C28.5242 12.1903 29.2837 17.7462 29.5435 18.026C29.5035 18.4656 32.5812 19.1251 32.821 19.265C33.1008 19.265 36.4183 20.1444 36.5782 19.8446C38.5367 18.4057 39.536 16.9068 40.0955 16.9867C40.3753 18.2458 40.5352 19.5848 40.5352 20.9438Z" fill="#74CBED"/>
<path d="M23.713 21.3395L23.2933 22.6585L19.6161 25.7162L16.2986 28.0545L14.9996 36.1884L14.1402 37.2676C10.7228 35.7687 7.94486 33.3505 5.98633 30.2928C4.72727 27.8347 4.00781 25.0367 4.00781 22.079C4.00781 17.2026 5.94636 12.7859 9.10399 9.56836L9.36379 9.60833C9.36379 9.60833 11.0625 10.5876 11.5621 13.7053C12.0618 16.8229 15.0795 16.1434 15.0795 16.1434C15.0795 16.1434 17.3978 16.0635 18.7168 17.982C20.0358 19.9006 23.6131 20.74 23.6131 20.74L23.713 21.3395Z" fill="#FAC04F"/>
<path d="M38.6566 28.7768C36.2784 33.4932 31.8217 37.0705 26.4258 38.3696C26.7256 37.4303 27.1253 35.7915 27.0253 34.0128C26.8655 30.9751 29.0638 28.1772 32.4413 27.7975C35.8187 27.3978 37.1977 29.2364 38.4568 28.8167C38.5367 28.7568 38.5966 28.7568 38.6566 28.7768Z" fill="#A8EC6C"/>
<path d="M29.4702 12.4294L29.1105 16.6263L26.0328 15.7469L24.8137 17.8254L23.7145 21.3227L23.6146 20.7232C23.6146 20.7232 20.0373 19.8838 18.7183 17.9653C17.3992 16.0467 15.061 16.1466 15.061 16.1466C15.061 16.1466 12.0632 16.8261 11.5436 13.7084C11.044 10.5908 9.34529 9.61152 9.34529 9.61152L9.10547 9.59154C12.0033 6.61377 15.9603 4.67523 20.357 4.35547L20.1572 6.05419L22.2156 8.39244L27.032 9.41167L29.4702 12.4294Z" fill="#E96B73"/>
<path d="M35.6851 8.85078C35.3253 8.59098 34.9456 8.33117 34.5059 8.05138C32.0078 6.47257 28.2107 4.6939 23.3543 4.2942C22.8347 4.25423 22.3551 4.59398 22.2751 5.11359C22.1552 5.75311 22.6149 6.35266 25.033 6.81231C29.03 7.55176 31.1085 10.3696 30.7887 13.0077C30.389 16.2252 29.4297 16.4851 29.4297 16.4851L29.8294 17.4443C29.8294 17.5043 29.8494 17.5642 29.8494 17.6242L29.9094 17.6442L30.0693 18.0039L30.7088 18.1438C30.6888 18.0639 30.6688 17.9639 30.6688 17.884L33.6266 18.8033L38.1832 19.4029L39.782 15.9055C38.9826 13.2475 37.5636 10.8493 35.6851 8.85078ZM30.6089 15.7056C30.5689 15.6657 30.5289 15.6257 30.5089 15.6057C30.5289 15.6057 30.5689 15.6457 30.6089 15.7056Z" fill="#A8EC6C"/>
<path opacity="0.2" d="M39.7823 15.9083C39.3627 14.5494 38.8031 13.2503 38.0836 12.0312C38.8231 13.9498 39.2228 16.0282 39.2228 18.1866C39.2228 28.0192 30.869 35.9933 20.5568 35.9933C18.4184 35.9933 16.9395 35.7135 15.0209 35.0939L16.26 27.1799L18.6982 25.7609L19.4576 24.6018C19.1179 24.6018 17.1793 25.5611 16.8995 25.7609C16.26 26.2206 15.0609 27.02 14.4014 28.7787C13.7219 30.6173 14.0616 33.635 14.0616 33.635C14.0616 33.635 14.0616 33.7749 14.0616 33.9748C14.0616 34.5943 13.562 34.7342 13.1423 34.5743C9.44511 33.0755 6.80709 30.8971 4.80859 27.5396C6.98696 34.6543 13.7419 38.9311 21.8558 38.9311C23.4146 38.9311 24.9335 38.7512 26.3924 38.3915C31.7883 37.0924 36.245 33.5351 38.6232 28.7987C39.8223 26.4205 40.4818 23.7624 40.4818 20.9446C40.5218 19.1859 40.262 17.5071 39.7823 15.9083Z" fill="#212121"/>
<path opacity="0.2" d="M39.7703 15.9064L38.1715 19.4038L33.6149 18.8042L29.5979 17.3053C29.3781 16.0663 30.2375 15.147 30.6172 15.7065C31.1967 16.5459 34.3943 18.4645 36.3129 15.7065C37.8917 13.4282 35.4136 9.39128 34.4943 8.07227C34.914 8.35206 35.3137 8.61186 35.6734 8.87167C37.552 10.8502 38.9709 13.2484 39.7703 15.9064Z" fill="#212121"/>
<path d="M14.4382 17.3042C16.0718 17.3042 17.396 15.98 17.396 14.3465C17.396 12.7129 16.0718 11.3887 14.4382 11.3887C12.8047 11.3887 11.4805 12.7129 11.4805 14.3465C11.4805 15.98 12.8047 17.3042 14.4382 17.3042Z" fill="#212121"/>
<path d="M13.2922 14.5696C13.8441 14.5696 14.2915 14.0954 14.2915 13.5104C14.2915 12.9254 13.8441 12.4512 13.2922 12.4512C12.7403 12.4512 12.293 12.9254 12.293 13.5104C12.293 14.0954 12.7403 14.5696 13.2922 14.5696Z" fill="white"/>
<path d="M28.1414 17.3042C29.7749 17.3042 31.0992 15.98 31.0992 14.3465C31.0992 12.7129 29.7749 11.3887 28.1414 11.3887C26.5078 11.3887 25.1836 12.7129 25.1836 14.3465C25.1836 15.98 26.5078 17.3042 28.1414 17.3042Z" fill="#212121"/>
<path d="M27.0032 14.5696C27.555 14.5696 28.0024 14.0954 28.0024 13.5104C28.0024 12.9254 27.555 12.4512 27.0032 12.4512C26.4513 12.4512 26.0039 12.9254 26.0039 13.5104C26.0039 14.0954 26.4513 14.5696 27.0032 14.5696Z" fill="white"/>
<path fill-rule="evenodd" clip-rule="evenodd" d="M19.7958 1.66995C19.796 1.66952 19.7961 1.66911 20.7085 2.07675C21.6208 2.48438 21.6209 2.48401 21.6211 2.48367L21.6214 2.48309L21.6217 2.48229L21.6194 2.48771C21.6167 2.49394 21.6119 2.50514 21.6054 2.52101C21.5923 2.55279 21.5722 2.60301 21.5475 2.66912C21.498 2.8018 21.4312 2.99581 21.3663 3.23105C21.2337 3.71118 21.1218 4.31704 21.1518 4.90625C21.1816 5.49012 21.3453 5.98804 21.6933 6.36237C22.0363 6.73138 22.6762 7.10703 23.9144 7.21679C27.0567 7.49537 28.7073 8.95816 29.5112 10.4811C29.8973 11.2125 30.068 11.9186 30.1435 12.4387C30.1815 12.7003 30.1961 12.9199 30.201 13.0791C30.2035 13.1588 30.2035 13.2239 30.2028 13.2722C30.2024 13.2963 30.2018 13.3162 30.2012 13.3317C30.201 13.3395 30.2007 13.3461 30.2004 13.3516L30.2001 13.359L30.1999 13.3621L30.1998 13.3635C30.1998 13.3641 30.1997 13.3647 29.2021 13.3083L30.1997 13.3647L30.1978 13.3995L29.8724 15.9645C29.8812 16.0081 29.8933 16.0626 29.9094 16.1244C29.9568 16.3066 30.0305 16.5231 30.1361 16.7136C30.2438 16.908 30.3521 17.017 30.4417 17.0688C30.5035 17.1046 30.6176 17.1524 30.865 17.0937C32.3039 16.7397 33.4348 17.4725 34.1855 17.9828C34.2718 18.0414 34.3532 18.0975 34.431 18.151C34.7332 18.3588 34.9799 18.5285 35.2388 18.6656C35.5448 18.8277 35.7733 18.889 35.974 18.8844L35.977 18.8843L35.9801 18.8843C36.0116 18.8837 36.0433 18.8833 36.0751 18.8828C36.7602 18.8724 37.4898 18.8614 37.9792 18.2637C38.5006 17.6267 39.0398 15.9123 37.8307 11.4724L39.759 10.9473C40.9881 15.4607 40.7179 18.0731 39.5256 19.5296C38.4127 20.8891 36.7496 20.884 36.139 20.8822C36.0915 20.882 36.0504 20.8819 36.0163 20.8824C35.3492 20.897 34.7746 20.6813 34.3033 20.4317C33.9315 20.2347 33.5646 19.9816 33.2553 19.7683C33.188 19.7218 33.1234 19.6773 33.062 19.6356C32.2847 19.1072 31.8382 18.9116 31.3407 19.0347L31.3371 19.0356L31.3335 19.0365C30.6236 19.2066 29.9789 19.1097 29.4414 18.799C28.9314 18.5042 28.6001 18.0649 28.388 17.6822C28.1738 17.2956 28.0477 16.9063 27.9751 16.627C27.9381 16.4842 27.913 16.3625 27.8968 16.2737C27.8887 16.2292 27.8827 16.1924 27.8785 16.165C27.8764 16.1512 27.8748 16.1397 27.8735 16.1307L27.8719 16.1191L27.8714 16.1147L27.871 16.112C27.871 16.1116 27.8709 16.1112 28.8623 15.9863L27.8709 16.1112L27.8551 15.9859L28.2046 13.2311C28.2048 13.2109 28.2047 13.1804 28.2035 13.1406C28.2006 13.0465 28.1915 12.903 28.1657 12.7259C28.1139 12.3685 27.9973 11.8942 27.7438 11.414C27.2687 10.5138 26.2313 9.42853 23.7379 9.20749C22.1581 9.06744 20.9994 8.55125 20.2295 7.72304C19.4646 6.90014 19.2011 5.89544 19.1559 5.00791C19.111 4.12573 19.2764 3.29142 19.4398 2.69923C19.5229 2.39831 19.6088 2.14813 19.675 1.97065C19.7082 1.88168 19.7367 1.81033 19.7577 1.75931C19.7683 1.73378 19.7769 1.71328 19.7834 1.69815C19.7867 1.69058 19.7894 1.68435 19.7915 1.6795L19.7943 1.67326L19.7953 1.67092L19.7958 1.66995Z" fill="#212121"/>
<path fill-rule="evenodd" clip-rule="evenodd" d="M22.3767 19.6826C22.3769 19.6831 22.3771 19.6836 23.3004 19.3012C24.2236 18.9189 24.2238 18.9194 24.224 18.92L24.2245 18.9211L24.2255 18.9237L24.2281 18.93C24.23 18.9347 24.2322 18.9403 24.2349 18.947C24.2401 18.9603 24.2467 18.9775 24.2545 18.9984C24.27 19.0402 24.2901 19.0969 24.3128 19.1671C24.3582 19.3072 24.4146 19.5029 24.4652 19.7415C24.5656 20.2148 24.6484 20.8803 24.5629 21.628C24.3838 23.1954 23.476 24.9701 20.935 26.0558C18.7757 26.9784 17.6449 27.7622 17.0457 28.523C16.4904 29.2281 16.3104 30.019 16.3646 31.2276C16.3842 31.6663 16.4183 32.0611 16.4527 32.4605C16.4693 32.6535 16.4861 32.8476 16.5013 33.0483C16.5462 33.6392 16.5744 34.2534 16.5103 34.8854C16.3762 36.2083 15.8517 37.4796 14.5525 38.933L13.0625 37.601C14.1215 36.4164 14.4363 35.5293 14.522 34.6838C14.5679 34.2317 14.5511 33.7592 14.5086 33.1997C14.4963 33.0379 14.4814 32.8646 14.4657 32.6825C14.4296 32.263 14.3895 31.7969 14.3681 31.317C14.3023 29.8476 14.5121 28.51 15.4756 27.2865C16.3952 26.1189 17.9125 25.1739 20.1498 24.218C22.0055 23.4251 22.4767 22.282 22.5774 21.4011C22.6318 20.9248 22.5797 20.4837 22.5102 20.1563C22.4759 19.9946 22.4386 19.8664 22.4115 19.7828C22.398 19.7411 22.3873 19.711 22.3809 19.6939C22.3777 19.6854 22.3757 19.6801 22.375 19.6783L22.3758 19.6802L22.3764 19.6817L22.3767 19.6826Z" fill="#212121"/>
<path d="M21.4287 21.5224C19.7899 21.6423 16.5923 18.9444 17.7514 17.4255C18.0512 17.0258 18.5908 16.9459 19.0105 17.1857C20.7092 18.145 22.1282 18.5247 23.727 17.3256C23.727 17.3256 23.727 17.3256 23.7469 17.3056C24.3465 16.786 25.2658 17.1657 25.3857 17.9651C25.6455 19.7238 22.9475 21.5024 21.4287 21.5224Z" fill="#212121"/>
<path d="M199.677 32.6836C199.257 32.8328 198.828 32.9447 198.389 33.0194C197.96 33.094 197.513 33.1313 197.047 33.1313C195.787 33.1313 194.785 32.7675 194.039 32.0401C193.302 31.3126 192.934 30.3194 192.934 29.0603C192.934 27.8945 193.274 26.9619 193.955 26.2624C194.645 25.5536 195.573 25.1992 196.739 25.1992C197.774 25.1992 198.576 25.479 199.145 26.0386C199.714 26.5888 199.998 27.3629 199.998 28.3608C199.998 28.622 199.98 28.8831 199.942 29.1443C199.905 29.4054 199.854 29.6432 199.788 29.8577H195.578C195.662 30.2681 195.839 30.5665 196.109 30.7531C196.389 30.9303 196.799 31.0189 197.34 31.0189C197.657 31.0189 197.979 30.9909 198.306 30.9349C198.632 30.879 199.089 30.7577 199.677 30.5712V32.6836ZM197.718 27.9552C197.718 27.6287 197.625 27.3769 197.438 27.1997C197.261 27.0132 197.009 26.9199 196.683 26.9199C196.319 26.9199 196.035 27.0365 195.829 27.2697C195.634 27.5028 195.531 27.8432 195.522 28.2909H197.69C197.699 28.2722 197.704 28.2443 197.704 28.207C197.713 28.1603 197.718 28.0764 197.718 27.9552Z" fill="#212121"/>
<path d="M188.407 32.4579C188.118 32.6817 187.801 32.8543 187.456 32.9755C187.111 33.0874 186.742 33.1434 186.351 33.1434C185.548 33.1434 184.938 32.9196 184.518 32.4719C184.108 32.0242 183.902 31.3667 183.902 30.4994V25.3652H186.7V29.9258C186.7 30.3175 186.747 30.5926 186.84 30.7512C186.933 30.9004 187.106 30.975 187.358 30.975C187.554 30.975 187.754 30.947 187.959 30.8911C188.164 30.8258 188.332 30.7419 188.463 30.6393V25.3652H191.261V32.9755H188.463V32.4999L188.407 32.4579Z" fill="#212121"/>
<path d="M178.826 32.3758C178.639 32.609 178.378 32.7955 178.042 32.9354C177.716 33.066 177.362 33.1313 176.979 33.1313C176.074 33.1313 175.356 32.7815 174.825 32.0821C174.293 31.3826 174.027 30.4593 174.027 29.3121C174.027 28.0531 174.307 27.0552 174.867 26.3184C175.426 25.5723 176.21 25.1992 177.217 25.1992C177.534 25.1992 177.851 25.2412 178.168 25.3251C178.485 25.4091 178.779 25.5303 179.05 25.6889L181.666 25.2132V36.111H178.868V32.4038L178.826 32.3758ZM178.868 27.5495C178.774 27.4842 178.658 27.4375 178.518 27.4096C178.387 27.3723 178.252 27.3536 178.112 27.3536C177.702 27.3536 177.385 27.5215 177.161 27.8572C176.937 28.1836 176.825 28.636 176.825 29.2142C176.825 29.7645 176.928 30.2028 177.133 30.5292C177.348 30.8463 177.651 31.0049 178.042 31.0049C178.229 31.0049 178.392 30.9722 178.532 30.9069C178.672 30.8323 178.784 30.7297 178.868 30.5992V27.5495Z" fill="#212121"/>
<path d="M172.627 22.57C172.627 23.0364 172.464 23.4281 172.137 23.7452C171.82 24.0529 171.429 24.2068 170.962 24.2068C170.477 24.2068 170.072 24.0529 169.745 23.7452C169.428 23.4281 169.27 23.0364 169.27 22.57C169.27 22.1037 169.428 21.7167 169.745 21.4089C170.072 21.1012 170.477 20.9473 170.962 20.9473C171.438 20.9473 171.834 21.1012 172.151 21.4089C172.468 21.7167 172.627 22.1037 172.627 22.57ZM172.347 25.354V32.9782H169.549V25.354H172.347Z" fill="#212121"/>
<path d="M165.47 28.8924V32.9774H162.672V25.3531H165.47V26.2624L165.526 26.3044C165.871 25.9034 166.197 25.6189 166.505 25.451C166.822 25.2832 167.158 25.1992 167.512 25.1992C167.606 25.1992 167.703 25.2039 167.806 25.2132C167.909 25.2225 168.021 25.2412 168.142 25.2692V28.137C167.965 28.109 167.839 28.095 167.764 28.095C167.699 28.0857 167.638 28.0811 167.582 28.0811C167.041 28.0811 166.603 28.1463 166.267 28.2769C165.941 28.3982 165.675 28.6033 165.47 28.8924Z" fill="#212121"/>
<path d="M160.621 21.7435L157.487 24.3735L156.172 23.0865L158.578 20.0508L160.621 21.7435ZM160.677 32.6833C160.257 32.8325 159.828 32.9444 159.389 33.019C158.96 33.0937 158.513 33.131 158.047 33.131C156.787 33.131 155.785 32.7672 155.039 32.0398C154.302 31.3123 153.934 30.3191 153.934 29.06C153.934 27.8942 154.274 26.9616 154.955 26.2621C155.645 25.5533 156.573 25.1989 157.739 25.1989C158.774 25.1989 159.576 25.4787 160.145 26.0383C160.714 26.5885 160.998 27.3626 160.998 28.3605C160.998 28.6217 160.98 28.8828 160.942 29.144C160.905 29.4051 160.854 29.6429 160.788 29.8574H156.578C156.662 30.2678 156.839 30.5662 157.109 30.7527C157.389 30.9299 157.799 31.0185 158.34 31.0185C158.657 31.0185 158.979 30.9906 159.306 30.9346C159.632 30.8787 160.089 30.7574 160.677 30.5709V32.6833ZM158.718 27.9548C158.718 27.6284 158.625 27.3766 158.438 27.1994C158.261 27.0129 158.009 26.9196 157.683 26.9196C157.319 26.9196 157.035 27.0362 156.829 27.2694C156.634 27.5025 156.531 27.8429 156.522 28.2906H158.69C158.699 28.2719 158.704 28.244 158.704 28.2067C158.713 28.16 158.718 28.0761 158.718 27.9548Z" fill="#212121"/>
<path d="M143.372 27.7033V32.9774H140.574V25.3531H143.372V25.9826L143.428 26.0246C143.782 25.7355 144.132 25.5256 144.477 25.3951C144.832 25.2645 145.209 25.1992 145.61 25.1992C146.011 25.1992 146.361 25.2692 146.66 25.4091C146.958 25.549 147.201 25.7588 147.387 26.0386C147.76 25.7588 148.157 25.549 148.576 25.4091C148.996 25.2692 149.444 25.1992 149.919 25.1992C150.684 25.1992 151.262 25.4184 151.654 25.8567C152.046 26.2857 152.241 26.9246 152.241 27.7733V32.9774H149.444V28.3189C149.444 27.9645 149.397 27.7173 149.304 27.5774C149.22 27.4375 149.066 27.3676 148.842 27.3676C148.683 27.3676 148.52 27.3956 148.352 27.4515C148.185 27.5075 148.003 27.5914 147.807 27.7033V32.9774H145.009V28.3189C145.009 27.9645 144.962 27.7173 144.869 27.5774C144.785 27.4375 144.627 27.3676 144.393 27.3676C144.216 27.3676 144.034 27.4002 143.848 27.4655C143.661 27.5215 143.503 27.6008 143.372 27.7033Z" fill="#212121"/>
<path d="M135.497 32.4579C135.208 32.6817 134.891 32.8543 134.546 32.9755C134.2 33.0874 133.832 33.1434 133.44 33.1434C132.638 33.1434 132.027 32.9196 131.608 32.4719C131.197 32.0242 130.992 31.3667 130.992 30.4994V25.3652H133.79V29.9258C133.79 30.3175 133.837 30.5926 133.93 30.7512C134.023 30.9004 134.196 30.975 134.448 30.975C134.643 30.975 134.844 30.947 135.049 30.8911C135.254 30.8258 135.422 30.7419 135.553 30.6393V25.3652H138.351V32.9755H135.553V32.4999L135.497 32.4579Z" fill="#212121"/>
<path d="M122.554 28.8518V32.9787H119.645V22.3047H122.442L124.947 26.3756C125.133 26.6647 125.301 26.9539 125.45 27.243C125.609 27.5321 125.749 27.8166 125.87 28.0963L125.926 28.0824C125.907 27.7932 125.889 27.5088 125.87 27.229C125.861 26.9492 125.856 26.6694 125.856 26.3896V22.3047H128.766V32.9787H125.968L123.464 28.8658C123.286 28.5673 123.119 28.2735 122.96 27.9844C122.801 27.6953 122.657 27.4155 122.526 27.1451L122.47 27.159C122.498 27.4388 122.517 27.7233 122.526 28.0124C122.545 28.2922 122.554 28.572 122.554 28.8518Z" fill="#212121"/>
<path d="M112.132 21.7435L108.999 24.3735L107.684 23.0865L110.09 20.0508L112.132 21.7435ZM112.188 32.6833C111.769 32.8325 111.34 32.9444 110.901 33.019C110.472 33.0937 110.025 33.131 109.558 33.131C108.299 33.131 107.297 32.7672 106.55 32.0398C105.814 31.3123 105.445 30.3191 105.445 29.06C105.445 27.8942 105.786 26.9616 106.467 26.2621C107.157 25.5533 108.085 25.1989 109.25 25.1989C110.286 25.1989 111.088 25.4787 111.657 26.0383C112.226 26.5885 112.51 27.3626 112.51 28.3605C112.51 28.6217 112.491 28.8828 112.454 29.144C112.417 29.4051 112.365 29.6429 112.3 29.8574H108.089C108.173 30.2678 108.35 30.5662 108.621 30.7527C108.901 30.9299 109.311 31.0185 109.852 31.0185C110.169 31.0185 110.491 30.9906 110.817 30.9346C111.144 30.8787 111.601 30.7574 112.188 30.5709V32.6833ZM110.23 27.9548C110.23 27.6284 110.136 27.3766 109.95 27.1994C109.773 27.0129 109.521 26.9196 109.195 26.9196C108.831 26.9196 108.546 27.0362 108.341 27.2694C108.145 27.5025 108.043 27.8429 108.033 28.2906H110.202C110.211 28.2719 110.216 28.244 110.216 28.2067C110.225 28.16 110.23 28.0761 110.23 27.9548Z" fill="#212121"/>
<path d="M104.471 32.7967C104.163 32.9087 103.842 32.9879 103.506 33.0346C103.17 33.0905 102.825 33.1185 102.471 33.1185C101.519 33.1185 100.769 32.8714 100.218 32.3771C99.6773 31.8734 99.4069 31.1833 99.4069 30.3066V27.4528H98.1758V25.3543H99.4069V23.3398H102.205V25.3543H104.331V27.4528H102.205V29.4113C102.205 29.9149 102.279 30.26 102.429 30.4465C102.587 30.6237 102.853 30.7123 103.226 30.7123C103.385 30.7123 103.566 30.6983 103.772 30.6703C103.986 30.633 104.219 30.5817 104.471 30.5165V32.7967Z" fill="#212121"/>
<path d="M96.9487 21.7435L93.8151 24.3735L92.5 23.0865L94.9062 20.0508L96.9487 21.7435ZM97.0047 32.6833C96.585 32.8325 96.156 32.9444 95.7176 33.019C95.2886 33.0937 94.8409 33.131 94.3746 33.131C93.1156 33.131 92.113 32.7672 91.3669 32.0398C90.6301 31.3123 90.2617 30.3191 90.2617 29.06C90.2617 27.8942 90.6021 26.9616 91.283 26.2621C91.9731 25.5533 92.9011 25.1989 94.0669 25.1989C95.1021 25.1989 95.9042 25.4787 96.4731 26.0383C97.042 26.5885 97.3264 27.3626 97.3264 28.3605C97.3264 28.6217 97.3078 28.8828 97.2705 29.144C97.2332 29.4051 97.1819 29.6429 97.1166 29.8574H92.9057C92.9897 30.2678 93.1669 30.5662 93.4373 30.7527C93.7171 30.9299 94.1275 31.0185 94.6684 31.0185C94.9855 31.0185 95.3073 30.9906 95.6337 30.9346C95.9601 30.8787 96.4171 30.7574 97.0047 30.5709V32.6833ZM95.0461 27.9548C95.0461 27.6284 94.9529 27.3766 94.7663 27.1994C94.5891 27.0129 94.3373 26.9196 94.0109 26.9196C93.6472 26.9196 93.3627 27.0362 93.1575 27.2694C92.9617 27.5025 92.8591 27.8429 92.8498 28.2906H95.0181C95.0275 28.2719 95.0321 28.244 95.0321 28.2067C95.0415 28.16 95.0461 28.0761 95.0461 27.9548Z" fill="#212121"/>
<path d="M88.8731 22.57C88.8731 23.0364 88.7099 23.4281 88.3835 23.7452C88.0664 24.0529 87.6747 24.2068 87.2084 24.2068C86.7234 24.2068 86.3177 24.0529 85.9913 23.7452C85.6742 23.4281 85.5156 23.0364 85.5156 22.57C85.5156 22.1037 85.6742 21.7167 85.9913 21.4089C86.3177 21.1012 86.7234 20.9473 87.2084 20.9473C87.684 20.9473 88.0804 21.1012 88.3975 21.4089C88.7146 21.7167 88.8731 22.1037 88.8731 22.57ZM88.5933 25.354V32.9782H85.7954V25.354H88.5933Z" fill="#212121"/>
<path d="M81.7198 28.8924V32.9774H78.9219V25.3531H81.7198V26.2624L81.7757 26.3044C82.1208 25.9034 82.4472 25.6189 82.755 25.451C83.0721 25.2832 83.4078 25.1992 83.7622 25.1992C83.8555 25.1992 83.9534 25.2039 84.056 25.2132C84.1586 25.2225 84.2705 25.2412 84.3918 25.2692V28.137C84.2146 28.109 84.0887 28.095 84.0141 28.095C83.9488 28.0857 83.8881 28.0811 83.8322 28.0811C83.2913 28.0811 82.8529 28.1463 82.5172 28.2769C82.1908 28.3982 81.925 28.6033 81.7198 28.8924Z" fill="#212121"/>
<path d="M77.2337 28.8808C77.2337 30.1585 76.8606 31.1844 76.1145 31.9585C75.3684 32.7326 74.3705 33.1197 73.1207 33.1197C72.6358 33.1197 72.1182 33.0544 71.5679 32.9238C71.027 32.7932 70.3741 32.5834 69.6094 32.2943V21.9141H72.4073V25.971L72.4353 25.999C72.6964 25.7285 72.9902 25.528 73.3166 25.3974C73.6523 25.2669 74.0347 25.2016 74.4637 25.2016C75.2845 25.2016 75.9513 25.5373 76.4642 26.2088C76.9772 26.8803 77.2337 27.771 77.2337 28.8808ZM72.4073 30.7554C72.5285 30.8114 72.6498 30.8534 72.771 30.8813C72.8922 30.9093 73.0135 30.9233 73.1347 30.9233C73.5544 30.9233 73.8762 30.7694 74.1 30.4616C74.3238 30.1446 74.4358 29.6969 74.4358 29.1187C74.4358 28.5684 74.3285 28.1487 74.114 27.8596C73.8995 27.5612 73.5917 27.4119 73.1907 27.4119C73.0228 27.4119 72.8689 27.4446 72.729 27.5099C72.5985 27.5658 72.4912 27.6498 72.4073 27.7617V30.7554Z" fill="#212121"/>
<path d="M67.9334 29.1719C67.9334 30.3937 67.5837 31.3589 66.8842 32.0677C66.1847 32.7672 65.2288 33.117 64.0164 33.117C62.8039 33.117 61.848 32.7672 61.1485 32.0677C60.4584 31.3589 60.1133 30.3937 60.1133 29.1719C60.1133 27.9502 60.4584 26.9849 61.1485 26.2761C61.848 25.5673 62.8039 25.2129 64.0164 25.2129C65.2288 25.2129 66.1847 25.5673 66.8842 26.2761C67.5837 26.9849 67.9334 27.9502 67.9334 29.1719ZM65.1215 29.1719C65.1215 28.5564 65.0283 28.0994 64.8417 27.8009C64.6645 27.4932 64.3894 27.3393 64.0164 27.3393C63.6526 27.3393 63.3775 27.4932 63.191 27.8009C63.0138 28.0994 62.9252 28.5564 62.9252 29.1719C62.9252 29.7875 63.0138 30.2444 63.191 30.5429C63.3775 30.8413 63.6526 30.9906 64.0164 30.9906C64.3894 30.9906 64.6645 30.8413 64.8417 30.5429C65.0283 30.2444 65.1215 29.7875 65.1215 29.1719Z" fill="#212121"/>
<path d="M58.8642 29.7025C58.8642 30.8216 58.4865 31.6703 57.731 32.2485C56.9756 32.8268 55.8658 33.1159 54.4015 33.1159C53.814 33.1159 53.2684 33.0739 52.7648 32.99C52.2612 32.906 51.7575 32.7755 51.2539 32.5983V29.9962C51.7109 30.2574 52.2145 30.4579 52.7648 30.5978C53.315 30.7377 53.8746 30.8076 54.4435 30.8076C54.8912 30.8076 55.2269 30.7377 55.4508 30.5978C55.6746 30.4579 55.7865 30.248 55.7865 29.9683C55.7865 29.7724 55.6932 29.5952 55.5067 29.4366C55.3295 29.2688 54.9192 29.0543 54.2756 28.7931C53.6601 28.532 53.2031 28.3175 52.9047 28.1496C52.6156 27.9724 52.3637 27.7812 52.1492 27.576C51.8508 27.2869 51.627 26.9605 51.4777 26.5968C51.3285 26.2237 51.2539 25.8087 51.2539 25.3517C51.2539 24.3445 51.6223 23.5611 52.3591 23.0015C53.0959 22.4419 54.1264 22.1621 55.4508 22.1621C55.9917 22.1621 56.5233 22.2181 57.0456 22.33C57.5678 22.4326 58.0202 22.5818 58.4025 22.7776V25.5196C58.0388 25.2118 57.5865 24.9693 57.0456 24.7921C56.5046 24.6056 55.959 24.5123 55.4088 24.5123C55.0171 24.5123 54.728 24.5683 54.5414 24.6802C54.3549 24.7828 54.2616 24.946 54.2616 25.1699C54.2616 25.3844 54.3596 25.5849 54.5554 25.7714C54.7606 25.9486 55.2083 26.1864 55.8984 26.4849C56.486 26.7367 56.9197 26.9465 57.1994 27.1144C57.4886 27.2729 57.7357 27.4408 57.9409 27.618C58.2487 27.8978 58.4772 28.2102 58.6264 28.5553C58.7849 28.9004 58.8642 29.2828 58.8642 29.7025Z" fill="#212121"/>
<path d="M101.098 14.7831C100.959 14.9323 100.778 15.0522 100.554 15.1428C100.336 15.2334 100.101 15.2787 99.851 15.2787C99.4406 15.2787 99.1129 15.1561 98.8677 14.911C98.6226 14.6658 98.5 14.3434 98.5 13.9437C98.5 13.496 98.6625 13.1523 98.9876 12.9125C99.3181 12.6673 99.7897 12.5447 100.403 12.5447H101.01C101.015 12.5288 101.018 12.5101 101.018 12.4888C101.018 12.4675 101.018 12.4302 101.018 12.3769C101.018 12.0678 100.949 11.8519 100.81 11.7294C100.677 11.6068 100.443 11.5455 100.107 11.5455C99.8883 11.5455 99.6751 11.5695 99.4673 11.6174C99.2648 11.6654 99.0516 11.7427 98.8278 11.8493V11.0259C98.9184 10.9832 99.0223 10.9459 99.1395 10.914C99.2621 10.8767 99.3953 10.8447 99.5392 10.818C99.6618 10.7914 99.787 10.7727 99.9149 10.7621C100.043 10.7514 100.168 10.7461 100.291 10.7461C100.866 10.7461 101.279 10.8847 101.53 11.1618C101.78 11.4389 101.905 11.8839 101.905 12.4968V15.1908H101.258L101.122 14.7911L101.098 14.7831ZM100.499 13.2082C100.125 13.2082 99.8483 13.2615 99.6671 13.3681C99.4913 13.4747 99.4033 13.6453 99.4033 13.8797C99.4033 14.0929 99.4619 14.2555 99.5792 14.3674C99.6964 14.4793 99.867 14.5352 100.091 14.5352C100.299 14.5352 100.496 14.49 100.682 14.3994C100.874 14.3088 101.007 14.2022 101.082 14.0796V13.2082H100.499Z" fill="#212121"/>
<path d="M97.3016 8.86914V15.1924H96.4062V8.86914H97.3016Z" fill="#212121"/>
<path d="M92.251 15.0309C92.0272 15.1161 91.8087 15.1774 91.5955 15.2147C91.3823 15.2574 91.1692 15.2787 90.956 15.2787C90.2685 15.2787 89.7302 15.0842 89.3412 14.6951C88.9575 14.3008 88.7656 13.7492 88.7656 13.0404C88.7656 12.3422 88.9468 11.7853 89.3092 11.3696C89.6716 10.9539 90.1619 10.7461 90.7801 10.7461C91.3077 10.7461 91.7154 10.906 92.0032 11.2257C92.291 11.5402 92.4349 11.9798 92.4349 12.5447C92.4349 12.6726 92.4269 12.8059 92.4109 12.9444C92.3949 13.083 92.3709 13.2216 92.3389 13.3601H89.637C89.6903 13.7385 89.8262 14.021 90.0447 14.2075C90.2632 14.394 90.5696 14.4873 90.964 14.4873C91.1612 14.4873 91.3663 14.466 91.5795 14.4233C91.798 14.3754 92.0218 14.3061 92.251 14.2155V15.0309ZM91.6195 12.3769C91.6248 12.0997 91.5449 11.8786 91.3797 11.7134C91.2198 11.5428 90.996 11.4576 90.7082 11.4576C90.3937 11.4576 90.1433 11.5615 89.9567 11.7693C89.7702 11.9772 89.6636 12.2729 89.637 12.6567H91.5955C91.6008 12.614 91.6062 12.5687 91.6115 12.5208C91.6168 12.4675 91.6195 12.4195 91.6195 12.3769Z" fill="#212121"/>
<path d="M86.719 14.8566C86.5911 14.9899 86.4313 15.0938 86.2394 15.1684C86.0529 15.243 85.8557 15.2803 85.6479 15.2803C85.1469 15.2803 84.7392 15.0725 84.4248 14.6568C84.1103 14.2411 83.9531 13.7082 83.9531 13.058C83.9531 12.3705 84.129 11.8136 84.4807 11.3873C84.8378 10.9609 85.3121 10.7477 85.9037 10.7477C86.0902 10.7477 86.2501 10.7637 86.3833 10.7957C86.5219 10.8277 86.6338 10.8783 86.719 10.9476L86.743 10.9236V8.86914H87.6464V15.1924H86.743V14.8806L86.719 14.8566ZM86.743 11.763C86.6631 11.699 86.5592 11.6484 86.4313 11.6111C86.3034 11.5738 86.1701 11.5551 86.0316 11.5551C85.6638 11.5551 85.3761 11.6857 85.1682 11.9468C84.9604 12.2026 84.8564 12.5624 84.8564 13.026C84.8564 13.4737 84.9497 13.8308 85.1362 14.0972C85.3228 14.3584 85.5759 14.4889 85.8957 14.4889C86.0769 14.4889 86.2447 14.4463 86.3993 14.361C86.5538 14.2758 86.6684 14.1665 86.743 14.0333V11.763Z" fill="#212121"/>
<path d="M80.2238 13.9837C80.2238 14.3727 80.0772 14.6871 79.7841 14.927C79.491 15.1614 79.0993 15.2787 78.609 15.2787C78.3638 15.2787 78.1187 15.2494 77.8735 15.1908C77.6337 15.1321 77.4392 15.0549 77.29 14.9589V14.1036C77.3593 14.1675 77.4419 14.2261 77.5378 14.2794C77.639 14.3274 77.7536 14.3727 77.8815 14.4153C77.9881 14.4473 78.0974 14.474 78.2093 14.4953C78.3212 14.5113 78.4358 14.5193 78.553 14.5193C78.8035 14.5193 78.998 14.482 79.1366 14.4073C79.2751 14.3274 79.3444 14.2155 79.3444 14.0716C79.3444 13.9544 79.2938 13.8478 79.1925 13.7518C79.0913 13.6559 78.8701 13.536 78.529 13.3921C78.2732 13.2802 78.084 13.1896 77.9615 13.1203C77.8442 13.051 77.743 12.9791 77.6577 12.9045C77.5191 12.7872 77.4152 12.6567 77.3459 12.5128C77.282 12.3635 77.25 12.1983 77.25 12.0171C77.25 11.6281 77.3912 11.319 77.6737 11.0898C77.9615 10.8607 78.3532 10.7461 78.8488 10.7461C79.0833 10.7461 79.3098 10.7754 79.5283 10.834C79.7468 10.8873 79.9253 10.9566 80.0639 11.0419V11.8413C79.872 11.7347 79.6669 11.6521 79.4484 11.5935C79.2352 11.5348 79.0273 11.5055 78.8248 11.5055C78.601 11.5055 78.4278 11.5455 78.3052 11.6254C78.188 11.7054 78.1293 11.8146 78.1293 11.9532C78.1293 12.0704 78.18 12.177 78.2812 12.2729C78.3825 12.3635 78.6036 12.4808 78.9447 12.6247C79.2005 12.7313 79.3871 12.8192 79.5043 12.8885C79.6269 12.9578 79.7308 13.0297 79.8161 13.1043C79.9546 13.2216 80.0559 13.3521 80.1198 13.496C80.1891 13.6399 80.2238 13.8025 80.2238 13.9837Z" fill="#212121"/>
<path d="M76.1807 9.18799C76.1807 9.36385 76.1194 9.51307 75.9968 9.63565C75.8796 9.75289 75.733 9.81152 75.5571 9.81152C75.3813 9.81152 75.232 9.75289 75.1095 9.63565C74.9922 9.51307 74.9336 9.36385 74.9336 9.18799C74.9336 9.01212 74.9922 8.86556 75.1095 8.74832C75.232 8.62574 75.3813 8.56445 75.5571 8.56445C75.733 8.56445 75.8796 8.62574 75.9968 8.74832C76.1194 8.86556 76.1807 9.01212 76.1807 9.18799ZM76.0048 10.8347V15.1915H75.1095V10.8347H76.0048Z" fill="#212121"/>
<path d="M73.9918 13.0164C73.9918 13.6932 73.8133 14.2395 73.4562 14.6552C73.0992 15.0708 72.6195 15.2787 72.0173 15.2787C71.4204 15.2787 70.9434 15.0708 70.5864 14.6552C70.2293 14.2395 70.0508 13.6932 70.0508 13.0164C70.0508 12.3396 70.2293 11.7933 70.5864 11.3776C70.9434 10.9566 71.4204 10.7461 72.0173 10.7461C72.6142 10.7461 73.0912 10.9566 73.4482 11.3776C73.8106 11.7933 73.9918 12.3396 73.9918 13.0164ZM73.0885 13.0164C73.0885 12.5687 72.9926 12.2117 72.8007 11.9452C72.6089 11.6787 72.3477 11.5455 72.0173 11.5455C71.6816 11.5455 71.4204 11.6787 71.2339 11.9452C71.0474 12.2063 70.9541 12.5634 70.9541 13.0164C70.9541 13.4694 71.0474 13.8264 71.2339 14.0876C71.4204 14.3487 71.6816 14.4793 72.0173 14.4793C72.3477 14.4793 72.6089 14.3487 72.8007 14.0876C72.9926 13.8211 73.0885 13.4641 73.0885 13.0164Z" fill="#212121"/>
<path d="M63.8328 11.9692V15.1908H62.9375V10.834H63.8328V11.1538L63.8568 11.1778C64.0593 11.0285 64.2645 10.9193 64.4723 10.85C64.6855 10.7807 64.9067 10.7461 65.1359 10.7461C65.3917 10.7461 65.6075 10.7887 65.7834 10.874C65.9646 10.9593 66.0978 11.0845 66.1831 11.2497C66.3962 11.0845 66.6281 10.9593 66.8785 10.874C67.129 10.7887 67.3875 10.7461 67.654 10.7461C68.0856 10.7461 68.4054 10.8607 68.6132 11.0898C68.8264 11.319 68.933 11.6681 68.933 12.1371V15.1908H68.0377V12.4328C68.0377 12.1184 67.987 11.8919 67.8858 11.7533C67.7899 11.6148 67.6273 11.5455 67.3982 11.5455C67.201 11.5455 67.0038 11.5881 66.8066 11.6734C66.6094 11.7587 66.4682 11.8599 66.3829 11.9772V15.1908H65.4876V12.4808C65.4876 12.1344 65.4396 11.8919 65.3437 11.7533C65.2531 11.6148 65.0906 11.5455 64.8561 11.5455C64.6535 11.5455 64.4537 11.5855 64.2565 11.6654C64.0593 11.7453 63.9181 11.8466 63.8328 11.9692Z" fill="#212121"/>
<path d="M58.7784 15.0309C58.5545 15.1161 58.336 15.1774 58.1228 15.2147C57.9097 15.2574 57.6965 15.2787 57.4833 15.2787C56.7958 15.2787 56.2576 15.0842 55.8685 14.6951C55.4848 14.3008 55.293 13.7492 55.293 13.0404C55.293 12.3422 55.4742 11.7853 55.8366 11.3696C56.199 10.9539 56.6893 10.7461 57.3075 10.7461C57.8351 10.7461 58.2428 10.906 58.5305 11.2257C58.8183 11.5402 58.9622 11.9798 58.9622 12.5447C58.9622 12.6726 58.9542 12.8059 58.9382 12.9444C58.9222 13.083 58.8983 13.2216 58.8663 13.3601H56.1643C56.2176 13.7385 56.3535 14.021 56.572 14.2075C56.7905 14.394 57.0969 14.4873 57.4913 14.4873C57.6885 14.4873 57.8937 14.466 58.1069 14.4233C58.3254 14.3754 58.5492 14.3061 58.7784 14.2155V15.0309ZM58.1468 12.3769C58.1522 12.0997 58.0722 11.8786 57.907 11.7134C57.7471 11.5428 57.5233 11.4576 57.2355 11.4576C56.9211 11.4576 56.6706 11.5615 56.4841 11.7693C56.2975 11.9772 56.191 12.2729 56.1643 12.6567H58.1228C58.1282 12.614 58.1335 12.5687 58.1388 12.5208C58.1442 12.4675 58.1468 12.4195 58.1468 12.3769Z" fill="#212121"/>
<path d="M54.5789 14.3218V15.1932H51.2773V9.09375H52.2446V14.3218H54.5789Z" fill="#212121"/>
</svg>
