<svg width="100" height="100" viewBox="0 0 100 100" fill="none" xmlns="http://www.w3.org/2000/svg">
<path d="M2.59961 2.59998H97.4219V97.4223H2.59961V2.59998Z" fill="white"/>
<path d="M2.58885 2.33885H2.33885V2.58885V97.4111V97.6611H2.58885H97.4111H97.6611V97.4111V2.58885V2.33885H97.4111H2.58885ZM0.25 0.25H99.75V99.75H0.25V0.25Z" fill="#212121" stroke="white" stroke-width="0.5"/>
<path d="M82.0649 85.5343C82.0649 86.3236 82.2181 86.9174 82.5244 87.3159C82.8308 87.7144 83.2903 87.9136 83.903 87.9136C84.2936 87.9136 84.6918 87.8485 85.0977 87.7182C85.5036 87.5879 85.8712 87.4079 86.2005 87.178V89.3849C85.8329 89.5994 85.4117 89.7642 84.9369 89.8791C84.462 89.9864 83.9681 90.04 83.4549 90.04C82.2525 90.04 81.3029 89.6301 80.6059 88.8102C79.909 87.9902 79.5605 86.9021 79.5605 85.5458C79.5605 84.1665 79.9282 83.0707 80.6634 82.2584C81.4063 81.4462 82.4287 81.04 83.7306 81.04C84.1902 81.04 84.6152 81.086 85.0058 81.178C85.4041 81.2623 85.7832 81.3925 86.1431 81.5688V83.8331C85.8061 83.5956 85.4653 83.4232 85.1207 83.3159C84.7837 83.2086 84.4008 83.155 83.9719 83.155C83.3209 83.155 82.8384 83.3504 82.5244 83.7412C82.2181 84.132 82.0649 84.7297 82.0649 85.5343Z" fill="#212121"/>
<path d="M78.2812 88.0684V89.9599H73.2012V88.0684H74.497V83.0514H73.2012V81.1599H78.2812V83.0514H76.9968V88.0684H78.2812Z" fill="#212121"/>
<path d="M66.5964 86.4999V89.9599H64.082V81.1599H66.5964V84.4931H69.0877V81.1599H71.602V89.9599H69.0877V86.4999H66.5964Z" fill="#212121"/>
<path d="M60.9036 83.1667V89.9599H58.4167V83.1667H56.1602V81.1599H63.1602V83.1667H60.9036Z" fill="#212121"/>
<path d="M55.5197 88.0684V89.9599H49.6797V81.1599H55.3806V83.0514H52.2057V84.5507H55.1489V86.4422H52.2057V88.0684H55.5197Z" fill="#212121"/>
<path d="M48.5617 81.2867L47.289 84.8399L45.7617 84.4158L46.4675 80.9199L48.5617 81.2867Z" fill="#212121"/>
<path d="M44.72 81.3781C44.72 81.7626 44.5878 82.0856 44.3233 82.347C44.0664 82.6008 43.7491 82.7277 43.3713 82.7277C42.9784 82.7277 42.6498 82.6008 42.3853 82.347C42.1284 82.0856 42 81.7626 42 81.3781C42 80.9936 42.1284 80.6745 42.3853 80.4207C42.6498 80.1669 42.9784 80.04 43.3713 80.04C43.7567 80.04 44.0778 80.1669 44.3347 80.4207C44.5916 80.6745 44.72 80.9936 44.72 81.3781ZM44.4933 83.6735V89.96H42.2267V83.6735H44.4933Z" fill="#212121"/>
<path d="M38.8521 86.5989V89.9601H36.5605V83.6867H38.8521V84.4349L38.8979 84.4694C39.1806 84.1394 39.4479 83.9054 39.7 83.7673C39.9597 83.6291 40.2347 83.5601 40.5249 83.5601C40.6013 83.5601 40.6815 83.5639 40.7656 83.5716C40.8496 83.5792 40.9412 83.5946 41.0405 83.6176V85.9773C40.8954 85.9543 40.7923 85.9428 40.7312 85.9428C40.6777 85.9351 40.6281 85.9313 40.5822 85.9313C40.1392 85.9313 39.7802 85.985 39.5052 86.0924C39.2379 86.1922 39.0202 86.361 38.8521 86.5989Z" fill="#212121"/>
<path d="M35.1609 86.5597C35.1609 87.6087 34.8536 88.451 34.239 89.0865C33.6245 89.7221 32.8025 90.0398 31.7731 90.0398C31.3737 90.0398 30.9473 89.9862 30.4941 89.879C30.0485 89.7718 29.5108 89.5996 28.8809 89.3622V80.8398H31.1854V84.1707L31.2085 84.1937C31.4236 83.9716 31.6656 83.807 31.9344 83.6998C32.211 83.5926 32.5259 83.539 32.8793 83.539C33.5553 83.539 34.1046 83.8146 34.5271 84.3659C34.9496 84.9172 35.1609 85.6485 35.1609 86.5597ZM31.1854 88.0988C31.2853 88.1447 31.3852 88.1792 31.485 88.2021C31.5849 88.2251 31.6848 88.2366 31.7846 88.2366C32.1303 88.2366 32.3954 88.1103 32.5797 87.8576C32.7641 87.5972 32.8563 87.2297 32.8563 86.7549C32.8563 86.3032 32.7679 85.9586 32.5912 85.7212C32.4146 85.4762 32.1611 85.3537 31.8307 85.3537C31.6925 85.3537 31.5657 85.3805 31.4505 85.4341C31.3429 85.48 31.2546 85.549 31.1854 85.6408V88.0988Z" fill="#212121"/>
<path d="M27.5211 86.8058C27.5211 87.8074 27.2349 88.5988 26.6624 89.1799C26.09 89.7533 25.3076 90.0401 24.3154 90.0401C23.3231 90.0401 22.5408 89.7533 21.9683 89.1799C21.4035 88.5988 21.1211 87.8074 21.1211 86.8058C21.1211 85.8042 21.4035 85.0128 21.9683 84.4317C22.5408 83.8506 23.3231 83.5601 24.3154 83.5601C25.3076 83.5601 26.09 83.8506 26.6624 84.4317C27.2349 85.0128 27.5211 85.8042 27.5211 86.8058ZM25.2198 86.8058C25.2198 86.3012 25.1435 85.9265 24.9909 85.6818C24.8458 85.4295 24.6207 85.3034 24.3154 85.3034C24.0177 85.3034 23.7925 85.4295 23.6399 85.6818C23.4949 85.9265 23.4223 86.3012 23.4223 86.8058C23.4223 87.3104 23.4949 87.6851 23.6399 87.9298C23.7925 88.1744 24.0177 88.2968 24.3154 88.2968C24.6207 88.2968 24.8458 88.1744 24.9909 87.9298C25.1435 87.6851 25.2198 87.3104 25.2198 86.8058Z" fill="#212121"/>
<path d="M20.0808 87.2354C20.0808 88.155 19.7691 88.8523 19.1457 89.3274C18.5223 89.8025 17.6065 90.04 16.3982 90.04C15.9134 90.04 15.4631 90.0056 15.0475 89.9366C14.632 89.8676 14.2164 89.7603 13.8008 89.6148V87.4768C14.1779 87.6914 14.5935 87.8561 15.0475 87.9711C15.5016 88.086 15.9634 88.1435 16.4328 88.1435C16.8023 88.1435 17.0793 88.086 17.264 87.9711C17.4487 87.8561 17.5411 87.6837 17.5411 87.4538C17.5411 87.2929 17.4641 87.1473 17.3102 87.0171C17.164 86.8791 16.8253 86.7029 16.2943 86.4883C15.7864 86.2738 15.4093 86.0975 15.163 85.9596C14.9244 85.814 14.7166 85.6569 14.5396 85.4883C14.2933 85.2508 14.1086 84.9826 13.9855 84.6837C13.8623 84.3772 13.8008 84.0362 13.8008 83.6607C13.8008 82.8331 14.1048 82.1895 14.7128 81.7297C15.3208 81.2699 16.1712 81.04 17.264 81.04C17.7104 81.04 18.1491 81.086 18.58 81.178C19.011 81.2623 19.3843 81.3849 19.6998 81.5458V83.7987C19.3997 83.5458 19.0264 83.3466 18.58 83.201C18.1337 83.0477 17.6835 82.9711 17.2294 82.9711C16.9061 82.9711 16.6676 83.0171 16.5136 83.109C16.3597 83.1933 16.2828 83.3274 16.2828 83.5113C16.2828 83.6875 16.3636 83.8523 16.5252 84.0056C16.6945 84.1512 17.0639 84.3466 17.6334 84.5918C18.1183 84.7987 18.4761 84.9711 18.707 85.109C18.9456 85.2393 19.1496 85.3772 19.3189 85.5228C19.5728 85.7527 19.7614 86.0094 19.8845 86.2929C20.0154 86.5764 20.0808 86.8906 20.0808 87.2354Z" fill="#212121"/>
<path d="M81.002 41C81.002 58.1273 67.1157 72 50.002 72C44.1979 72 38.76 70.3998 34.1223 67.6334C33.4306 67.2266 32.7526 66.7791 32.1017 66.318C24.1822 60.7038 19.002 51.4554 19.002 41C19.002 23.8863 32.8747 10 50.002 10C54.8703 10 59.4674 11.1255 63.5628 13.119C65.2714 13.9462 66.8987 14.9361 68.4175 16.0617C76.0523 21.7165 81.002 30.7752 81.002 41Z" fill="#1A8536"/>
<path d="M74.7517 33.9347C70.5479 35.1416 68.0255 36.6469 66.1135 38.2877C65.3541 38.9386 64.6896 39.6031 64.0522 40.2812C63.6454 40.7151 63.2521 41.149 62.8453 41.583C62.4521 42.0169 61.991 42.6272 61.5028 43.3595C60.7027 44.5664 59.8213 46.0852 58.9805 47.6447C56.9464 51.3739 55.1292 55.2658 55.1292 55.2658C55.1292 55.2658 54.0986 58.656 49.0269 62.6158C43.9551 66.5891 35.127 63.2803 35.127 63.2803C34.7067 64.6635 34.3948 66.1552 34.1371 67.6469C33.4455 67.24 32.7675 66.7925 32.1165 66.3315C32.4962 62.3853 33.7303 58.5611 35.9271 53.5029C40.1852 43.6442 50.7084 39.02 50.7084 39.02C35.5474 41.5016 30.8418 60.6224 30.8418 60.6224C21.7968 47.5362 33.2692 36.9452 33.2692 36.9452C38.0019 32.2532 43.4534 30.0021 48.7963 29.1884C50.505 28.9308 52.2137 28.8087 53.8816 28.8087C55.6174 28.8087 57.3261 28.9308 58.9534 29.1342C60.7434 29.3647 62.4385 29.6902 64.0251 30.0699C70.358 31.5887 74.7517 33.9347 74.7517 33.9347Z" fill="white"/>
<path d="M68.4173 16.0617V17.1737H63.5625V13.119C65.2847 13.9462 66.8985 14.9362 68.4173 16.0617Z" fill="white"/>
<path d="M61.3938 16.5227H56.5391V21.3775H61.3938V16.5227Z" fill="white"/>
<path d="M55.1829 22.1504H50.3281V27.0052H55.1829V22.1504Z" fill="white"/>
<path d="M65.9212 23.4117H61.0664V28.2665H65.9212V23.4117Z" fill="white"/>
<path d="M64.0366 28.3071H58.9648V33.1619H64.0366V28.3071Z" fill="#1A8536"/>
<path d="M53.8897 47.7534C53.8626 46.9669 53.8491 46.1804 53.8355 45.3803L53.8084 43.0071C53.7813 41.4341 53.7812 39.8475 53.7812 38.2744C53.7812 36.7014 53.7813 35.1147 53.8084 33.5417L53.8355 31.1686C53.8491 30.382 53.8626 29.5955 53.8897 28.7954C53.9169 29.5819 53.9304 30.3685 53.944 31.1686L53.9711 33.5417C53.9982 35.1147 53.9982 36.7014 53.9982 38.2744C53.9982 39.8475 53.9982 41.4341 53.9711 43.0071L53.944 45.3803C53.9169 46.1804 53.9169 46.9669 53.8897 47.7534Z" fill="#1A8536"/>
<path d="M58.962 47.7534C58.9349 46.9669 58.9213 46.1804 58.9078 45.3803L58.8806 43.0071C58.8535 41.4341 58.8535 39.8475 58.8535 38.2744C58.8535 36.7014 58.8535 35.1147 58.8806 33.5417L58.9078 31.1686C58.9213 30.382 58.9349 29.5955 58.962 28.7954C58.9891 29.5819 59.0027 30.3685 59.0162 31.1686L59.0434 33.5417C59.0705 35.1147 59.0705 36.7014 59.0705 38.2744C59.0705 39.8475 59.0705 41.4341 59.0434 43.0071L59.0162 45.3803C59.0027 46.1804 58.9891 46.9669 58.962 47.7534Z" fill="#1A8536"/>
<path d="M64.0343 47.7534C64.0071 46.9669 63.9936 46.1804 63.98 45.3803L63.9529 43.0071C63.9258 41.4341 63.9258 39.8475 63.9258 38.2744C63.9258 36.7014 63.9258 35.1147 63.9529 33.5417L63.98 31.1686C63.9936 30.382 64.0071 29.5955 64.0343 28.7954C64.0614 29.5819 64.075 30.3685 64.0885 31.1686L64.1156 33.5417C64.1428 35.1147 64.1428 36.7014 64.1428 38.2744C64.1428 39.8475 64.1428 41.4341 64.1156 43.0071L64.0885 45.3803C64.075 46.1804 64.0614 46.9669 64.0343 47.7534Z" fill="#1A8536"/>
<path d="M68.4307 43.3597C67.6441 43.3868 66.8576 43.4004 66.0575 43.4139L63.6844 43.4411C62.1113 43.4682 60.5247 43.4682 58.9517 43.4682C57.3786 43.4682 55.792 43.4682 54.2189 43.4411L51.8458 43.4139C51.0593 43.4004 50.2727 43.3868 49.4727 43.3597C50.2592 43.3326 51.0457 43.319 51.8458 43.3055L54.2189 43.2783C55.792 43.2512 57.3786 43.2512 58.9517 43.2512C60.5247 43.2512 62.1113 43.2512 63.6844 43.2783L66.0575 43.3055C66.8576 43.319 67.6441 43.3326 68.4307 43.3597Z" fill="#1A8536"/>
<path d="M68.4307 38.2878C67.6441 38.3149 66.8576 38.3285 66.0575 38.3421L63.6844 38.3692C62.1113 38.3963 60.5247 38.3963 58.9517 38.3963C57.3786 38.3963 55.792 38.3963 54.2189 38.3692L51.8458 38.3421C51.0593 38.3285 50.2727 38.3149 49.4727 38.2878C50.2592 38.2607 51.0457 38.2471 51.8458 38.2336L54.2189 38.2064C55.792 38.1793 57.3786 38.1793 58.9517 38.1793C60.5247 38.1793 62.1113 38.1793 63.6844 38.2064L66.0575 38.2336C66.8576 38.2471 67.6441 38.2607 68.4307 38.2878Z" fill="#1A8536"/>
<path d="M68.4307 33.216C67.6441 33.2432 66.8576 33.2567 66.0575 33.2703L63.6844 33.2974C62.1113 33.3245 60.5247 33.3245 58.9517 33.3245C57.3786 33.3245 55.792 33.3245 54.2189 33.2974L51.8458 33.2703C51.0593 33.2567 50.2727 33.2432 49.4727 33.216C50.2592 33.1889 51.0457 33.1753 51.8458 33.1618L54.2189 33.1347C55.792 33.1075 57.3786 33.1075 58.9517 33.1075C60.5247 33.1075 62.1113 33.1075 63.6844 33.1347L66.0575 33.1618C66.8576 33.1753 67.6441 33.1889 68.4307 33.216Z" fill="#1A8536"/>
<path d="M53.8802 28.3071H48.7949V33.2026H53.8802V28.3071Z" fill="#1A8536"/>
</svg>
