<svg width="446" height="464" viewBox="0 0 446 464" fill="none" xmlns="http://www.w3.org/2000/svg">
<path d="M354.053 74.9999C342.953 51.5999 332.053 29.6999 297.553 25.7999C270.553 22.7999 239.453 22.5999 214.653 35.4999C193.153 46.6999 184.853 72.3 163.953 84.2C147.553 93.5 127.453 91.1999 108.653 89.2999C70.0527 85.2999 32.8527 99.9999 12.5527 134.8C-4.44728 164 -4.14727 202.4 13.2527 231.3C20.1527 242.8 29.4527 252.6 36.7527 263.9C44.0527 275.1 49.4527 288.5 47.0527 301.7C45.0527 312.8 38.0527 322.1 33.6527 332.5C21.8527 360 31.0527 394.6 54.0527 413.9C70.1527 427.4 91.2527 433.5 112.153 436.1C145.153 440.2 178.753 436.6 211.153 429.1C230.553 424.6 250.253 418.8 270.153 420.9C287.053 422.7 302.653 430.1 318.553 436C337.253 442.9 357.253 447.6 377.153 445.7C401.653 443.4 424.153 430.2 434.053 407C445.453 380.1 437.053 349.3 428.953 321.2C420.353 291.2 415.453 262.8 428.053 233.3C438.753 208.3 457.453 176.9 434.853 152.7C420.353 137.2 399.053 132.2 383.053 118.9C368.853 106.7 361.353 90.4999 354.053 74.9999Z" fill="#FFF3DB"/>
<path d="M215.353 463.2C333.818 463.2 429.853 456.26 429.853 447.7C429.853 439.139 333.818 432.2 215.353 432.2C96.8875 432.2 0.852539 439.139 0.852539 447.7C0.852539 456.26 96.8875 463.2 215.353 463.2Z" fill="#D8D8D8" fill-opacity="0.5"/>
<path d="M194.553 67.7003C194.553 67.7003 188.453 59.8003 185.453 59.8003C182.453 59.8003 179.653 66.0003 177.553 65.7003C175.453 65.4003 173.153 58.2003 167.753 59.9003C162.353 61.6003 161.053 69.9003 157.453 69.6003C153.853 69.3003 136.653 38.8003 136.653 38.8003L124.253 46.0003C124.253 46.0003 142.853 75.7003 141.253 78.9003C139.653 82.1003 131.853 78.8003 127.553 82.5003C123.253 86.2003 128.153 91.9003 127.353 93.9003C126.553 95.8003 121.153 94.8003 119.653 97.4003C118.153 100 120.153 109.4 120.153 109.4L155.053 82.7003L194.553 67.7003Z" fill="#D2D2D2" stroke="#212121" stroke-width="2" stroke-miterlimit="10"/>
<path d="M112.853 31.3999L109.553 46.1999L113.453 53.5999L123.153 48.4999C123.153 48.3999 118.253 42.3999 112.853 31.3999Z" fill="#E96B73" stroke="#212121" stroke-width="2" stroke-miterlimit="10"/>
<path d="M129.653 22.5L143.653 28.2L147.553 35.6L137.853 40.7C137.853 40.6 135.753 33.2 129.653 22.5Z" fill="#E96B73" stroke="#212121" stroke-width="2" stroke-miterlimit="10"/>
<path d="M109.953 5.6001C109.953 5.6001 102.053 28.5001 123.253 48.4001L138.853 40.2001C138.753 40.2001 134.953 13.6001 109.953 5.6001Z" fill="white" stroke="#212121" stroke-width="2" stroke-miterlimit="10"/>
<path d="M117.853 42.6002C119.353 44.5002 121.153 46.5002 123.153 48.4002L138.753 40.2002C138.753 40.2002 138.353 37.1002 136.753 32.7002L117.853 42.6002Z" fill="#E96B73" stroke="#212121" stroke-width="2" stroke-miterlimit="10"/>
<path d="M125.298 24.6996C126.244 21.4661 124.389 18.0783 121.156 17.1326C117.922 16.1869 114.534 18.0416 113.589 21.2751C112.643 24.5086 114.498 27.8965 117.731 28.8422C120.965 29.7878 124.353 27.9332 125.298 24.6996Z" fill="#E96B73" stroke="#212121" stroke-width="2" stroke-miterlimit="10"/>
<path d="M122.853 21.2003C121.853 19.3003 119.553 18.6003 117.653 19.6003C115.753 20.6003 115.053 22.9003 116.053 24.8003C117.053 26.7003 119.353 27.4003 121.253 26.4003C123.153 25.4003 123.853 23.1003 122.853 21.2003Z" fill="#E96B73" stroke="#212121" stroke-width="2" stroke-miterlimit="10"/>
<path d="M415.053 191.2L406.953 196.8V206.8L399.053 200.8L389.553 203.9L392.853 194.5L386.953 186.5L396.953 186.7L402.753 178.6L405.553 188.1L415.053 191.2Z" fill="#FADF4F" stroke="#212121" stroke-width="2" stroke-miterlimit="10"/>
<path d="M33.4525 231L31.4525 237.9L35.9525 243.3L28.9525 243.6L25.0525 249.5L22.6525 242.9L15.8525 241.1L21.4525 236.7L20.9525 229.7L26.8525 233.6L33.4525 231Z" fill="#FADF4F" stroke="#212121" stroke-width="2" stroke-miterlimit="10"/>
<path d="M148.252 319.1L146.252 325.9L150.752 331.4L143.752 331.6L139.852 337.6L137.452 330.9L130.652 329.1L136.252 324.8L135.752 317.7L141.652 321.7L148.252 319.1Z" fill="#FADF4F" stroke="#212121" stroke-width="2" stroke-miterlimit="10"/>
<path d="M313.352 319.1L311.452 325.9L315.952 331.4L308.852 331.6L304.952 337.6L302.552 330.9L295.752 329.1L301.352 324.8L300.852 317.7L306.752 321.7L313.352 319.1Z" fill="#FADF4F" stroke="#212121" stroke-width="2" stroke-miterlimit="10"/>
<path d="M68.0524 107.4L66.6524 112.2L69.8524 116L64.8524 116.2L62.2524 120.4L60.5524 115.7L55.7524 114.4L59.6524 111.4L59.3524 106.4L63.4524 109.2L68.0524 107.4Z" fill="#FADF4F" stroke="#212121" stroke-width="2" stroke-miterlimit="10"/>
<path d="M159.452 9.7L155.152 12.2L154.852 17.2L151.152 13.9L146.252 15.1L148.252 10.5L145.652 6.3L150.652 6.8L153.852 3L154.852 7.9L159.452 9.7Z" fill="#FADF4F" stroke="#212121" stroke-width="2" stroke-miterlimit="10"/>
<path d="M424.152 206.5L422.752 211.3L425.852 215.2L420.952 215.3L418.252 219.5L416.552 214.8L411.752 213.6L415.652 210.5L415.352 205.6L419.452 208.4L424.152 206.5Z" fill="#FADF4F" stroke="#212121" stroke-width="2" stroke-miterlimit="10"/>
<path d="M266.453 30.6998L264.453 37.4998L268.953 42.9998L261.953 43.1998L258.053 49.1998L255.653 42.5998L248.853 40.7998L254.353 36.3998L253.953 29.2998L259.853 33.2998L266.453 30.6998Z" fill="#FADF4F" stroke="#212121" stroke-width="2" stroke-miterlimit="10"/>
<path d="M224.353 324.5C297.917 324.5 357.553 264.864 357.553 191.3C357.553 117.735 297.917 58.0996 224.353 58.0996C150.789 58.0996 91.1528 117.735 91.1528 191.3C91.1528 264.864 150.789 324.5 224.353 324.5Z" fill="#74CBED" stroke="#212121" stroke-width="2" stroke-miterlimit="10"/>
<path d="M197.653 314.5C204.753 316 211.953 316.999 219.353 317.299" stroke="#212121" stroke-width="2" stroke-miterlimit="10"/>
<path d="M181.253 309.799C184.853 311.099 188.553 312.299 192.253 313.299" stroke="#212121" stroke-width="2" stroke-miterlimit="10"/>
<path d="M103.053 156.799C97.4527 176.299 96.5527 197.399 101.253 218.599C110.553 260.499 139.753 292.899 176.653 307.999" stroke="#212121" stroke-width="2" stroke-miterlimit="10"/>
<path d="M120.053 120.5C115.553 127.2 111.553 134.3 108.453 141.8" stroke="#212121" stroke-width="2" stroke-miterlimit="10"/>
<path d="M206.353 132.1L219.853 134.9L224.553 139.7L230.553 140.7L232.453 146.4L231.053 150.3L226.953 152.1L216.853 150.5L216.553 149.3L221.353 145.9L218.053 139.9L209.053 138.6L204.253 134.5L206.353 132.1Z" fill="#A8EC6C" stroke="#212121" stroke-width="2" stroke-miterlimit="10"/>
<path d="M315.753 257.4L304.953 255.6L291.953 254L282.353 256.1L272.953 256.2L263.553 260.6L258.053 262.1L254.653 262.9L248.953 268L243.353 271.8L233.853 268.4L234.053 259.3L228.353 258.3L222.153 259.7L220.653 257.1L220.053 251.4L217.253 248.8L213.053 250.4L212.553 253.8L207.353 255.3L201.453 250.8L197.953 243.8L200.653 234.1L209.753 232.7L212.653 234.3L216.353 233.5L220.353 229.7L224.653 230L232.353 238.3L234.453 237.5L232.253 230.5L229.553 227.2L228.853 221.2L239.153 213.7L238.153 201.9L242.153 196.8L244.553 188.8L247.453 187.5L253.553 181.3L253.353 178.8L248.453 180.2L246.953 177.9L243.553 178.7L238.553 181.1L240.153 176.5L250.253 171L252.153 167.7L257.953 173.5L261.353 175.7L265.353 173.5L262.653 169.9L255.153 166.7L245.853 160L236.953 156.5L229.253 156.9L224.753 154L219.553 153.9L219.253 155.3L220.653 164.4L222.553 167.2L221.953 177.7L214.653 174.1V169.6L207.453 168L203.953 165.2L203.753 157.1L211.253 148.6L210.253 141.1L206.953 142.2L204.153 139.9L202.153 135.5L199.953 135.7L199.853 140.9L196.553 142.3L192.653 131.8L189.853 130.8L185.153 129.9L180.753 133.5L188.253 138L190.653 143L177.653 137.1L168.053 130.5L165.553 122.3L156.953 121.6L151.653 127C151.653 127 148.953 129.5 147.553 130.5C146.153 131.5 140.453 133.4 140.453 133.4L140.353 138.9L133.353 140.8L134.753 144.1L146.553 143.4L153.853 148.6L156.253 159.4L154.953 169.7L157.853 179.7L152.553 196.7L155.753 219.6L161.453 231.9L167.653 240.9L172.453 240.5L169.853 235.9L166.553 232.7L163.453 226.3L166.053 225.1L172.853 235.2L178.153 244.4L179.953 252.4L187.353 258.2L199.553 263.6L216.553 264.4L222.553 267.9L227.353 272L233.653 274.2L240.853 274.5L247.553 272.7C247.553 272.7 247.953 275.9 248.253 277.4C248.553 278.9 245.453 285.1 245.453 285.1L243.453 292L247.453 298.2L254.853 299.5L266.653 307.3L271.353 308.2L272.353 312.8L273.353 314.8C297.053 305.4 316.853 289.6 331.353 270L331.053 267.7L336.053 250.7L331.453 248.8L315.753 257.4Z" fill="#A8EC6C" stroke="#212121" stroke-width="2" stroke-miterlimit="10"/>
<path d="M320.753 128.4L316.053 123.3L310.253 117.5L306.953 108.5L312.753 108.2L312.353 105L308.253 105.6L311.353 103.3L314.553 100.3L313.853 97.1997L309.053 93.0997L306.753 86.5997C276.453 62.7997 236.053 52.1997 195.453 61.2997C176.953 65.3997 160.353 73.0997 145.953 83.5997L154.153 87.0997L151.053 93.5997L145.453 96.0997L146.653 104.6L144.353 106.1L142.053 110.2L143.553 115.7L148.953 115.2L147.953 120.9L153.153 119.7L159.553 106.3L159.353 101.2L167.853 98.6997L169.153 94.4997L177.853 91.5997L177.653 86.0997L184.053 84.3997C184.053 84.3997 188.153 80.8997 189.053 80.6997C189.953 80.4997 194.653 81.0997 194.653 81.0997L200.153 83.7997L206.653 82.3997L211.453 77.7997L218.653 76.7997C218.653 76.7997 220.753 77.5997 222.353 77.2997C223.853 76.9997 228.053 73.7997 228.053 73.7997L238.253 77.3997L242.553 79.3997L243.553 83.9997L248.353 83.5997L249.253 80.4997L253.653 81.4997L253.853 83.9997L245.153 88.4997L251.953 94.0997L264.453 97.7997L270.453 102.9L277.353 102L278.253 98.5997L280.553 97.3997L271.153 92.9997L266.053 93.4997L269.753 91.3997L264.853 86.9997L270.053 85.4997L277.653 87.6997L280.853 94.7997L285.153 98.0997L289.953 106.4L297.853 109.8L300.153 120L308.253 123.1L308.653 126.6V130.8L311.753 135.9L312.953 138.5L318.453 138.3L319.753 132.5L320.753 128.4Z" fill="#A8EC6C" stroke="#212121" stroke-width="2" stroke-miterlimit="10"/>
<path d="M317.853 96.3999L318.253 98.1999L317.853 103.5L319.753 107.6L323.453 108.1L324.753 114L320.753 113.3L323.553 130.2L321.353 137.8L325.753 145.9L330.553 148.7L334.253 165.4L341.153 177.5L347.653 186.4L355.153 186.7L356.253 180L357.053 179C356.553 173.6 355.653 168.1 354.453 162.6C348.553 136.4 335.553 113.8 317.853 96.3999Z" fill="#A8EC6C" stroke="#212121" stroke-width="2" stroke-miterlimit="10"/>
<path d="M246.153 110.3L223.753 105.9L214.953 108.2L214.053 114.5L209.453 111.3L203.053 114.4L204.653 124.7L211.153 127.5L213.853 120.7L219.453 124.3L230.853 130.6L234.753 139.1L245.053 147.5L257.453 142.5L256.153 137.9L252.253 133.3L248.853 121.1L250.753 115.1L246.153 110.3Z" fill="#A8EC6C" stroke="#212121" stroke-width="2" stroke-miterlimit="10"/>
<path d="M264.353 113.4L259.453 113.2L256.153 117.5L260.353 126L264.353 125.1V113.4Z" fill="#A8EC6C" stroke="#212121" stroke-width="2" stroke-miterlimit="10"/>
<path d="M294.353 112.9L282.553 109.7L279.653 106.5L277.353 107.9L280.853 113.6L284.553 121.2L289.553 122.1L290.253 120.6L286.353 116.6L295.153 117.9L294.353 112.9Z" fill="#A8EC6C" stroke="#212121" stroke-width="2" stroke-miterlimit="10"/>
<path d="M228.953 244.3L227.953 245.8L237.853 246.5L242.553 250L248.553 249.3L249.953 245.5L242.553 245.8L228.953 244.3Z" fill="#A8EC6C" stroke="#212121" stroke-width="2" stroke-miterlimit="10"/>
<path d="M257.753 244.1L251.653 247.4L253.153 249.6L261.153 247.8L262.153 245L259.453 246L257.753 244.1Z" fill="#A8EC6C" stroke="#212121" stroke-width="2" stroke-miterlimit="10"/>
<path d="M383.853 60.6999L326.353 45.3999L340.153 63.1999L383.853 60.6999Z" fill="#FAC04F" stroke="#212121" stroke-width="2" stroke-miterlimit="10" stroke-linecap="round" stroke-linejoin="round"/>
<path d="M340.152 63.1997L339.752 75.0997L383.852 60.6997L340.152 63.1997Z" fill="#FAC04F" stroke="#212121" stroke-width="2" stroke-miterlimit="10" stroke-linecap="round" stroke-linejoin="round"/>
<path d="M345.352 69.0997L339.752 75.0997L383.852 60.6997L345.352 69.0997Z" fill="#FAC04F" stroke="#212121" stroke-width="2" stroke-miterlimit="10" stroke-linecap="round" stroke-linejoin="round"/>
<path d="M383.853 60.6997L345.353 69.0997L355.353 86.5997L383.853 60.6997Z" fill="#FAC04F" stroke="#212121" stroke-width="2" stroke-miterlimit="10" stroke-linecap="round" stroke-linejoin="round"/>
<path d="M330.653 72.3999C330.653 72.3999 330.153 72.4999 329.153 72.5999" stroke="#212121" stroke-width="2" stroke-linecap="round" stroke-linejoin="round"/>
<path d="M326.253 73C293.453 77.7 88.3527 108.7 45.5527 159.2C7.4527 204 70.7527 216.6 85.5527 218.9" stroke="#212121" stroke-width="2" stroke-linecap="round" stroke-linejoin="round" stroke-dasharray="2.99 2.99"/>
<path d="M86.9526 219.1C87.9526 219.2 88.4526 219.3 88.4526 219.3" stroke="#212121" stroke-width="2" stroke-linecap="round" stroke-linejoin="round"/>
<path d="M29.8528 402.1L23.2528 407.5C23.2528 407.5 16.6528 409.9 13.9528 411.9C11.2528 413.9 13.4528 417.8 14.6528 419.2C15.8528 420.6 19.2528 422.4 21.4528 425.5C23.6528 428.7 26.8528 433.3 30.7528 434.5C34.6528 435.7 36.1528 435 36.1528 432.3C36.1528 429.6 32.0528 424 31.5528 421.6C31.0528 419.2 30.5528 414 30.5528 414L35.1528 408.1L29.8528 402.1Z" fill="#FDF0E5" stroke="#212121" stroke-width="2" stroke-miterlimit="10" stroke-linecap="round" stroke-linejoin="round"/>
<path d="M30.5528 414L27.8528 414.2L26.1528 414.9L22.0528 407.9C20.0528 408.7 15.9528 410.4 13.9528 411.8C11.2528 413.8 13.4528 417.7 14.6528 419.1C15.8528 420.6 19.2528 422.3 21.4528 425.4C23.6528 428.6 26.8528 433.2 30.7528 434.4C34.6528 435.6 36.1528 434.9 36.1528 432.2C36.1528 429.5 32.0528 423.9 31.5528 421.5C31.0528 419.1 30.5528 414 30.5528 414Z" fill="#263238" stroke="#212121" stroke-width="2" stroke-miterlimit="10" stroke-linecap="round" stroke-linejoin="round"/>
<path d="M50.8525 355.3L49.8525 382.6L27.8525 403.1L36.1525 414.6L67.1525 391.7L73.9525 376.1L54.9525 356.1C54.9525 356 50.8525 353.8 50.8525 355.3Z" fill="#263238" stroke="#212121" stroke-width="2" stroke-miterlimit="10" stroke-linecap="round" stroke-linejoin="round"/>
<path d="M71.553 418.4L68.653 432.8C68.653 432.8 64.753 442.6 65.953 444.5C67.153 446.5 79.653 447.9 83.253 448.4C86.953 448.9 93.453 448.9 95.653 447.4C97.853 445.9 96.853 444.2 95.453 443.5C93.953 442.8 84.953 436.4 83.753 435.7C82.553 435 80.553 432 80.553 432L83.753 422.2L71.553 418.4Z" fill="#FDF0E5" stroke="#212121" stroke-width="2" stroke-miterlimit="10" stroke-linecap="round" stroke-linejoin="round"/>
<path d="M95.6526 447.5C97.8526 446 96.8526 444.3 95.4526 443.6C93.9526 442.9 84.9526 436.5 83.7526 435.8C82.5526 435.1 80.5526 432.1 80.5526 432.1C80.5526 432.1 77.6526 433.3 77.6526 434.3C77.6526 435.3 77.6526 436 77.6526 436L68.3526 433.4C67.5526 435.6 64.8526 442.8 65.9526 444.5C67.1526 446.5 79.6526 447.9 83.2526 448.4C86.9526 448.9 93.4526 448.9 95.6526 447.5Z" fill="#263238" stroke="#212121" stroke-width="2" stroke-miterlimit="10" stroke-linecap="round" stroke-linejoin="round"/>
<path d="M50.8525 356.7L76.2525 385L67.9525 419.4L85.7525 424.3C85.7525 424.3 96.7525 385 97.4525 382.6C98.1525 380.2 85.2525 357 85.2525 357C85.2525 357 81.1525 353.1 73.5525 351.9C65.9525 350.6 50.8525 356.7 50.8525 356.7Z" fill="#263238" stroke="#212121" stroke-width="2" stroke-miterlimit="10" stroke-linecap="round" stroke-linejoin="round"/>
<path d="M106.653 253.5L114.153 248.3C114.153 248.3 115.153 240 115.253 239.3C115.353 238.6 119.153 233.8 119.953 233.4C120.753 233.1 123.153 232.1 123.653 231.7C124.153 231.2 125.353 231.4 125.253 232.2C125.153 233 124.353 234.8 124.353 234.8C124.353 234.8 127.153 231.4 127.253 233.8C127.353 236.2 124.653 238.6 124.253 240.1C123.953 241.6 122.953 246.2 122.953 246.2C122.953 246.2 127.053 241.9 127.653 241C128.253 240.1 129.453 241.1 129.053 242.5C128.553 243.9 126.853 246.3 126.153 248.5C125.453 250.7 121.653 252.9 120.453 253.2C119.253 253.5 117.653 254 117.653 254L108.453 264.3L103.553 254.9L106.653 253.5Z" fill="#FDF0E5" stroke="#212121" stroke-width="2" stroke-miterlimit="10" stroke-linecap="round" stroke-linejoin="round"/>
<path d="M124.353 234.8C124.353 234.8 122.253 237.7 122.253 238.2C122.253 238.8 120.853 242.1 120.853 242.1" stroke="#212121" stroke-width="2" stroke-miterlimit="10" stroke-linecap="round" stroke-linejoin="round"/>
<path d="M122.753 232.4C122.753 232.4 120.153 236.5 119.453 237.7C118.753 238.9 118.553 241.7 118.553 241.7" stroke="#212121" stroke-width="2" stroke-miterlimit="10" stroke-linecap="round" stroke-linejoin="round"/>
<path d="M118.353 235.2C118.353 235.2 116.753 238.4 116.753 238.8C116.753 239.2 116.553 241.1 116.553 241.1" stroke="#212121" stroke-width="2" stroke-miterlimit="10" stroke-linecap="round" stroke-linejoin="round"/>
<path d="M107.353 254C107.353 254 108.853 256 109.053 259.3C109.253 262.6 111.053 266.1 111.553 266.3C112.053 266.5 115.153 266.3 114.653 268.8C114.153 271.3 112.653 273.3 112.653 273.3C112.653 273.3 111.953 283.4 111.153 285.1C110.353 286.8 99.2529 285.8 99.2529 285.8C99.2529 285.8 94.7529 294.4 94.7529 294.9C94.7529 295.4 80.3529 288.1 80.3529 288.1L80.8529 282.6C80.8529 282.6 77.5529 280.4 74.2529 276.6C70.9529 272.8 69.9529 269.5 69.9529 269.5C69.9529 269.5 69.6529 263.5 72.2529 257.6C74.8529 251.6 84.6529 247.7 94.4529 247C104.253 246.2 107.353 254 107.353 254Z" fill="#FDF0E5" stroke="#212121" stroke-width="2" stroke-miterlimit="10" stroke-linecap="round" stroke-linejoin="round"/>
<path d="M94.953 265.3C95.153 263.8 93.953 259.8 93.953 259.8L90.653 251.7C90.653 251.7 80.053 256.2 71.253 260.1C69.653 265.1 69.953 269.4 69.953 269.4C69.953 269.4 70.953 272.7 74.253 276.5C77.553 280.3 80.853 282.5 80.853 282.5C81.653 282 85.353 281.5 85.353 281.5C85.353 281.5 78.753 276.4 81.553 273.6C84.353 270.8 88.153 273.6 88.553 274.1C88.853 274.6 91.353 274.8 91.353 273.8C91.353 272.8 90.353 269.7 90.353 269.7C90.353 269.7 94.853 266.8 94.953 265.3Z" fill="#263238" stroke="#212121" stroke-width="2" stroke-miterlimit="10" stroke-linecap="round" stroke-linejoin="round"/>
<path d="M94.6529 261.5L103.953 257.5L103.153 251L106.453 256L111.253 253C111.253 253 109.553 246 99.1529 242.9C88.7529 239.8 80.2529 240.6 71.6529 249.4C63.0529 258.2 70.1529 275.6 70.1529 275.6L81.5529 269.5V263.4L84.1529 267.2L94.6529 261.5Z" fill="#263238" stroke="#212121" stroke-width="2" stroke-miterlimit="10" stroke-linecap="round" stroke-linejoin="round"/>
<mask id="path-52-inside-1_646_2481" fill="white">
<path d="M107.053 264.1C107.353 265.2 107.253 266.1 106.853 266.2C106.453 266.3 105.853 265.5 105.653 264.5C105.453 263.5 105.453 262.5 105.853 262.4C106.153 262.2 106.753 263 107.053 264.1Z"/>
</mask>
<path d="M107.053 264.1C107.353 265.2 107.253 266.1 106.853 266.2C106.453 266.3 105.853 265.5 105.653 264.5C105.453 263.5 105.453 262.5 105.853 262.4C106.153 262.2 106.753 263 107.053 264.1Z" fill="#263238"/>
<path d="M105.853 262.4L106.338 264.34L106.674 264.256L106.962 264.064L105.853 262.4ZM105.123 264.626C105.229 265.015 105.232 265.261 105.225 265.326C105.221 265.365 105.224 265.244 105.326 265.052C105.433 264.849 105.741 264.416 106.368 264.26L107.338 268.14C108.164 267.934 108.636 267.351 108.864 266.917C109.088 266.493 109.172 266.059 109.205 265.724C109.274 265.039 109.176 264.285 108.982 263.574L105.123 264.626ZM106.368 264.26C107.025 264.095 107.498 264.363 107.629 264.449C107.779 264.549 107.826 264.628 107.801 264.594C107.759 264.535 107.664 264.356 107.614 264.108L103.692 264.892C103.842 265.644 104.147 266.365 104.555 266.931C104.755 267.209 105.039 267.532 105.421 267.785C105.783 268.024 106.48 268.355 107.338 268.14L106.368 264.26ZM107.614 264.108C107.533 263.704 107.514 263.391 107.524 263.241C107.529 263.154 107.537 263.245 107.462 263.42C107.388 263.591 107.087 264.153 106.338 264.34L105.368 260.46C104.419 260.697 103.967 261.421 103.788 261.839C103.606 262.261 103.551 262.683 103.532 262.984C103.492 263.608 103.572 264.296 103.692 264.892L107.614 264.108ZM106.962 264.064C106.581 264.318 106.148 264.4 105.766 264.359C105.423 264.322 105.184 264.197 105.069 264.125C104.856 263.993 104.788 263.873 104.83 263.931C104.888 264.012 105.023 264.257 105.123 264.626L108.982 263.574C108.783 262.842 108.468 262.138 108.076 261.594C107.893 261.34 107.6 260.988 107.18 260.728C106.772 260.474 105.763 260.056 104.743 260.736L106.962 264.064Z" fill="#212121" mask="url(#path-52-inside-1_646_2481)"/>
<path d="M107.953 263.5C107.953 263.5 106.453 261.7 104.653 262.5" stroke="#212121" stroke-width="2" stroke-miterlimit="10" stroke-linecap="round" stroke-linejoin="round"/>
<path d="M103.053 261.3C103.053 261.3 104.053 258.8 106.653 258.8" stroke="#212121" stroke-width="2" stroke-miterlimit="10" stroke-linecap="round" stroke-linejoin="round"/>
<path d="M111.053 275.9C111.053 275.9 108.053 277.2 105.753 274.4" stroke="#212121" stroke-width="2" stroke-miterlimit="10" stroke-linecap="round" stroke-linejoin="round"/>
<path d="M98.5528 297.3L78.0528 284.4C78.0528 284.4 47.6528 340.6 45.5528 347.3C43.4528 354 46.1528 357.2 53.7528 358.7C61.3528 360.2 70.1528 357.5 73.9528 356.1C77.7528 354.6 85.9528 359.3 85.9528 359.3C85.9528 359.3 87.4528 361.1 87.9528 359.6C88.5528 358.1 88.8528 353.2 88.8528 350.8C88.8528 348.5 99.6528 306.6 99.6528 302.2C99.7528 297.9 98.5528 297.3 98.5528 297.3Z" fill="#FAC04F" stroke="#212121" stroke-width="2" stroke-miterlimit="10" stroke-linecap="round" stroke-linejoin="round"/>
<path d="M93.5527 310.2C93.5527 310.2 76.2527 315.5 72.5527 315.9Z" fill="#FAC04F"/>
<path d="M93.5527 310.2C93.5527 310.2 76.2527 315.5 72.5527 315.9" stroke="#212121" stroke-width="2" stroke-miterlimit="10" stroke-linecap="round" stroke-linejoin="round"/>
<path d="M72.9527 325.6C71.6527 326.4 70.5527 327 69.5527 327.5Z" fill="#FAC04F"/>
<path d="M72.9527 325.6C71.6527 326.4 70.5527 327 69.5527 327.5" stroke="#212121" stroke-width="2" stroke-miterlimit="10" stroke-linecap="round" stroke-linejoin="round"/>
<path d="M93.5526 312.9C93.5526 312.9 84.0526 318.9 76.4526 323.5Z" fill="#FAC04F"/>
<path d="M93.5526 312.9C93.5526 312.9 84.0526 318.9 76.4526 323.5" stroke="#212121" stroke-width="2" stroke-miterlimit="10" stroke-linecap="round" stroke-linejoin="round"/>
<path d="M80.1528 352.3C81.2528 352.8 82.3528 353.5 83.5528 354.2Z" fill="#FAC04F"/>
<path d="M80.1528 352.3C81.2528 352.8 82.3528 353.5 83.5528 354.2" stroke="#212121" stroke-width="2" stroke-miterlimit="10" stroke-linecap="round" stroke-linejoin="round"/>
<path d="M65.5527 349.5C65.5527 349.5 70.2527 348.5 76.9527 350.9Z" fill="#FAC04F"/>
<path d="M65.5527 349.5C65.5527 349.5 70.2527 348.5 76.9527 350.9" stroke="#212121" stroke-width="2" stroke-miterlimit="10" stroke-linecap="round" stroke-linejoin="round"/>
<path d="M76.0527 287.9L79.8527 281.8C79.8527 281.8 83.3527 282.1 88.6527 285.6C93.9527 289.1 98.5527 297.3 98.5527 297.3L76.0527 287.9Z" fill="#FAC04F" stroke="#212121" stroke-width="2" stroke-miterlimit="10" stroke-linecap="round" stroke-linejoin="round"/>
<path d="M115.253 304.9L145.353 288.8V279.4L149.153 272.1C149.153 272.1 150.053 270.3 151.453 271.2L150.753 272.4L152.253 270.6C152.253 270.6 153.453 269.5 154.253 268.7C155.053 267.9 155.753 268.7 155.953 269.2C156.153 269.7 156.153 269.4 156.153 269.4C156.153 269.4 157.053 268.9 157.753 269.2C159.053 269.8 156.453 274.1 156.453 274.1C156.453 274.1 159.653 271.7 159.653 273.2C159.653 274.7 155.853 278.8 155.853 278.8C155.853 278.8 159.853 276.4 159.853 277.8C159.853 279.2 154.453 284 154.453 284C154.453 284 153.453 288.5 151.853 291.2C150.253 294 148.153 294.9 148.153 294.9C148.153 294.9 123.553 315.6 119.353 317.6C115.053 319.7 111.453 318.3 111.453 318.3L114.053 305.3L115.253 304.9Z" fill="#FDF0E5" stroke="#212121" stroke-width="2" stroke-miterlimit="10" stroke-linecap="round" stroke-linejoin="round"/>
<path d="M156.152 269.3C156.152 269.3 152.752 274 152.252 274.6C151.752 275.2 150.252 278.7 150.252 278.7" stroke="#212121" stroke-width="2" stroke-miterlimit="10" stroke-linecap="round" stroke-linejoin="round"/>
<path d="M152.253 270.6C152.253 270.6 149.053 275.3 148.853 276.1C148.653 276.9 148.353 277.9 148.353 277.9" stroke="#212121" stroke-width="2" stroke-miterlimit="10" stroke-linecap="round" stroke-linejoin="round"/>
<path d="M156.453 274C156.453 274 154.153 277 153.853 277.7C153.553 278.4 152.453 279.9 152.453 279.9" stroke="#212121" stroke-width="2" stroke-miterlimit="10" stroke-linecap="round" stroke-linejoin="round"/>
<path d="M155.953 278.7L154.353 280.5" stroke="#212121" stroke-width="2" stroke-miterlimit="10" stroke-linecap="round" stroke-linejoin="round"/>
<path d="M87.1526 294.1L116.753 302.6L109.753 327.8C109.753 327.8 86.6526 308.8 85.4526 307" fill="#FAC04F"/>
<path d="M87.1526 294.1L116.753 302.6L109.753 327.8C109.753 327.8 86.6526 308.8 85.4526 307" stroke="#212121" stroke-width="2" stroke-miterlimit="10" stroke-linecap="round" stroke-linejoin="round"/>
<path d="M99.2527 285.6L94.5527 284.6L96.5527 290.2L99.2527 285.6Z" fill="#263238" stroke="#212121" stroke-width="2" stroke-miterlimit="10" stroke-linecap="round" stroke-linejoin="round"/>
<path d="M107.452 59.2998C107.452 53.0998 102.452 48.1998 96.3524 48.1998C95.2524 48.1998 94.1524 48.3998 93.1524 48.6998C90.9524 42.3998 84.8524 37.7998 77.7524 37.7998C70.6524 37.7998 64.6524 42.2998 62.3524 48.5998C61.3524 48.2998 60.4524 48.1998 59.3524 48.1998C53.1524 48.1998 48.2524 53.1998 48.2524 59.2998C48.2524 64.6998 52.0524 69.0998 57.0524 70.1998L98.9524 70.0998C103.752 68.9998 107.452 64.5998 107.452 59.2998Z" fill="white" stroke="#212121" stroke-width="2" stroke-miterlimit="10"/>
<path d="M117.452 64.7996C117.452 61.7996 114.952 59.2996 111.952 59.2996C111.352 59.2996 110.852 59.3996 110.352 59.4996C109.252 56.3996 106.252 54.0996 102.752 54.0996C99.2523 54.0996 96.3523 56.2996 95.1523 59.3996C94.6523 59.2996 94.1523 59.1996 93.6523 59.1996C90.6523 59.1996 88.1523 61.6996 88.1523 64.6996C88.1523 67.2996 90.0523 69.4996 92.4523 70.0996H113.052C115.652 69.5996 117.452 67.3996 117.452 64.7996Z" fill="white" stroke="#212121" stroke-width="2" stroke-miterlimit="10"/>
<path d="M411.952 122.9C411.952 116.7 406.952 111.8 400.852 111.8C399.752 111.8 398.652 112 397.652 112.3C395.452 106 389.352 101.4 382.252 101.4C375.152 101.4 369.152 105.9 366.852 112.2C365.852 111.9 364.952 111.8 363.852 111.8C357.652 111.8 352.752 116.8 352.752 122.9C352.752 128.3 356.552 132.7 361.552 133.8L403.452 133.7C408.352 132.5 411.952 128.1 411.952 122.9Z" fill="white" stroke="#212121" stroke-width="2" stroke-miterlimit="10"/>
<path d="M421.952 128.4C421.952 125.4 419.452 122.9 416.452 122.9C415.852 122.9 415.352 123 414.852 123.1C413.752 120 410.752 117.7 407.252 117.7C403.752 117.7 400.852 119.9 399.652 123C399.152 122.9 398.652 122.8 398.152 122.8C395.152 122.8 392.652 125.3 392.652 128.3C392.652 130.9 394.552 133.1 396.952 133.7H417.552C420.152 133.2 421.952 131 421.952 128.4Z" fill="white" stroke="#212121" stroke-width="2" stroke-miterlimit="10"/>
<path d="M92.0525 221.1C92.0525 214.9 87.0525 210 80.9525 210C79.8525 210 78.7525 210.2 77.7525 210.5C75.5525 204.2 69.4525 199.6 62.3525 199.6C55.2525 199.6 49.2525 204.1 46.9525 210.4C45.9525 210.1 45.0525 210 43.9525 210C37.7525 210 32.8525 215 32.8525 221.1C32.8525 226.5 36.6525 230.9 41.6525 232L83.5525 231.9C88.4525 230.7 92.0525 226.3 92.0525 221.1Z" fill="white" stroke="#212121" stroke-width="2" stroke-miterlimit="10"/>
<path d="M102.052 226.599C102.052 223.599 99.5524 221.099 96.5524 221.099C95.9524 221.099 95.4524 221.199 94.9524 221.299C93.8524 218.199 90.8524 215.899 87.3524 215.899C83.8524 215.899 80.9524 218.099 79.7524 221.199C79.2524 221.099 78.7524 220.999 78.2524 220.999C75.2524 220.999 72.7524 223.499 72.7524 226.499C72.7524 229.099 74.6524 231.299 77.0524 231.899H97.6524C100.252 231.399 102.052 229.199 102.052 226.599Z" fill="white" stroke="#212121" stroke-width="2" stroke-miterlimit="10"/>
<path d="M314.873 209.945C318.6 207.606 323.709 207.47 328.102 210.144C334.596 214.097 337.25 222.466 334.05 228.842C333.522 229.882 317.454 255.075 295.405 266.784C289.856 269.794 282.686 267.21 279.304 261.068C275.976 255.01 277.733 247.651 283.282 244.641C299.22 236.175 310.578 214.765 310.609 214.627C311.634 212.685 313.094 211.061 314.873 209.945Z" fill="#FFD88D" stroke="#212121" stroke-width="2" stroke-miterlimit="10" stroke-linecap="round" stroke-linejoin="round"/>
<path d="M320.623 242.816L304.701 230.612C304.701 230.612 297.244 239.423 291.919 243.354C291.919 243.354 303.016 254.454 307.714 256.11C307.683 256.248 318.341 247.081 320.623 242.816Z" fill="#FFD88D" stroke="#212121" stroke-width="2" stroke-miterlimit="10" stroke-linecap="round" stroke-linejoin="round"/>
<path d="M327.76 226.532C327.334 225.855 327.524 225.027 328.201 224.602C328.879 224.177 329.706 224.366 330.131 225.044C330.557 225.722 330.367 226.549 329.69 226.974C328.959 227.315 328.132 227.125 327.76 226.532Z" fill="#FFD88D" stroke="#212121" stroke-width="2" stroke-miterlimit="10" stroke-linecap="round" stroke-linejoin="round"/>
<path d="M320.641 217.068C320.216 216.391 320.405 215.564 321.083 215.138C321.76 214.713 322.588 214.903 323.013 215.58C323.438 216.258 323.249 217.085 322.571 217.51C321.893 217.935 321.066 217.746 320.641 217.068Z" fill="#FFD88D" stroke="#212121" stroke-width="2" stroke-miterlimit="10" stroke-linecap="round" stroke-linejoin="round"/>
<path d="M324.091 231.786C323.665 231.108 323.855 230.281 324.532 229.856C325.21 229.431 326.037 229.62 326.462 230.298C326.888 230.975 326.698 231.802 326.021 232.227C325.343 232.653 324.516 232.463 324.091 231.786Z" fill="#FFD88D" stroke="#212121" stroke-width="2" stroke-miterlimit="10" stroke-linecap="round" stroke-linejoin="round"/>
<path d="M316.755 225.173C316.33 224.496 316.519 223.669 317.197 223.243C317.874 222.818 318.701 223.008 319.127 223.685C319.552 224.363 319.362 225.19 318.685 225.615C317.954 225.956 317.127 225.766 316.755 225.173Z" fill="#FFD88D" stroke="#212121" stroke-width="2" stroke-miterlimit="10" stroke-linecap="round" stroke-linejoin="round"/>
<path d="M322.108 225.238C321.683 224.561 321.872 223.734 322.55 223.308C323.227 222.883 324.054 223.072 324.48 223.75C324.905 224.428 324.715 225.255 324.038 225.68C323.392 225.967 322.48 225.831 322.108 225.238Z" fill="#FFD88D" stroke="#212121" stroke-width="2" stroke-miterlimit="10" stroke-linecap="round" stroke-linejoin="round"/>
<path d="M314.305 218.447C313.879 217.769 314.069 216.942 314.746 216.517C315.424 216.092 316.251 216.281 316.676 216.959C317.102 217.636 316.912 218.463 316.235 218.889C315.642 219.261 314.73 219.124 314.305 218.447Z" fill="#FFD88D" stroke="#212121" stroke-width="2" stroke-miterlimit="10" stroke-linecap="round" stroke-linejoin="round"/>
<path d="M325.531 218.84C325.105 218.163 325.295 217.336 325.972 216.91C326.65 216.485 327.477 216.675 327.902 217.352C328.328 218.03 328.138 218.857 327.461 219.282C326.868 219.654 325.903 219.433 325.531 218.84Z" fill="#FFD88D" stroke="#212121" stroke-width="2" stroke-miterlimit="10" stroke-linecap="round" stroke-linejoin="round"/>
<path d="M319.457 236.818C319.032 236.141 319.221 235.314 319.899 234.888C320.576 234.463 321.403 234.653 321.829 235.33C322.254 236.008 322.065 236.835 321.387 237.26C320.656 237.601 319.829 237.411 319.457 236.818Z" fill="#FFD88D" stroke="#212121" stroke-width="2" stroke-miterlimit="10" stroke-linecap="round" stroke-linejoin="round"/>
<path d="M299.43 258.711C299.004 258.033 299.194 257.206 299.871 256.781C300.549 256.355 301.376 256.545 301.801 257.222C302.227 257.9 302.037 258.727 301.36 259.152C300.682 259.578 299.855 259.388 299.43 258.711Z" fill="#FFD88D" stroke="#212121" stroke-width="2" stroke-miterlimit="10" stroke-linecap="round" stroke-linejoin="round"/>
<path d="M292.557 250.391C292.132 249.714 292.321 248.886 292.999 248.461C293.676 248.036 294.504 248.225 294.929 248.903C295.354 249.581 295.165 250.408 294.487 250.833C293.756 251.173 292.929 250.984 292.557 250.391Z" fill="#FFD88D" stroke="#212121" stroke-width="2" stroke-miterlimit="10" stroke-linecap="round" stroke-linejoin="round"/>
<path d="M287.338 254.492C286.913 253.815 287.102 252.987 287.78 252.562C288.458 252.137 289.285 252.326 289.71 253.004C290.135 253.682 289.946 254.509 289.268 254.934C288.537 255.275 287.71 255.085 287.338 254.492Z" fill="#FFD88D" stroke="#212121" stroke-width="2" stroke-miterlimit="10" stroke-linecap="round" stroke-linejoin="round"/>
<path d="M282.998 257.923C282.573 257.246 282.763 256.419 283.44 255.993C284.118 255.568 284.945 255.758 285.37 256.435C285.795 257.113 285.606 257.94 284.928 258.365C284.251 258.79 283.424 258.601 282.998 257.923Z" fill="#FFD88D" stroke="#212121" stroke-width="2" stroke-miterlimit="10" stroke-linecap="round" stroke-linejoin="round"/>
<path d="M293.851 262.801C293.426 262.124 293.615 261.297 294.293 260.871C294.97 260.446 295.798 260.635 296.223 261.313C296.648 261.991 296.459 262.818 295.781 263.243C295.188 263.615 294.276 263.479 293.851 262.801Z" fill="#FFD88D" stroke="#212121" stroke-width="2" stroke-miterlimit="10" stroke-linecap="round" stroke-linejoin="round"/>
<path d="M293.66 256.665C293.234 255.987 293.424 255.16 294.101 254.735C294.779 254.309 295.606 254.499 296.031 255.176C296.456 255.854 296.267 256.681 295.59 257.106C294.912 257.532 294.085 257.342 293.66 256.665Z" fill="#FFD88D" stroke="#212121" stroke-width="2" stroke-miterlimit="10" stroke-linecap="round" stroke-linejoin="round"/>
<path d="M287.827 248.873C287.401 248.195 287.591 247.368 288.268 246.943C288.946 246.518 289.773 246.707 290.198 247.385C290.623 248.063 290.434 248.89 289.757 249.315C289.079 249.74 288.252 249.551 287.827 248.873Z" fill="#FFD88D" stroke="#212121" stroke-width="2" stroke-miterlimit="10" stroke-linecap="round" stroke-linejoin="round"/>
<path d="M287.9 260.279C287.475 259.601 287.664 258.774 288.342 258.349C289.019 257.924 289.846 258.113 290.272 258.791C290.697 259.468 290.507 260.295 289.83 260.721C289.152 261.146 288.325 260.957 287.9 260.279Z" fill="#FFD88D" stroke="#212121" stroke-width="2" stroke-miterlimit="10" stroke-linecap="round" stroke-linejoin="round"/>
<path d="M281.834 252.869C281.409 252.192 281.598 251.364 282.276 250.939C282.953 250.514 283.78 250.703 284.206 251.381C284.631 252.059 284.441 252.886 283.764 253.311C283.086 253.736 282.259 253.547 281.834 252.869Z" fill="#FFD88D" stroke="#212121" stroke-width="2" stroke-miterlimit="10" stroke-linecap="round" stroke-linejoin="round"/>
<path d="M288.757 265.407C288.331 264.73 288.521 263.902 289.198 263.477C289.876 263.052 290.703 263.241 291.128 263.919C291.554 264.597 291.364 265.424 290.687 265.849C290.009 266.274 289.182 266.085 288.757 265.407Z" fill="#FFD88D" stroke="#212121" stroke-width="2" stroke-miterlimit="10" stroke-linecap="round" stroke-linejoin="round"/>
<path d="M311.244 231.819C310.818 231.141 311.008 230.314 311.685 229.889C312.363 229.464 313.19 229.653 313.615 230.331C314.04 231.008 313.851 231.835 313.173 232.261C312.496 232.686 311.616 232.412 311.244 231.819Z" fill="#FFD88D" stroke="#212121" stroke-width="2" stroke-miterlimit="10" stroke-linecap="round" stroke-linejoin="round"/>
<path d="M317.432 230.769C317.007 230.091 317.197 229.264 317.874 228.839C318.552 228.414 319.379 228.603 319.804 229.281C320.229 229.959 320.04 230.786 319.362 231.211C318.632 231.551 317.805 231.362 317.432 230.769Z" fill="#FFD88D" stroke="#212121" stroke-width="2" stroke-miterlimit="10" stroke-linecap="round" stroke-linejoin="round"/>
<path d="M310.99 225.958C310.564 225.28 310.754 224.453 311.431 224.028C312.109 223.602 312.936 223.792 313.361 224.469C313.787 225.147 313.597 225.974 312.92 226.399C312.242 226.825 311.362 226.551 310.99 225.958Z" fill="#FFD88D" stroke="#212121" stroke-width="2" stroke-miterlimit="10" stroke-linecap="round" stroke-linejoin="round"/>
<path d="M341.153 273.3L326.653 253.6C326.653 253.6 322.053 251.7 321.653 250.5C321.253 249.3 319.953 245.9 318.953 243.9C318.753 243.5 318.653 243.2 318.653 243C318.553 242.1 319.753 241.6 320.253 242.4C320.653 242.9 321.053 243.6 321.253 243.9C321.653 244.8 322.153 245 322.153 245C322.153 245 323.553 246.4 323.153 245.3C322.753 244.3 321.253 238.1 320.853 236.8C320.453 235.6 320.853 234.9 321.853 234.9C322.853 234.9 324.353 240.3 324.353 240.3C324.053 239.1 323.853 237.8 323.553 236.6C323.353 235.7 323.153 234.8 322.953 233.8C322.753 233 322.353 232.3 322.653 231.5C322.853 230.8 323.553 229.9 324.253 230.8C325.253 232 327.353 238.9 327.353 238.9V233.5C327.353 233.5 328.553 232.1 329.453 233.5C330.253 234.9 330.653 239.9 330.653 239.9C330.853 239.4 330.953 238.8 331.153 238.3C331.253 237.8 331.253 237 331.653 236.6C332.253 235.9 332.653 237.3 332.853 237.8C333.453 239.5 332.653 250.8 332.653 250.8L332.453 252.9L353.153 269L343.453 275.4L341.153 273.3Z" fill="#C48C38" stroke="#212121" stroke-width="2" stroke-miterlimit="10" stroke-linecap="round" stroke-linejoin="round"/>
<path d="M379.953 262.1C379.953 262.1 372.553 249.9 359.753 250.9C346.953 252 343.253 264.5 343.053 267.1C342.753 269.8 339.853 271.2 338.753 271.4C336.053 271.7 336.653 275.7 337.653 277C338.653 278.3 338.753 278.3 338.753 278.3C338.753 278.3 340.053 287.8 341.653 288.7C345.153 290.6 352.053 290.6 352.053 290.6L352.853 294.6L366.953 293.5C366.953 293.5 365.353 292.2 366.953 289.8C368.553 287.4 375.753 285.5 379.153 280C382.553 274.5 380.753 265.8 379.953 262.1Z" fill="#C48C38" stroke="#212121" stroke-width="2" stroke-miterlimit="10" stroke-linecap="round" stroke-linejoin="round"/>
<path d="M379.953 262.1C379.953 262.1 372.553 249.9 359.753 250.9C358.853 251 357.953 251.1 357.153 251.3C359.353 251.6 362.753 252.7 363.453 256.2C364.553 261.5 358.153 265.2 358.353 268.4C358.653 271.6 361.253 275.8 362.053 275.8C362.853 275.8 368.453 278.5 367.353 281.9C366.253 285.4 363.353 285.9 365.753 288.5C366.053 288.9 366.453 289.1 366.953 289.4C368.753 287.1 375.653 285.2 379.053 279.8C382.653 274.3 380.753 265.8 379.953 262.1Z" fill="#263238" stroke="#212121" stroke-width="2" stroke-miterlimit="10" stroke-linecap="round" stroke-linejoin="round"/>
<path d="M374.353 258.9C374.353 258.9 376.453 247.7 379.153 244.3C381.853 240.8 383.653 246.4 383.653 246.4C383.653 246.4 392.153 239 397.753 241.1C403.353 243.2 396.953 247.2 396.953 247.2C396.953 247.2 406.253 245.9 408.653 252.8C411.053 259.7 405.153 261.3 405.153 261.3C405.153 261.3 412.353 268.5 409.153 270.6C405.953 272.7 399.353 272.2 399.353 272.2C399.353 272.2 404.953 274.1 402.053 276.7C399.153 279.4 391.953 274 391.953 274C391.953 274 392.753 279.8 388.753 279.8C384.753 279.8 382.153 272.9 382.153 272.9C382.153 272.9 379.453 277.2 377.353 274.2C375.153 271.4 373.853 260.2 374.353 258.9Z" fill="#263238" stroke="#212121" stroke-width="2" stroke-miterlimit="10" stroke-linecap="round" stroke-linejoin="round"/>
<path d="M373.053 263.9C373.053 263.9 372.553 257.3 378.853 253.3C385.253 249.3 385.753 253 385.753 253C385.753 253 391.553 247.7 396.653 251.7C401.753 255.7 396.653 260.7 396.653 260.7C396.653 260.7 411.853 259.6 410.253 264.2C408.653 268.7 402.053 269.5 402.053 269.5C402.053 269.5 410.253 277.5 406.553 279.9C402.853 282.3 395.653 279.9 395.653 279.9C395.653 279.9 398.553 283.6 392.953 285.2C387.353 286.8 384.453 280.9 384.453 280.9C384.453 280.9 386.353 283.3 379.353 282.8C372.453 282.3 372.153 273.8 372.153 273.8C372.153 273.8 365.553 273 373.053 263.9Z" fill="#263238" stroke="#212121" stroke-width="2" stroke-miterlimit="10" stroke-linecap="round" stroke-linejoin="round"/>
<path d="M360.553 277.2C360.553 277.2 365.353 271.9 367.453 276.4C369.553 280.9 364.753 287.8 360.553 284.6" fill="#C48C38"/>
<path d="M360.553 277.2C360.553 277.2 365.353 271.9 367.453 276.4C369.553 280.9 364.753 287.8 360.553 284.6" stroke="#212121" stroke-width="2" stroke-miterlimit="10" stroke-linecap="round" stroke-linejoin="round"/>
<path d="M347.137 268.979L347.138 268.972L347.139 268.964C347.216 268.504 347.38 268.183 347.527 268.011C347.535 268.001 347.543 267.992 347.551 267.983C347.616 268.201 347.645 268.565 347.567 269.036C347.492 269.484 347.334 269.801 347.19 269.976C347.106 269.725 347.068 269.36 347.137 268.979ZM347.672 267.887C347.672 267.888 347.668 267.889 347.662 267.89C347.668 267.888 347.671 267.887 347.672 267.887ZM347.493 267.839C347.487 267.834 347.485 267.83 347.485 267.83C347.485 267.829 347.488 267.832 347.493 267.839ZM347.035 270.113C347.035 270.112 347.038 270.111 347.044 270.11C347.038 270.113 347.035 270.113 347.035 270.113Z" fill="#263238" stroke="#212121" stroke-width="2"/>
<path d="M346.953 263.1C346.953 263.1 350.453 261 351.253 266.6" stroke="#212121" stroke-width="2" stroke-miterlimit="10" stroke-linecap="round" stroke-linejoin="round"/>
<path d="M341.153 279.1C341.153 279.1 343.253 280.4 346.953 278" stroke="#212121" stroke-width="2" stroke-miterlimit="10" stroke-linecap="round" stroke-linejoin="round"/>
<path d="M366.653 380.9C366.653 380.9 377.453 395.2 379.653 395.2C381.853 395.2 412.953 382.5 412.953 382.5C412.953 382.5 416.753 384.4 418.653 387.3C420.553 390.2 418.953 394.6 422.753 394.6C426.553 394.6 425.253 385.1 424.053 381.6C422.753 378.1 420.253 368.9 418.053 368C415.853 367.1 408.253 373.7 408.253 373.7C408.253 373.7 395.853 377.8 393.953 378.5C392.053 379.1 380.653 381 380.653 381H366.653V380.9Z" fill="#C48C38" stroke="#212121" stroke-width="2" stroke-miterlimit="10" stroke-linecap="round" stroke-linejoin="round"/>
<path d="M418.053 367.9C416.553 367.2 412.453 370.2 410.053 372.1C412.453 374 416.153 376.8 416.153 376.8C416.153 376.8 415.153 377.8 413.253 379C411.353 380.3 412.953 382.5 412.953 382.5C412.953 382.5 416.753 384.4 418.653 387.3C420.553 390.2 418.953 394.6 422.753 394.6C426.553 394.6 425.253 385.1 424.053 381.6C422.853 378 420.253 368.8 418.053 367.9Z" fill="#E96B73" stroke="#212121" stroke-width="2" stroke-miterlimit="10" stroke-linecap="round" stroke-linejoin="round"/>
<path d="M423.853 394.2C426.353 392.5 425.153 384.6 424.053 381.5C422.753 378 420.253 368.8 418.053 367.9C417.453 367.6 416.453 368 415.253 368.5C416.253 370 419.553 374.8 421.353 379.3C423.553 384.7 424.853 389.9 423.953 393.5C423.953 393.7 423.953 394 423.853 394.2Z" fill="#E96B73" stroke="#212121" stroke-width="2" stroke-miterlimit="10" stroke-linecap="round" stroke-linejoin="round"/>
<path d="M342.553 378.3C342.553 378.3 341.553 389.4 343.553 392.6C345.453 395.8 352.753 426.9 352.753 427.8C352.753 428.8 352.153 431.9 352.153 431.9C352.153 431.9 349.653 438.9 344.853 441.4C340.053 443.9 337.253 447.1 339.753 448.4C342.253 449.7 354.053 446.2 357.153 444.9C360.353 443.6 367.353 441.4 367.653 438.6C367.953 435.8 362.853 427.5 362.853 425.9C362.853 424.3 364.753 410.7 364.453 403.4C364.153 396.1 359.653 387.9 359.653 387.9L359.953 380L342.553 378.3Z" fill="#C48C38" stroke="#212121" stroke-width="2" stroke-miterlimit="10" stroke-linecap="round" stroke-linejoin="round"/>
<path d="M367.653 438.6C367.853 436.7 365.753 432.6 364.253 429.4L355.253 433.2C355.253 433.2 355.253 431 353.353 429.7C353.053 429.5 352.753 429.4 352.553 429.4C352.353 430.6 352.053 431.9 352.053 431.9C352.053 431.9 349.553 438.9 344.753 441.4C339.953 443.9 337.153 447.1 339.653 448.4C342.153 449.7 353.953 446.2 357.053 444.9C360.353 443.7 367.253 441.5 367.653 438.6Z" fill="#E96B73" stroke="#212121" stroke-width="2" stroke-miterlimit="10" stroke-linecap="round" stroke-linejoin="round"/>
<path d="M367.653 438.6C367.753 438 367.553 437.2 367.253 436.3C363.753 438.6 357.953 441.8 350.853 444.4C344.553 446.6 340.853 447.2 338.753 447.2C338.753 447.7 339.053 448.1 339.653 448.4C342.153 449.7 353.953 446.2 357.053 444.9C360.353 443.7 367.253 441.5 367.653 438.6Z" fill="#E96B73" stroke="#212121" stroke-width="2" stroke-miterlimit="10" stroke-linecap="round" stroke-linejoin="round"/>
<path d="M343.853 338.6L333.053 381.8C333.053 381.8 340.653 386.6 362.553 385C384.453 383.4 396.153 375.5 396.153 375.5C396.153 375.5 394.253 370.1 393.253 369.2C392.253 368.2 390.053 365.1 390.053 365.1L380.853 335.3L343.853 338.6Z" fill="#E96B73" stroke="#212121" stroke-width="2" stroke-miterlimit="10" stroke-linecap="round" stroke-linejoin="round"/>
<path d="M349.853 343.1L346.353 358" stroke="#212121" stroke-width="2" stroke-miterlimit="10" stroke-linecap="round" stroke-linejoin="round"/>
<path d="M361.553 343.4V353.3" stroke="#212121" stroke-width="2" stroke-miterlimit="10" stroke-linecap="round" stroke-linejoin="round"/>
<path d="M375.553 342.5L380.653 359.6" stroke="#212121" stroke-width="2" stroke-miterlimit="10" stroke-linecap="round" stroke-linejoin="round"/>
<path d="M370.653 295.6C370.653 295.6 365.753 292.3 360.553 292.3C355.353 292.3 348.153 292.1 348.153 292.1C348.153 292.1 329.753 283.8 325.053 280.6C320.453 277.4 307.753 262.4 307.753 262.4C307.753 262.4 308.953 258.2 308.953 256.8C308.953 255.4 308.753 254.1 308.753 252.3C308.753 250.5 309.253 248.6 307.453 248.8C305.653 249 306.353 252.2 306.453 252.6C306.653 253.1 305.453 256 305.453 256C305.453 256 304.453 250.7 304.053 248.5C303.553 246.3 303.253 243.2 302.653 243.2C302.053 243.2 301.053 244 301.253 244.8C301.453 245.6 301.553 253.2 301.553 253.2L300.453 251.9C300.453 251.9 299.053 247.6 298.253 245.2C297.453 242.8 296.053 244.1 296.053 245.5C296.053 246.9 298.253 254.5 298.253 254.5L297.453 255.3C297.453 255.3 294.553 250 294.053 249.2C293.553 248.4 292.753 248.7 293.453 251.1C294.153 253.5 296.053 258 296.053 258C296.053 258 292.853 255.6 292.253 255.1C291.653 254.6 290.953 256.2 292.253 257.2C293.553 258.2 296.053 261.2 296.853 262.3C297.653 263.4 302.153 267.3 302.153 267.3C302.153 267.3 314.053 285.2 317.253 288.6C320.453 292 325.753 297.1 325.753 297.1C325.753 297.1 333.253 302.2 336.853 304.5C340.353 306.7 347.453 311.2 347.453 311.2L348.053 313.9L343.853 338.6C343.853 338.6 343.653 341.8 357.753 342.1C371.853 342.4 379.653 339.1 380.653 336.7C381.653 334.3 375.853 310.6 374.553 303.9C373.253 297.1 370.653 295.6 370.653 295.6Z" fill="#C48C38" stroke="#212121" stroke-width="2" stroke-miterlimit="10" stroke-linecap="round" stroke-linejoin="round"/>
<path d="M370.653 295.6C370.653 295.6 365.753 292.3 360.553 292.3C358.653 292.3 356.453 292.3 354.453 292.2C357.853 293.6 363.053 297.2 362.253 305.4C361.153 316 355.453 322.6 347.653 315.9L343.853 338.5C343.853 338.5 343.653 341.7 357.753 342C371.853 342.3 379.653 339 380.653 336.6C381.653 334.2 375.853 310.5 374.553 303.8C373.253 297.1 370.653 295.6 370.653 295.6Z" fill="#212121" stroke="#212121" stroke-width="2" stroke-miterlimit="10" stroke-linecap="round" stroke-linejoin="round"/>
<path d="M166 155.5C166 165.165 158.165 173 148.5 173C138.835 173 131 165.165 131 155.5C131 145.835 138.835 138 148.5 138C158.165 138 166 145.835 166 155.5Z" fill="#212121" stroke="#212121" stroke-width="2"/>
<path d="M142 158C145.314 158 148 154.866 148 151C148 147.134 145.314 144 142 144C138.686 144 136 147.134 136 151C136 154.866 138.686 158 142 158Z" fill="white"/>
<path d="M252 155.5C252 165.165 244.165 173 234.5 173C224.835 173 217 165.165 217 155.5C217 145.835 224.835 138 234.5 138C244.165 138 252 145.835 252 155.5Z" fill="#212121" stroke="#212121" stroke-width="2"/>
<path d="M228.5 158C232.09 158 235 154.866 235 151C235 147.134 232.09 144 228.5 144C224.91 144 222 147.134 222 151C222 154.866 224.91 158 228.5 158Z" fill="white"/>
<path d="M192.333 198.977L192.304 198.977L192.275 198.979C189.987 199.142 187.029 198.343 183.924 196.812C180.842 195.291 177.718 193.098 175.125 190.605C172.523 188.104 170.514 185.358 169.578 182.752C168.651 180.174 168.795 177.825 170.322 175.878L170.322 175.878L170.327 175.871C171.851 173.896 174.639 173.453 176.86 174.688L176.864 174.69C182.168 177.603 187.153 179.706 192.124 180.115C197.143 180.529 202.058 179.21 207.191 175.466L207.178 175.447C207.209 175.433 207.24 175.417 207.272 175.401L207.285 175.388L207.292 175.381L207.296 175.378L207.298 175.376L207.299 175.375L207.299 175.375L207.301 175.373L207.315 175.36L207.397 175.28C210.483 172.712 215.271 174.58 215.903 178.667C216.622 183.406 213.234 188.419 208.141 192.391C203.087 196.332 196.754 198.92 192.333 198.977Z" fill="#212121" stroke="#212121" stroke-width="2"/>
</svg>
